%TF.GenerationSoftware,KiCad,Pcbnew,7.0.9*%
%TF.CreationDate,2024-02-17T00:35:01+08:00*%
%TF.ProjectId,AlarmClockProjV1,416c6172-6d43-46c6-9f63-6b50726f6a56,rev?*%
%TF.SameCoordinates,Original*%
%TF.FileFunction,Legend,Top*%
%TF.FilePolarity,Positive*%
%FSLAX46Y46*%
G04 Gerber Fmt 4.6, Leading zero omitted, Abs format (unit mm)*
G04 Created by KiCad (PCBNEW 7.0.9) date 2024-02-17 00:35:01*
%MOMM*%
%LPD*%
G01*
G04 APERTURE LIST*
G04 Aperture macros list*
%AMRoundRect*
0 Rectangle with rounded corners*
0 $1 Rounding radius*
0 $2 $3 $4 $5 $6 $7 $8 $9 X,Y pos of 4 corners*
0 Add a 4 corners polygon primitive as box body*
4,1,4,$2,$3,$4,$5,$6,$7,$8,$9,$2,$3,0*
0 Add four circle primitives for the rounded corners*
1,1,$1+$1,$2,$3*
1,1,$1+$1,$4,$5*
1,1,$1+$1,$6,$7*
1,1,$1+$1,$8,$9*
0 Add four rect primitives between the rounded corners*
20,1,$1+$1,$2,$3,$4,$5,0*
20,1,$1+$1,$4,$5,$6,$7,0*
20,1,$1+$1,$6,$7,$8,$9,0*
20,1,$1+$1,$8,$9,$2,$3,0*%
%AMFreePoly0*
4,1,19,0.500000,-0.750000,0.000000,-0.750000,0.000000,-0.744911,-0.071157,-0.744911,-0.207708,-0.704816,-0.327430,-0.627875,-0.420627,-0.520320,-0.479746,-0.390866,-0.500000,-0.250000,-0.500000,0.250000,-0.479746,0.390866,-0.420627,0.520320,-0.327430,0.627875,-0.207708,0.704816,-0.071157,0.744911,0.000000,0.744911,0.000000,0.750000,0.500000,0.750000,0.500000,-0.750000,0.500000,-0.750000,
$1*%
%AMFreePoly1*
4,1,19,0.000000,0.744911,0.071157,0.744911,0.207708,0.704816,0.327430,0.627875,0.420627,0.520320,0.479746,0.390866,0.500000,0.250000,0.500000,-0.250000,0.479746,-0.390866,0.420627,-0.520320,0.327430,-0.627875,0.207708,-0.704816,0.071157,-0.744911,0.000000,-0.744911,0.000000,-0.750000,-0.500000,-0.750000,-0.500000,0.750000,0.000000,0.750000,0.000000,0.744911,0.000000,0.744911,
$1*%
G04 Aperture macros list end*
%ADD10C,0.300000*%
%ADD11C,0.200000*%
%ADD12C,0.254000*%
%ADD13C,0.120000*%
%ADD14C,0.160000*%
%ADD15C,0.250000*%
%ADD16C,0.100000*%
%ADD17C,0.150000*%
%ADD18C,1.350000*%
%ADD19RoundRect,0.225000X0.225000X0.250000X-0.225000X0.250000X-0.225000X-0.250000X0.225000X-0.250000X0*%
%ADD20RoundRect,0.135000X0.135000X0.185000X-0.135000X0.185000X-0.135000X-0.185000X0.135000X-0.185000X0*%
%ADD21R,1.700000X1.700000*%
%ADD22O,1.700000X1.700000*%
%ADD23RoundRect,0.135000X-0.185000X0.135000X-0.185000X-0.135000X0.185000X-0.135000X0.185000X0.135000X0*%
%ADD24RoundRect,0.135000X0.185000X-0.135000X0.185000X0.135000X-0.185000X0.135000X-0.185000X-0.135000X0*%
%ADD25R,0.700000X0.700000*%
%ADD26RoundRect,0.150000X-0.150000X0.512500X-0.150000X-0.512500X0.150000X-0.512500X0.150000X0.512500X0*%
%ADD27RoundRect,0.225000X0.250000X-0.225000X0.250000X0.225000X-0.250000X0.225000X-0.250000X-0.225000X0*%
%ADD28R,1.150000X0.900000*%
%ADD29RoundRect,0.140000X-0.170000X0.140000X-0.170000X-0.140000X0.170000X-0.140000X0.170000X0.140000X0*%
%ADD30C,3.600000*%
%ADD31C,6.400000*%
%ADD32RoundRect,0.140000X-0.140000X-0.170000X0.140000X-0.170000X0.140000X0.170000X-0.140000X0.170000X0*%
%ADD33RoundRect,0.218750X-0.218750X-0.256250X0.218750X-0.256250X0.218750X0.256250X-0.218750X0.256250X0*%
%ADD34C,0.650000*%
%ADD35RoundRect,0.150000X0.425000X-0.150000X0.425000X0.150000X-0.425000X0.150000X-0.425000X-0.150000X0*%
%ADD36RoundRect,0.075000X0.500000X-0.075000X0.500000X0.075000X-0.500000X0.075000X-0.500000X-0.075000X0*%
%ADD37O,2.100000X1.000000*%
%ADD38O,1.800000X1.000000*%
%ADD39RoundRect,0.135000X-0.135000X-0.185000X0.135000X-0.185000X0.135000X0.185000X-0.135000X0.185000X0*%
%ADD40RoundRect,0.150000X0.587500X0.150000X-0.587500X0.150000X-0.587500X-0.150000X0.587500X-0.150000X0*%
%ADD41R,1.500000X0.900000*%
%ADD42R,0.900000X1.500000*%
%ADD43R,0.900000X0.900000*%
%ADD44C,1.600000*%
%ADD45O,1.600000X1.600000*%
%ADD46R,2.500000X2.500000*%
%ADD47FreePoly0,0.000000*%
%ADD48FreePoly1,0.000000*%
%ADD49R,1.000000X3.150000*%
%ADD50R,3.500000X1.600000*%
%ADD51RoundRect,0.225000X-0.250000X0.225000X-0.250000X-0.225000X0.250000X-0.225000X0.250000X0.225000X0*%
%ADD52R,0.700000X0.340000*%
%ADD53RoundRect,0.140000X0.140000X0.170000X-0.140000X0.170000X-0.140000X-0.170000X0.140000X-0.170000X0*%
%ADD54RoundRect,0.218750X0.218750X0.256250X-0.218750X0.256250X-0.218750X-0.256250X0.218750X-0.256250X0*%
%ADD55R,1.550000X0.700000*%
%ADD56RoundRect,0.250000X-0.250000X-0.475000X0.250000X-0.475000X0.250000X0.475000X-0.250000X0.475000X0*%
%ADD57RoundRect,0.250000X0.250000X0.475000X-0.250000X0.475000X-0.250000X-0.475000X0.250000X-0.475000X0*%
%ADD58R,0.600000X0.300000*%
%ADD59R,0.300000X0.600000*%
%ADD60R,1.400000X0.700000*%
%ADD61RoundRect,0.225000X-0.225000X-0.375000X0.225000X-0.375000X0.225000X0.375000X-0.225000X0.375000X0*%
%ADD62C,2.300000*%
G04 APERTURE END LIST*
D10*
X125500000Y-86400000D02*
X132750000Y-86400000D01*
X155500000Y-86400000D02*
X141750000Y-86400000D01*
X134000000Y-86400000D02*
X140250000Y-86400000D01*
D11*
X185953006Y-119093409D02*
X186095863Y-119141028D01*
X186095863Y-119141028D02*
X186143482Y-119188647D01*
X186143482Y-119188647D02*
X186191101Y-119283885D01*
X186191101Y-119283885D02*
X186191101Y-119426742D01*
X186191101Y-119426742D02*
X186143482Y-119521980D01*
X186143482Y-119521980D02*
X186095863Y-119569600D01*
X186095863Y-119569600D02*
X186000625Y-119617219D01*
X186000625Y-119617219D02*
X185619673Y-119617219D01*
X185619673Y-119617219D02*
X185619673Y-118617219D01*
X185619673Y-118617219D02*
X185953006Y-118617219D01*
X185953006Y-118617219D02*
X186048244Y-118664838D01*
X186048244Y-118664838D02*
X186095863Y-118712457D01*
X186095863Y-118712457D02*
X186143482Y-118807695D01*
X186143482Y-118807695D02*
X186143482Y-118902933D01*
X186143482Y-118902933D02*
X186095863Y-118998171D01*
X186095863Y-118998171D02*
X186048244Y-119045790D01*
X186048244Y-119045790D02*
X185953006Y-119093409D01*
X185953006Y-119093409D02*
X185619673Y-119093409D01*
X186619673Y-118617219D02*
X186619673Y-119426742D01*
X186619673Y-119426742D02*
X186667292Y-119521980D01*
X186667292Y-119521980D02*
X186714911Y-119569600D01*
X186714911Y-119569600D02*
X186810149Y-119617219D01*
X186810149Y-119617219D02*
X187000625Y-119617219D01*
X187000625Y-119617219D02*
X187095863Y-119569600D01*
X187095863Y-119569600D02*
X187143482Y-119521980D01*
X187143482Y-119521980D02*
X187191101Y-119426742D01*
X187191101Y-119426742D02*
X187191101Y-118617219D01*
X188238720Y-119521980D02*
X188191101Y-119569600D01*
X188191101Y-119569600D02*
X188048244Y-119617219D01*
X188048244Y-119617219D02*
X187953006Y-119617219D01*
X187953006Y-119617219D02*
X187810149Y-119569600D01*
X187810149Y-119569600D02*
X187714911Y-119474361D01*
X187714911Y-119474361D02*
X187667292Y-119379123D01*
X187667292Y-119379123D02*
X187619673Y-119188647D01*
X187619673Y-119188647D02*
X187619673Y-119045790D01*
X187619673Y-119045790D02*
X187667292Y-118855314D01*
X187667292Y-118855314D02*
X187714911Y-118760076D01*
X187714911Y-118760076D02*
X187810149Y-118664838D01*
X187810149Y-118664838D02*
X187953006Y-118617219D01*
X187953006Y-118617219D02*
X188048244Y-118617219D01*
X188048244Y-118617219D02*
X188191101Y-118664838D01*
X188191101Y-118664838D02*
X188238720Y-118712457D01*
X188667292Y-119617219D02*
X188667292Y-118617219D01*
X189238720Y-119617219D02*
X188810149Y-119045790D01*
X189238720Y-118617219D02*
X188667292Y-119188647D01*
X147808340Y-98522054D02*
X147855960Y-98569673D01*
X147855960Y-98569673D02*
X147903579Y-98712530D01*
X147903579Y-98712530D02*
X147903579Y-98807768D01*
X147903579Y-98807768D02*
X147855960Y-98950625D01*
X147855960Y-98950625D02*
X147760721Y-99045863D01*
X147760721Y-99045863D02*
X147665483Y-99093482D01*
X147665483Y-99093482D02*
X147475007Y-99141101D01*
X147475007Y-99141101D02*
X147332150Y-99141101D01*
X147332150Y-99141101D02*
X147141674Y-99093482D01*
X147141674Y-99093482D02*
X147046436Y-99045863D01*
X147046436Y-99045863D02*
X146951198Y-98950625D01*
X146951198Y-98950625D02*
X146903579Y-98807768D01*
X146903579Y-98807768D02*
X146903579Y-98712530D01*
X146903579Y-98712530D02*
X146951198Y-98569673D01*
X146951198Y-98569673D02*
X146998817Y-98522054D01*
X147903579Y-97617292D02*
X147903579Y-98093482D01*
X147903579Y-98093482D02*
X146903579Y-98093482D01*
X147903579Y-97283958D02*
X146903579Y-97283958D01*
X147903579Y-96712530D02*
X147332150Y-97141101D01*
X146903579Y-96712530D02*
X147475007Y-97283958D01*
X136780637Y-98236339D02*
X136733018Y-98188720D01*
X136733018Y-98188720D02*
X136685399Y-98093482D01*
X136685399Y-98093482D02*
X136685399Y-97855387D01*
X136685399Y-97855387D02*
X136733018Y-97760149D01*
X136733018Y-97760149D02*
X136780637Y-97712530D01*
X136780637Y-97712530D02*
X136875875Y-97664911D01*
X136875875Y-97664911D02*
X136971113Y-97664911D01*
X136971113Y-97664911D02*
X137113970Y-97712530D01*
X137113970Y-97712530D02*
X137685399Y-98283958D01*
X137685399Y-98283958D02*
X137685399Y-97664911D01*
X137685399Y-96712530D02*
X137685399Y-97283958D01*
X137685399Y-96998244D02*
X136685399Y-96998244D01*
X136685399Y-96998244D02*
X136828256Y-97093482D01*
X136828256Y-97093482D02*
X136923494Y-97188720D01*
X136923494Y-97188720D02*
X136971113Y-97283958D01*
X149199885Y-84954136D02*
X149142742Y-85068422D01*
X149142742Y-85068422D02*
X149142742Y-85239850D01*
X149142742Y-85239850D02*
X149199885Y-85411279D01*
X149199885Y-85411279D02*
X149314171Y-85525564D01*
X149314171Y-85525564D02*
X149428457Y-85582707D01*
X149428457Y-85582707D02*
X149657028Y-85639850D01*
X149657028Y-85639850D02*
X149828457Y-85639850D01*
X149828457Y-85639850D02*
X150057028Y-85582707D01*
X150057028Y-85582707D02*
X150171314Y-85525564D01*
X150171314Y-85525564D02*
X150285600Y-85411279D01*
X150285600Y-85411279D02*
X150342742Y-85239850D01*
X150342742Y-85239850D02*
X150342742Y-85125564D01*
X150342742Y-85125564D02*
X150285600Y-84954136D01*
X150285600Y-84954136D02*
X150228457Y-84896993D01*
X150228457Y-84896993D02*
X149828457Y-84896993D01*
X149828457Y-84896993D02*
X149828457Y-85125564D01*
X150342742Y-84382707D02*
X149142742Y-84382707D01*
X149142742Y-84382707D02*
X150342742Y-83696993D01*
X150342742Y-83696993D02*
X149142742Y-83696993D01*
X150342742Y-83125564D02*
X149142742Y-83125564D01*
X149142742Y-83125564D02*
X149142742Y-82839850D01*
X149142742Y-82839850D02*
X149199885Y-82668421D01*
X149199885Y-82668421D02*
X149314171Y-82554136D01*
X149314171Y-82554136D02*
X149428457Y-82496993D01*
X149428457Y-82496993D02*
X149657028Y-82439850D01*
X149657028Y-82439850D02*
X149828457Y-82439850D01*
X149828457Y-82439850D02*
X150057028Y-82496993D01*
X150057028Y-82496993D02*
X150171314Y-82554136D01*
X150171314Y-82554136D02*
X150285600Y-82668421D01*
X150285600Y-82668421D02*
X150342742Y-82839850D01*
X150342742Y-82839850D02*
X150342742Y-83125564D01*
X140239944Y-97664911D02*
X140239944Y-98236339D01*
X140239944Y-97950625D02*
X139239944Y-97950625D01*
X139239944Y-97950625D02*
X139382801Y-98045863D01*
X139382801Y-98045863D02*
X139478039Y-98141101D01*
X139478039Y-98141101D02*
X139525658Y-98236339D01*
X139573277Y-96807768D02*
X140239944Y-96807768D01*
X139192325Y-97045863D02*
X139906610Y-97283958D01*
X139906610Y-97283958D02*
X139906610Y-96664911D01*
X75740968Y-113824438D02*
X75645730Y-113776819D01*
X75645730Y-113776819D02*
X75502873Y-113776819D01*
X75502873Y-113776819D02*
X75360016Y-113824438D01*
X75360016Y-113824438D02*
X75264778Y-113919676D01*
X75264778Y-113919676D02*
X75217159Y-114014914D01*
X75217159Y-114014914D02*
X75169540Y-114205390D01*
X75169540Y-114205390D02*
X75169540Y-114348247D01*
X75169540Y-114348247D02*
X75217159Y-114538723D01*
X75217159Y-114538723D02*
X75264778Y-114633961D01*
X75264778Y-114633961D02*
X75360016Y-114729200D01*
X75360016Y-114729200D02*
X75502873Y-114776819D01*
X75502873Y-114776819D02*
X75598111Y-114776819D01*
X75598111Y-114776819D02*
X75740968Y-114729200D01*
X75740968Y-114729200D02*
X75788587Y-114681580D01*
X75788587Y-114681580D02*
X75788587Y-114348247D01*
X75788587Y-114348247D02*
X75598111Y-114348247D01*
X76217159Y-114776819D02*
X76217159Y-113776819D01*
X76217159Y-113776819D02*
X76788587Y-114776819D01*
X76788587Y-114776819D02*
X76788587Y-113776819D01*
X77264778Y-114776819D02*
X77264778Y-113776819D01*
X77264778Y-113776819D02*
X77502873Y-113776819D01*
X77502873Y-113776819D02*
X77645730Y-113824438D01*
X77645730Y-113824438D02*
X77740968Y-113919676D01*
X77740968Y-113919676D02*
X77788587Y-114014914D01*
X77788587Y-114014914D02*
X77836206Y-114205390D01*
X77836206Y-114205390D02*
X77836206Y-114348247D01*
X77836206Y-114348247D02*
X77788587Y-114538723D01*
X77788587Y-114538723D02*
X77740968Y-114633961D01*
X77740968Y-114633961D02*
X77645730Y-114729200D01*
X77645730Y-114729200D02*
X77502873Y-114776819D01*
X77502873Y-114776819D02*
X77264778Y-114776819D01*
X226903006Y-116543409D02*
X227045863Y-116591028D01*
X227045863Y-116591028D02*
X227093482Y-116638647D01*
X227093482Y-116638647D02*
X227141101Y-116733885D01*
X227141101Y-116733885D02*
X227141101Y-116876742D01*
X227141101Y-116876742D02*
X227093482Y-116971980D01*
X227093482Y-116971980D02*
X227045863Y-117019600D01*
X227045863Y-117019600D02*
X226950625Y-117067219D01*
X226950625Y-117067219D02*
X226569673Y-117067219D01*
X226569673Y-117067219D02*
X226569673Y-116067219D01*
X226569673Y-116067219D02*
X226903006Y-116067219D01*
X226903006Y-116067219D02*
X226998244Y-116114838D01*
X226998244Y-116114838D02*
X227045863Y-116162457D01*
X227045863Y-116162457D02*
X227093482Y-116257695D01*
X227093482Y-116257695D02*
X227093482Y-116352933D01*
X227093482Y-116352933D02*
X227045863Y-116448171D01*
X227045863Y-116448171D02*
X226998244Y-116495790D01*
X226998244Y-116495790D02*
X226903006Y-116543409D01*
X226903006Y-116543409D02*
X226569673Y-116543409D01*
X227760149Y-116067219D02*
X227950625Y-116067219D01*
X227950625Y-116067219D02*
X228045863Y-116114838D01*
X228045863Y-116114838D02*
X228141101Y-116210076D01*
X228141101Y-116210076D02*
X228188720Y-116400552D01*
X228188720Y-116400552D02*
X228188720Y-116733885D01*
X228188720Y-116733885D02*
X228141101Y-116924361D01*
X228141101Y-116924361D02*
X228045863Y-117019600D01*
X228045863Y-117019600D02*
X227950625Y-117067219D01*
X227950625Y-117067219D02*
X227760149Y-117067219D01*
X227760149Y-117067219D02*
X227664911Y-117019600D01*
X227664911Y-117019600D02*
X227569673Y-116924361D01*
X227569673Y-116924361D02*
X227522054Y-116733885D01*
X227522054Y-116733885D02*
X227522054Y-116400552D01*
X227522054Y-116400552D02*
X227569673Y-116210076D01*
X227569673Y-116210076D02*
X227664911Y-116114838D01*
X227664911Y-116114838D02*
X227760149Y-116067219D01*
X228807768Y-116067219D02*
X228998244Y-116067219D01*
X228998244Y-116067219D02*
X229093482Y-116114838D01*
X229093482Y-116114838D02*
X229188720Y-116210076D01*
X229188720Y-116210076D02*
X229236339Y-116400552D01*
X229236339Y-116400552D02*
X229236339Y-116733885D01*
X229236339Y-116733885D02*
X229188720Y-116924361D01*
X229188720Y-116924361D02*
X229093482Y-117019600D01*
X229093482Y-117019600D02*
X228998244Y-117067219D01*
X228998244Y-117067219D02*
X228807768Y-117067219D01*
X228807768Y-117067219D02*
X228712530Y-117019600D01*
X228712530Y-117019600D02*
X228617292Y-116924361D01*
X228617292Y-116924361D02*
X228569673Y-116733885D01*
X228569673Y-116733885D02*
X228569673Y-116400552D01*
X228569673Y-116400552D02*
X228617292Y-116210076D01*
X228617292Y-116210076D02*
X228712530Y-116114838D01*
X228712530Y-116114838D02*
X228807768Y-116067219D01*
X229522054Y-116067219D02*
X230093482Y-116067219D01*
X229807768Y-117067219D02*
X229807768Y-116067219D01*
X129974145Y-99277945D02*
X130021764Y-99135088D01*
X130021764Y-99135088D02*
X130021764Y-98896993D01*
X130021764Y-98896993D02*
X129974145Y-98801755D01*
X129974145Y-98801755D02*
X129926525Y-98754136D01*
X129926525Y-98754136D02*
X129831287Y-98706517D01*
X129831287Y-98706517D02*
X129736049Y-98706517D01*
X129736049Y-98706517D02*
X129640811Y-98754136D01*
X129640811Y-98754136D02*
X129593192Y-98801755D01*
X129593192Y-98801755D02*
X129545573Y-98896993D01*
X129545573Y-98896993D02*
X129497954Y-99087469D01*
X129497954Y-99087469D02*
X129450335Y-99182707D01*
X129450335Y-99182707D02*
X129402716Y-99230326D01*
X129402716Y-99230326D02*
X129307478Y-99277945D01*
X129307478Y-99277945D02*
X129212240Y-99277945D01*
X129212240Y-99277945D02*
X129117002Y-99230326D01*
X129117002Y-99230326D02*
X129069383Y-99182707D01*
X129069383Y-99182707D02*
X129021764Y-99087469D01*
X129021764Y-99087469D02*
X129021764Y-98849374D01*
X129021764Y-98849374D02*
X129069383Y-98706517D01*
X130021764Y-98277945D02*
X129021764Y-98277945D01*
X129021764Y-98277945D02*
X129021764Y-98039850D01*
X129021764Y-98039850D02*
X129069383Y-97896993D01*
X129069383Y-97896993D02*
X129164621Y-97801755D01*
X129164621Y-97801755D02*
X129259859Y-97754136D01*
X129259859Y-97754136D02*
X129450335Y-97706517D01*
X129450335Y-97706517D02*
X129593192Y-97706517D01*
X129593192Y-97706517D02*
X129783668Y-97754136D01*
X129783668Y-97754136D02*
X129878906Y-97801755D01*
X129878906Y-97801755D02*
X129974145Y-97896993D01*
X129974145Y-97896993D02*
X130021764Y-98039850D01*
X130021764Y-98039850D02*
X130021764Y-98277945D01*
X129736049Y-97325564D02*
X129736049Y-96849374D01*
X130021764Y-97420802D02*
X129021764Y-97087469D01*
X129021764Y-97087469D02*
X130021764Y-96754136D01*
X84103006Y-92343409D02*
X84245863Y-92391028D01*
X84245863Y-92391028D02*
X84293482Y-92438647D01*
X84293482Y-92438647D02*
X84341101Y-92533885D01*
X84341101Y-92533885D02*
X84341101Y-92676742D01*
X84341101Y-92676742D02*
X84293482Y-92771980D01*
X84293482Y-92771980D02*
X84245863Y-92819600D01*
X84245863Y-92819600D02*
X84150625Y-92867219D01*
X84150625Y-92867219D02*
X83769673Y-92867219D01*
X83769673Y-92867219D02*
X83769673Y-91867219D01*
X83769673Y-91867219D02*
X84103006Y-91867219D01*
X84103006Y-91867219D02*
X84198244Y-91914838D01*
X84198244Y-91914838D02*
X84245863Y-91962457D01*
X84245863Y-91962457D02*
X84293482Y-92057695D01*
X84293482Y-92057695D02*
X84293482Y-92152933D01*
X84293482Y-92152933D02*
X84245863Y-92248171D01*
X84245863Y-92248171D02*
X84198244Y-92295790D01*
X84198244Y-92295790D02*
X84103006Y-92343409D01*
X84103006Y-92343409D02*
X83769673Y-92343409D01*
X84769673Y-91867219D02*
X84769673Y-92676742D01*
X84769673Y-92676742D02*
X84817292Y-92771980D01*
X84817292Y-92771980D02*
X84864911Y-92819600D01*
X84864911Y-92819600D02*
X84960149Y-92867219D01*
X84960149Y-92867219D02*
X85150625Y-92867219D01*
X85150625Y-92867219D02*
X85245863Y-92819600D01*
X85245863Y-92819600D02*
X85293482Y-92771980D01*
X85293482Y-92771980D02*
X85341101Y-92676742D01*
X85341101Y-92676742D02*
X85341101Y-91867219D01*
X126142742Y-85754136D02*
X127342742Y-85354136D01*
X127342742Y-85354136D02*
X126142742Y-84954136D01*
X127342742Y-84554136D02*
X126542742Y-84554136D01*
X126142742Y-84554136D02*
X126199885Y-84611279D01*
X126199885Y-84611279D02*
X126257028Y-84554136D01*
X126257028Y-84554136D02*
X126199885Y-84496993D01*
X126199885Y-84496993D02*
X126142742Y-84554136D01*
X126142742Y-84554136D02*
X126257028Y-84554136D01*
X126542742Y-83982707D02*
X127342742Y-83982707D01*
X126657028Y-83982707D02*
X126599885Y-83925564D01*
X126599885Y-83925564D02*
X126542742Y-83811279D01*
X126542742Y-83811279D02*
X126542742Y-83639850D01*
X126542742Y-83639850D02*
X126599885Y-83525564D01*
X126599885Y-83525564D02*
X126714171Y-83468422D01*
X126714171Y-83468422D02*
X127342742Y-83468422D01*
X155567219Y-97664911D02*
X155091028Y-97998244D01*
X155567219Y-98236339D02*
X154567219Y-98236339D01*
X154567219Y-98236339D02*
X154567219Y-97855387D01*
X154567219Y-97855387D02*
X154614838Y-97760149D01*
X154614838Y-97760149D02*
X154662457Y-97712530D01*
X154662457Y-97712530D02*
X154757695Y-97664911D01*
X154757695Y-97664911D02*
X154900552Y-97664911D01*
X154900552Y-97664911D02*
X154995790Y-97712530D01*
X154995790Y-97712530D02*
X155043409Y-97760149D01*
X155043409Y-97760149D02*
X155091028Y-97855387D01*
X155091028Y-97855387D02*
X155091028Y-98236339D01*
X154567219Y-97331577D02*
X155567219Y-96664911D01*
X154567219Y-96664911D02*
X155567219Y-97331577D01*
X162969673Y-95267219D02*
X162969673Y-94267219D01*
X163636339Y-94267219D02*
X163826815Y-94267219D01*
X163826815Y-94267219D02*
X163922053Y-94314838D01*
X163922053Y-94314838D02*
X164017291Y-94410076D01*
X164017291Y-94410076D02*
X164064910Y-94600552D01*
X164064910Y-94600552D02*
X164064910Y-94933885D01*
X164064910Y-94933885D02*
X164017291Y-95124361D01*
X164017291Y-95124361D02*
X163922053Y-95219600D01*
X163922053Y-95219600D02*
X163826815Y-95267219D01*
X163826815Y-95267219D02*
X163636339Y-95267219D01*
X163636339Y-95267219D02*
X163541101Y-95219600D01*
X163541101Y-95219600D02*
X163445863Y-95124361D01*
X163445863Y-95124361D02*
X163398244Y-94933885D01*
X163398244Y-94933885D02*
X163398244Y-94600552D01*
X163398244Y-94600552D02*
X163445863Y-94410076D01*
X163445863Y-94410076D02*
X163541101Y-94314838D01*
X163541101Y-94314838D02*
X163636339Y-94267219D01*
X164922053Y-94600552D02*
X164922053Y-95267219D01*
X164683958Y-94219600D02*
X164445863Y-94933885D01*
X164445863Y-94933885D02*
X165064910Y-94933885D01*
X165636339Y-94267219D02*
X165731577Y-94267219D01*
X165731577Y-94267219D02*
X165826815Y-94314838D01*
X165826815Y-94314838D02*
X165874434Y-94362457D01*
X165874434Y-94362457D02*
X165922053Y-94457695D01*
X165922053Y-94457695D02*
X165969672Y-94648171D01*
X165969672Y-94648171D02*
X165969672Y-94886266D01*
X165969672Y-94886266D02*
X165922053Y-95076742D01*
X165922053Y-95076742D02*
X165874434Y-95171980D01*
X165874434Y-95171980D02*
X165826815Y-95219600D01*
X165826815Y-95219600D02*
X165731577Y-95267219D01*
X165731577Y-95267219D02*
X165636339Y-95267219D01*
X165636339Y-95267219D02*
X165541101Y-95219600D01*
X165541101Y-95219600D02*
X165493482Y-95171980D01*
X165493482Y-95171980D02*
X165445863Y-95076742D01*
X165445863Y-95076742D02*
X165398244Y-94886266D01*
X165398244Y-94886266D02*
X165398244Y-94648171D01*
X165398244Y-94648171D02*
X165445863Y-94457695D01*
X165445863Y-94457695D02*
X165493482Y-94362457D01*
X165493482Y-94362457D02*
X165541101Y-94314838D01*
X165541101Y-94314838D02*
X165636339Y-94267219D01*
X213345863Y-118767219D02*
X212869673Y-118767219D01*
X212869673Y-118767219D02*
X212869673Y-117767219D01*
X213631578Y-118719600D02*
X213774435Y-118767219D01*
X213774435Y-118767219D02*
X214012530Y-118767219D01*
X214012530Y-118767219D02*
X214107768Y-118719600D01*
X214107768Y-118719600D02*
X214155387Y-118671980D01*
X214155387Y-118671980D02*
X214203006Y-118576742D01*
X214203006Y-118576742D02*
X214203006Y-118481504D01*
X214203006Y-118481504D02*
X214155387Y-118386266D01*
X214155387Y-118386266D02*
X214107768Y-118338647D01*
X214107768Y-118338647D02*
X214012530Y-118291028D01*
X214012530Y-118291028D02*
X213822054Y-118243409D01*
X213822054Y-118243409D02*
X213726816Y-118195790D01*
X213726816Y-118195790D02*
X213679197Y-118148171D01*
X213679197Y-118148171D02*
X213631578Y-118052933D01*
X213631578Y-118052933D02*
X213631578Y-117957695D01*
X213631578Y-117957695D02*
X213679197Y-117862457D01*
X213679197Y-117862457D02*
X213726816Y-117814838D01*
X213726816Y-117814838D02*
X213822054Y-117767219D01*
X213822054Y-117767219D02*
X214060149Y-117767219D01*
X214060149Y-117767219D02*
X214203006Y-117814838D01*
X214631578Y-118767219D02*
X214631578Y-117767219D01*
X214631578Y-117767219D02*
X214964911Y-118481504D01*
X214964911Y-118481504D02*
X215298244Y-117767219D01*
X215298244Y-117767219D02*
X215298244Y-118767219D01*
X216203006Y-117767219D02*
X216012530Y-117767219D01*
X216012530Y-117767219D02*
X215917292Y-117814838D01*
X215917292Y-117814838D02*
X215869673Y-117862457D01*
X215869673Y-117862457D02*
X215774435Y-118005314D01*
X215774435Y-118005314D02*
X215726816Y-118195790D01*
X215726816Y-118195790D02*
X215726816Y-118576742D01*
X215726816Y-118576742D02*
X215774435Y-118671980D01*
X215774435Y-118671980D02*
X215822054Y-118719600D01*
X215822054Y-118719600D02*
X215917292Y-118767219D01*
X215917292Y-118767219D02*
X216107768Y-118767219D01*
X216107768Y-118767219D02*
X216203006Y-118719600D01*
X216203006Y-118719600D02*
X216250625Y-118671980D01*
X216250625Y-118671980D02*
X216298244Y-118576742D01*
X216298244Y-118576742D02*
X216298244Y-118338647D01*
X216298244Y-118338647D02*
X216250625Y-118243409D01*
X216250625Y-118243409D02*
X216203006Y-118195790D01*
X216203006Y-118195790D02*
X216107768Y-118148171D01*
X216107768Y-118148171D02*
X215917292Y-118148171D01*
X215917292Y-118148171D02*
X215822054Y-118195790D01*
X215822054Y-118195790D02*
X215774435Y-118243409D01*
X215774435Y-118243409D02*
X215726816Y-118338647D01*
X216726816Y-118767219D02*
X216726816Y-117767219D01*
X216726816Y-117767219D02*
X216964911Y-117767219D01*
X216964911Y-117767219D02*
X217107768Y-117814838D01*
X217107768Y-117814838D02*
X217203006Y-117910076D01*
X217203006Y-117910076D02*
X217250625Y-118005314D01*
X217250625Y-118005314D02*
X217298244Y-118195790D01*
X217298244Y-118195790D02*
X217298244Y-118338647D01*
X217298244Y-118338647D02*
X217250625Y-118529123D01*
X217250625Y-118529123D02*
X217203006Y-118624361D01*
X217203006Y-118624361D02*
X217107768Y-118719600D01*
X217107768Y-118719600D02*
X216964911Y-118767219D01*
X216964911Y-118767219D02*
X216726816Y-118767219D01*
X217679197Y-118719600D02*
X217822054Y-118767219D01*
X217822054Y-118767219D02*
X218060149Y-118767219D01*
X218060149Y-118767219D02*
X218155387Y-118719600D01*
X218155387Y-118719600D02*
X218203006Y-118671980D01*
X218203006Y-118671980D02*
X218250625Y-118576742D01*
X218250625Y-118576742D02*
X218250625Y-118481504D01*
X218250625Y-118481504D02*
X218203006Y-118386266D01*
X218203006Y-118386266D02*
X218155387Y-118338647D01*
X218155387Y-118338647D02*
X218060149Y-118291028D01*
X218060149Y-118291028D02*
X217869673Y-118243409D01*
X217869673Y-118243409D02*
X217774435Y-118195790D01*
X217774435Y-118195790D02*
X217726816Y-118148171D01*
X217726816Y-118148171D02*
X217679197Y-118052933D01*
X217679197Y-118052933D02*
X217679197Y-117957695D01*
X217679197Y-117957695D02*
X217726816Y-117862457D01*
X217726816Y-117862457D02*
X217774435Y-117814838D01*
X217774435Y-117814838D02*
X217869673Y-117767219D01*
X217869673Y-117767219D02*
X218107768Y-117767219D01*
X218107768Y-117767219D02*
X218250625Y-117814838D01*
X218869673Y-117767219D02*
X219060149Y-117767219D01*
X219060149Y-117767219D02*
X219155387Y-117814838D01*
X219155387Y-117814838D02*
X219250625Y-117910076D01*
X219250625Y-117910076D02*
X219298244Y-118100552D01*
X219298244Y-118100552D02*
X219298244Y-118433885D01*
X219298244Y-118433885D02*
X219250625Y-118624361D01*
X219250625Y-118624361D02*
X219155387Y-118719600D01*
X219155387Y-118719600D02*
X219060149Y-118767219D01*
X219060149Y-118767219D02*
X218869673Y-118767219D01*
X218869673Y-118767219D02*
X218774435Y-118719600D01*
X218774435Y-118719600D02*
X218679197Y-118624361D01*
X218679197Y-118624361D02*
X218631578Y-118433885D01*
X218631578Y-118433885D02*
X218631578Y-118100552D01*
X218631578Y-118100552D02*
X218679197Y-117910076D01*
X218679197Y-117910076D02*
X218774435Y-117814838D01*
X218774435Y-117814838D02*
X218869673Y-117767219D01*
X219631578Y-117767219D02*
X220298244Y-118767219D01*
X220298244Y-117767219D02*
X219631578Y-118767219D01*
X117369673Y-95267219D02*
X117369673Y-94267219D01*
X118036339Y-94267219D02*
X118226815Y-94267219D01*
X118226815Y-94267219D02*
X118322053Y-94314838D01*
X118322053Y-94314838D02*
X118417291Y-94410076D01*
X118417291Y-94410076D02*
X118464910Y-94600552D01*
X118464910Y-94600552D02*
X118464910Y-94933885D01*
X118464910Y-94933885D02*
X118417291Y-95124361D01*
X118417291Y-95124361D02*
X118322053Y-95219600D01*
X118322053Y-95219600D02*
X118226815Y-95267219D01*
X118226815Y-95267219D02*
X118036339Y-95267219D01*
X118036339Y-95267219D02*
X117941101Y-95219600D01*
X117941101Y-95219600D02*
X117845863Y-95124361D01*
X117845863Y-95124361D02*
X117798244Y-94933885D01*
X117798244Y-94933885D02*
X117798244Y-94600552D01*
X117798244Y-94600552D02*
X117845863Y-94410076D01*
X117845863Y-94410076D02*
X117941101Y-94314838D01*
X117941101Y-94314838D02*
X118036339Y-94267219D01*
X119322053Y-94600552D02*
X119322053Y-95267219D01*
X119083958Y-94219600D02*
X118845863Y-94933885D01*
X118845863Y-94933885D02*
X119464910Y-94933885D01*
X120369672Y-95267219D02*
X119798244Y-95267219D01*
X120083958Y-95267219D02*
X120083958Y-94267219D01*
X120083958Y-94267219D02*
X119988720Y-94410076D01*
X119988720Y-94410076D02*
X119893482Y-94505314D01*
X119893482Y-94505314D02*
X119798244Y-94552933D01*
X75407635Y-118941485D02*
X76026682Y-118941485D01*
X76026682Y-118941485D02*
X75693349Y-119322437D01*
X75693349Y-119322437D02*
X75836206Y-119322437D01*
X75836206Y-119322437D02*
X75931444Y-119370056D01*
X75931444Y-119370056D02*
X75979063Y-119417675D01*
X75979063Y-119417675D02*
X76026682Y-119512913D01*
X76026682Y-119512913D02*
X76026682Y-119751008D01*
X76026682Y-119751008D02*
X75979063Y-119846246D01*
X75979063Y-119846246D02*
X75931444Y-119893866D01*
X75931444Y-119893866D02*
X75836206Y-119941485D01*
X75836206Y-119941485D02*
X75550492Y-119941485D01*
X75550492Y-119941485D02*
X75455254Y-119893866D01*
X75455254Y-119893866D02*
X75407635Y-119846246D01*
X76312397Y-118941485D02*
X76645730Y-119941485D01*
X76645730Y-119941485D02*
X76979063Y-118941485D01*
X77217159Y-118941485D02*
X77883825Y-118941485D01*
X77883825Y-118941485D02*
X77455254Y-119941485D01*
X131909642Y-97760149D02*
X132576309Y-97760149D01*
X131528690Y-97998244D02*
X132242975Y-98236339D01*
X132242975Y-98236339D02*
X132242975Y-97617292D01*
X132004880Y-97093482D02*
X131957261Y-97188720D01*
X131957261Y-97188720D02*
X131909642Y-97236339D01*
X131909642Y-97236339D02*
X131814404Y-97283958D01*
X131814404Y-97283958D02*
X131766785Y-97283958D01*
X131766785Y-97283958D02*
X131671547Y-97236339D01*
X131671547Y-97236339D02*
X131623928Y-97188720D01*
X131623928Y-97188720D02*
X131576309Y-97093482D01*
X131576309Y-97093482D02*
X131576309Y-96903006D01*
X131576309Y-96903006D02*
X131623928Y-96807768D01*
X131623928Y-96807768D02*
X131671547Y-96760149D01*
X131671547Y-96760149D02*
X131766785Y-96712530D01*
X131766785Y-96712530D02*
X131814404Y-96712530D01*
X131814404Y-96712530D02*
X131909642Y-96760149D01*
X131909642Y-96760149D02*
X131957261Y-96807768D01*
X131957261Y-96807768D02*
X132004880Y-96903006D01*
X132004880Y-96903006D02*
X132004880Y-97093482D01*
X132004880Y-97093482D02*
X132052499Y-97188720D01*
X132052499Y-97188720D02*
X132100118Y-97236339D01*
X132100118Y-97236339D02*
X132195356Y-97283958D01*
X132195356Y-97283958D02*
X132385832Y-97283958D01*
X132385832Y-97283958D02*
X132481070Y-97236339D01*
X132481070Y-97236339D02*
X132528690Y-97188720D01*
X132528690Y-97188720D02*
X132576309Y-97093482D01*
X132576309Y-97093482D02*
X132576309Y-96903006D01*
X132576309Y-96903006D02*
X132528690Y-96807768D01*
X132528690Y-96807768D02*
X132481070Y-96760149D01*
X132481070Y-96760149D02*
X132385832Y-96712530D01*
X132385832Y-96712530D02*
X132195356Y-96712530D01*
X132195356Y-96712530D02*
X132100118Y-96760149D01*
X132100118Y-96760149D02*
X132052499Y-96807768D01*
X132052499Y-96807768D02*
X132004880Y-96903006D01*
X127419600Y-99230326D02*
X127467219Y-99087469D01*
X127467219Y-99087469D02*
X127467219Y-98849374D01*
X127467219Y-98849374D02*
X127419600Y-98754136D01*
X127419600Y-98754136D02*
X127371980Y-98706517D01*
X127371980Y-98706517D02*
X127276742Y-98658898D01*
X127276742Y-98658898D02*
X127181504Y-98658898D01*
X127181504Y-98658898D02*
X127086266Y-98706517D01*
X127086266Y-98706517D02*
X127038647Y-98754136D01*
X127038647Y-98754136D02*
X126991028Y-98849374D01*
X126991028Y-98849374D02*
X126943409Y-99039850D01*
X126943409Y-99039850D02*
X126895790Y-99135088D01*
X126895790Y-99135088D02*
X126848171Y-99182707D01*
X126848171Y-99182707D02*
X126752933Y-99230326D01*
X126752933Y-99230326D02*
X126657695Y-99230326D01*
X126657695Y-99230326D02*
X126562457Y-99182707D01*
X126562457Y-99182707D02*
X126514838Y-99135088D01*
X126514838Y-99135088D02*
X126467219Y-99039850D01*
X126467219Y-99039850D02*
X126467219Y-98801755D01*
X126467219Y-98801755D02*
X126514838Y-98658898D01*
X127371980Y-97658898D02*
X127419600Y-97706517D01*
X127419600Y-97706517D02*
X127467219Y-97849374D01*
X127467219Y-97849374D02*
X127467219Y-97944612D01*
X127467219Y-97944612D02*
X127419600Y-98087469D01*
X127419600Y-98087469D02*
X127324361Y-98182707D01*
X127324361Y-98182707D02*
X127229123Y-98230326D01*
X127229123Y-98230326D02*
X127038647Y-98277945D01*
X127038647Y-98277945D02*
X126895790Y-98277945D01*
X126895790Y-98277945D02*
X126705314Y-98230326D01*
X126705314Y-98230326D02*
X126610076Y-98182707D01*
X126610076Y-98182707D02*
X126514838Y-98087469D01*
X126514838Y-98087469D02*
X126467219Y-97944612D01*
X126467219Y-97944612D02*
X126467219Y-97849374D01*
X126467219Y-97849374D02*
X126514838Y-97706517D01*
X126514838Y-97706517D02*
X126562457Y-97658898D01*
X127467219Y-96754136D02*
X127467219Y-97230326D01*
X127467219Y-97230326D02*
X126467219Y-97230326D01*
X227369673Y-106743409D02*
X227703006Y-106743409D01*
X227845863Y-107267219D02*
X227369673Y-107267219D01*
X227369673Y-107267219D02*
X227369673Y-106267219D01*
X227369673Y-106267219D02*
X227845863Y-106267219D01*
X228274435Y-107267219D02*
X228274435Y-106267219D01*
X228274435Y-106267219D02*
X228845863Y-107267219D01*
X228845863Y-107267219D02*
X228845863Y-106267219D01*
X203595863Y-121203019D02*
X203119673Y-121203019D01*
X203119673Y-121203019D02*
X203119673Y-120203019D01*
X203929197Y-121203019D02*
X203929197Y-120203019D01*
X203929197Y-120203019D02*
X204167292Y-120203019D01*
X204167292Y-120203019D02*
X204310149Y-120250638D01*
X204310149Y-120250638D02*
X204405387Y-120345876D01*
X204405387Y-120345876D02*
X204453006Y-120441114D01*
X204453006Y-120441114D02*
X204500625Y-120631590D01*
X204500625Y-120631590D02*
X204500625Y-120774447D01*
X204500625Y-120774447D02*
X204453006Y-120964923D01*
X204453006Y-120964923D02*
X204405387Y-121060161D01*
X204405387Y-121060161D02*
X204310149Y-121155400D01*
X204310149Y-121155400D02*
X204167292Y-121203019D01*
X204167292Y-121203019D02*
X203929197Y-121203019D01*
X205119673Y-120203019D02*
X205310149Y-120203019D01*
X205310149Y-120203019D02*
X205405387Y-120250638D01*
X205405387Y-120250638D02*
X205500625Y-120345876D01*
X205500625Y-120345876D02*
X205548244Y-120536352D01*
X205548244Y-120536352D02*
X205548244Y-120869685D01*
X205548244Y-120869685D02*
X205500625Y-121060161D01*
X205500625Y-121060161D02*
X205405387Y-121155400D01*
X205405387Y-121155400D02*
X205310149Y-121203019D01*
X205310149Y-121203019D02*
X205119673Y-121203019D01*
X205119673Y-121203019D02*
X205024435Y-121155400D01*
X205024435Y-121155400D02*
X204929197Y-121060161D01*
X204929197Y-121060161D02*
X204881578Y-120869685D01*
X204881578Y-120869685D02*
X204881578Y-120536352D01*
X204881578Y-120536352D02*
X204929197Y-120345876D01*
X204929197Y-120345876D02*
X205024435Y-120250638D01*
X205024435Y-120250638D02*
X205119673Y-120203019D01*
X79203006Y-98943409D02*
X79345863Y-98991028D01*
X79345863Y-98991028D02*
X79393482Y-99038647D01*
X79393482Y-99038647D02*
X79441101Y-99133885D01*
X79441101Y-99133885D02*
X79441101Y-99276742D01*
X79441101Y-99276742D02*
X79393482Y-99371980D01*
X79393482Y-99371980D02*
X79345863Y-99419600D01*
X79345863Y-99419600D02*
X79250625Y-99467219D01*
X79250625Y-99467219D02*
X78869673Y-99467219D01*
X78869673Y-99467219D02*
X78869673Y-98467219D01*
X78869673Y-98467219D02*
X79203006Y-98467219D01*
X79203006Y-98467219D02*
X79298244Y-98514838D01*
X79298244Y-98514838D02*
X79345863Y-98562457D01*
X79345863Y-98562457D02*
X79393482Y-98657695D01*
X79393482Y-98657695D02*
X79393482Y-98752933D01*
X79393482Y-98752933D02*
X79345863Y-98848171D01*
X79345863Y-98848171D02*
X79298244Y-98895790D01*
X79298244Y-98895790D02*
X79203006Y-98943409D01*
X79203006Y-98943409D02*
X78869673Y-98943409D01*
X79869673Y-98467219D02*
X79869673Y-99276742D01*
X79869673Y-99276742D02*
X79917292Y-99371980D01*
X79917292Y-99371980D02*
X79964911Y-99419600D01*
X79964911Y-99419600D02*
X80060149Y-99467219D01*
X80060149Y-99467219D02*
X80250625Y-99467219D01*
X80250625Y-99467219D02*
X80345863Y-99419600D01*
X80345863Y-99419600D02*
X80393482Y-99371980D01*
X80393482Y-99371980D02*
X80441101Y-99276742D01*
X80441101Y-99276742D02*
X80441101Y-98467219D01*
X152012669Y-98141101D02*
X152012669Y-97569673D01*
X153012669Y-97855387D02*
X152012669Y-97855387D01*
X152012669Y-97331577D02*
X153012669Y-96664911D01*
X152012669Y-96664911D02*
X153012669Y-97331577D01*
X142794489Y-97664911D02*
X142794489Y-98236339D01*
X142794489Y-97950625D02*
X141794489Y-97950625D01*
X141794489Y-97950625D02*
X141937346Y-98045863D01*
X141937346Y-98045863D02*
X142032584Y-98141101D01*
X142032584Y-98141101D02*
X142080203Y-98236339D01*
X141794489Y-97331577D02*
X141794489Y-96712530D01*
X141794489Y-96712530D02*
X142175441Y-97045863D01*
X142175441Y-97045863D02*
X142175441Y-96903006D01*
X142175441Y-96903006D02*
X142223060Y-96807768D01*
X142223060Y-96807768D02*
X142270679Y-96760149D01*
X142270679Y-96760149D02*
X142365917Y-96712530D01*
X142365917Y-96712530D02*
X142604012Y-96712530D01*
X142604012Y-96712530D02*
X142699250Y-96760149D01*
X142699250Y-96760149D02*
X142746870Y-96807768D01*
X142746870Y-96807768D02*
X142794489Y-96903006D01*
X142794489Y-96903006D02*
X142794489Y-97188720D01*
X142794489Y-97188720D02*
X142746870Y-97283958D01*
X142746870Y-97283958D02*
X142699250Y-97331577D01*
X218069673Y-97367219D02*
X218069673Y-96367219D01*
X218069673Y-96367219D02*
X218450625Y-96367219D01*
X218450625Y-96367219D02*
X218545863Y-96414838D01*
X218545863Y-96414838D02*
X218593482Y-96462457D01*
X218593482Y-96462457D02*
X218641101Y-96557695D01*
X218641101Y-96557695D02*
X218641101Y-96700552D01*
X218641101Y-96700552D02*
X218593482Y-96795790D01*
X218593482Y-96795790D02*
X218545863Y-96843409D01*
X218545863Y-96843409D02*
X218450625Y-96891028D01*
X218450625Y-96891028D02*
X218069673Y-96891028D01*
X219641101Y-97271980D02*
X219593482Y-97319600D01*
X219593482Y-97319600D02*
X219450625Y-97367219D01*
X219450625Y-97367219D02*
X219355387Y-97367219D01*
X219355387Y-97367219D02*
X219212530Y-97319600D01*
X219212530Y-97319600D02*
X219117292Y-97224361D01*
X219117292Y-97224361D02*
X219069673Y-97129123D01*
X219069673Y-97129123D02*
X219022054Y-96938647D01*
X219022054Y-96938647D02*
X219022054Y-96795790D01*
X219022054Y-96795790D02*
X219069673Y-96605314D01*
X219069673Y-96605314D02*
X219117292Y-96510076D01*
X219117292Y-96510076D02*
X219212530Y-96414838D01*
X219212530Y-96414838D02*
X219355387Y-96367219D01*
X219355387Y-96367219D02*
X219450625Y-96367219D01*
X219450625Y-96367219D02*
X219593482Y-96414838D01*
X219593482Y-96414838D02*
X219641101Y-96462457D01*
X220403006Y-96843409D02*
X220069673Y-96843409D01*
X220069673Y-97367219D02*
X220069673Y-96367219D01*
X220069673Y-96367219D02*
X220545863Y-96367219D01*
X221069673Y-96795790D02*
X220974435Y-96748171D01*
X220974435Y-96748171D02*
X220926816Y-96700552D01*
X220926816Y-96700552D02*
X220879197Y-96605314D01*
X220879197Y-96605314D02*
X220879197Y-96557695D01*
X220879197Y-96557695D02*
X220926816Y-96462457D01*
X220926816Y-96462457D02*
X220974435Y-96414838D01*
X220974435Y-96414838D02*
X221069673Y-96367219D01*
X221069673Y-96367219D02*
X221260149Y-96367219D01*
X221260149Y-96367219D02*
X221355387Y-96414838D01*
X221355387Y-96414838D02*
X221403006Y-96462457D01*
X221403006Y-96462457D02*
X221450625Y-96557695D01*
X221450625Y-96557695D02*
X221450625Y-96605314D01*
X221450625Y-96605314D02*
X221403006Y-96700552D01*
X221403006Y-96700552D02*
X221355387Y-96748171D01*
X221355387Y-96748171D02*
X221260149Y-96795790D01*
X221260149Y-96795790D02*
X221069673Y-96795790D01*
X221069673Y-96795790D02*
X220974435Y-96843409D01*
X220974435Y-96843409D02*
X220926816Y-96891028D01*
X220926816Y-96891028D02*
X220879197Y-96986266D01*
X220879197Y-96986266D02*
X220879197Y-97176742D01*
X220879197Y-97176742D02*
X220926816Y-97271980D01*
X220926816Y-97271980D02*
X220974435Y-97319600D01*
X220974435Y-97319600D02*
X221069673Y-97367219D01*
X221069673Y-97367219D02*
X221260149Y-97367219D01*
X221260149Y-97367219D02*
X221355387Y-97319600D01*
X221355387Y-97319600D02*
X221403006Y-97271980D01*
X221403006Y-97271980D02*
X221450625Y-97176742D01*
X221450625Y-97176742D02*
X221450625Y-96986266D01*
X221450625Y-96986266D02*
X221403006Y-96891028D01*
X221403006Y-96891028D02*
X221355387Y-96843409D01*
X221355387Y-96843409D02*
X221260149Y-96795790D01*
X222355387Y-96367219D02*
X221879197Y-96367219D01*
X221879197Y-96367219D02*
X221831578Y-96843409D01*
X221831578Y-96843409D02*
X221879197Y-96795790D01*
X221879197Y-96795790D02*
X221974435Y-96748171D01*
X221974435Y-96748171D02*
X222212530Y-96748171D01*
X222212530Y-96748171D02*
X222307768Y-96795790D01*
X222307768Y-96795790D02*
X222355387Y-96843409D01*
X222355387Y-96843409D02*
X222403006Y-96938647D01*
X222403006Y-96938647D02*
X222403006Y-97176742D01*
X222403006Y-97176742D02*
X222355387Y-97271980D01*
X222355387Y-97271980D02*
X222307768Y-97319600D01*
X222307768Y-97319600D02*
X222212530Y-97367219D01*
X222212530Y-97367219D02*
X221974435Y-97367219D01*
X221974435Y-97367219D02*
X221879197Y-97319600D01*
X221879197Y-97319600D02*
X221831578Y-97271980D01*
X222783959Y-96462457D02*
X222831578Y-96414838D01*
X222831578Y-96414838D02*
X222926816Y-96367219D01*
X222926816Y-96367219D02*
X223164911Y-96367219D01*
X223164911Y-96367219D02*
X223260149Y-96414838D01*
X223260149Y-96414838D02*
X223307768Y-96462457D01*
X223307768Y-96462457D02*
X223355387Y-96557695D01*
X223355387Y-96557695D02*
X223355387Y-96652933D01*
X223355387Y-96652933D02*
X223307768Y-96795790D01*
X223307768Y-96795790D02*
X222736340Y-97367219D01*
X222736340Y-97367219D02*
X223355387Y-97367219D01*
X223688721Y-96367219D02*
X224307768Y-96367219D01*
X224307768Y-96367219D02*
X223974435Y-96748171D01*
X223974435Y-96748171D02*
X224117292Y-96748171D01*
X224117292Y-96748171D02*
X224212530Y-96795790D01*
X224212530Y-96795790D02*
X224260149Y-96843409D01*
X224260149Y-96843409D02*
X224307768Y-96938647D01*
X224307768Y-96938647D02*
X224307768Y-97176742D01*
X224307768Y-97176742D02*
X224260149Y-97271980D01*
X224260149Y-97271980D02*
X224212530Y-97319600D01*
X224212530Y-97319600D02*
X224117292Y-97367219D01*
X224117292Y-97367219D02*
X223831578Y-97367219D01*
X223831578Y-97367219D02*
X223736340Y-97319600D01*
X223736340Y-97319600D02*
X223688721Y-97271980D01*
X172974435Y-137617219D02*
X173212530Y-138617219D01*
X173212530Y-138617219D02*
X173403006Y-137902933D01*
X173403006Y-137902933D02*
X173593482Y-138617219D01*
X173593482Y-138617219D02*
X173831578Y-137617219D01*
X174164911Y-138569600D02*
X174307768Y-138617219D01*
X174307768Y-138617219D02*
X174545863Y-138617219D01*
X174545863Y-138617219D02*
X174641101Y-138569600D01*
X174641101Y-138569600D02*
X174688720Y-138521980D01*
X174688720Y-138521980D02*
X174736339Y-138426742D01*
X174736339Y-138426742D02*
X174736339Y-138331504D01*
X174736339Y-138331504D02*
X174688720Y-138236266D01*
X174688720Y-138236266D02*
X174641101Y-138188647D01*
X174641101Y-138188647D02*
X174545863Y-138141028D01*
X174545863Y-138141028D02*
X174355387Y-138093409D01*
X174355387Y-138093409D02*
X174260149Y-138045790D01*
X174260149Y-138045790D02*
X174212530Y-137998171D01*
X174212530Y-137998171D02*
X174164911Y-137902933D01*
X174164911Y-137902933D02*
X174164911Y-137807695D01*
X174164911Y-137807695D02*
X174212530Y-137712457D01*
X174212530Y-137712457D02*
X174260149Y-137664838D01*
X174260149Y-137664838D02*
X174355387Y-137617219D01*
X174355387Y-137617219D02*
X174593482Y-137617219D01*
X174593482Y-137617219D02*
X174736339Y-137664838D01*
X175117292Y-137712457D02*
X175164911Y-137664838D01*
X175164911Y-137664838D02*
X175260149Y-137617219D01*
X175260149Y-137617219D02*
X175498244Y-137617219D01*
X175498244Y-137617219D02*
X175593482Y-137664838D01*
X175593482Y-137664838D02*
X175641101Y-137712457D01*
X175641101Y-137712457D02*
X175688720Y-137807695D01*
X175688720Y-137807695D02*
X175688720Y-137902933D01*
X175688720Y-137902933D02*
X175641101Y-138045790D01*
X175641101Y-138045790D02*
X175069673Y-138617219D01*
X175069673Y-138617219D02*
X175688720Y-138617219D01*
X176260149Y-138045790D02*
X176164911Y-137998171D01*
X176164911Y-137998171D02*
X176117292Y-137950552D01*
X176117292Y-137950552D02*
X176069673Y-137855314D01*
X176069673Y-137855314D02*
X176069673Y-137807695D01*
X176069673Y-137807695D02*
X176117292Y-137712457D01*
X176117292Y-137712457D02*
X176164911Y-137664838D01*
X176164911Y-137664838D02*
X176260149Y-137617219D01*
X176260149Y-137617219D02*
X176450625Y-137617219D01*
X176450625Y-137617219D02*
X176545863Y-137664838D01*
X176545863Y-137664838D02*
X176593482Y-137712457D01*
X176593482Y-137712457D02*
X176641101Y-137807695D01*
X176641101Y-137807695D02*
X176641101Y-137855314D01*
X176641101Y-137855314D02*
X176593482Y-137950552D01*
X176593482Y-137950552D02*
X176545863Y-137998171D01*
X176545863Y-137998171D02*
X176450625Y-138045790D01*
X176450625Y-138045790D02*
X176260149Y-138045790D01*
X176260149Y-138045790D02*
X176164911Y-138093409D01*
X176164911Y-138093409D02*
X176117292Y-138141028D01*
X176117292Y-138141028D02*
X176069673Y-138236266D01*
X176069673Y-138236266D02*
X176069673Y-138426742D01*
X176069673Y-138426742D02*
X176117292Y-138521980D01*
X176117292Y-138521980D02*
X176164911Y-138569600D01*
X176164911Y-138569600D02*
X176260149Y-138617219D01*
X176260149Y-138617219D02*
X176450625Y-138617219D01*
X176450625Y-138617219D02*
X176545863Y-138569600D01*
X176545863Y-138569600D02*
X176593482Y-138521980D01*
X176593482Y-138521980D02*
X176641101Y-138426742D01*
X176641101Y-138426742D02*
X176641101Y-138236266D01*
X176641101Y-138236266D02*
X176593482Y-138141028D01*
X176593482Y-138141028D02*
X176545863Y-138093409D01*
X176545863Y-138093409D02*
X176450625Y-138045790D01*
X177593482Y-138617219D02*
X177022054Y-138617219D01*
X177307768Y-138617219D02*
X177307768Y-137617219D01*
X177307768Y-137617219D02*
X177212530Y-137760076D01*
X177212530Y-137760076D02*
X177117292Y-137855314D01*
X177117292Y-137855314D02*
X177022054Y-137902933D01*
X177974435Y-137712457D02*
X178022054Y-137664838D01*
X178022054Y-137664838D02*
X178117292Y-137617219D01*
X178117292Y-137617219D02*
X178355387Y-137617219D01*
X178355387Y-137617219D02*
X178450625Y-137664838D01*
X178450625Y-137664838D02*
X178498244Y-137712457D01*
X178498244Y-137712457D02*
X178545863Y-137807695D01*
X178545863Y-137807695D02*
X178545863Y-137902933D01*
X178545863Y-137902933D02*
X178498244Y-138045790D01*
X178498244Y-138045790D02*
X177926816Y-138617219D01*
X177926816Y-138617219D02*
X178545863Y-138617219D01*
X180307768Y-138521980D02*
X180260149Y-138569600D01*
X180260149Y-138569600D02*
X180117292Y-138617219D01*
X180117292Y-138617219D02*
X180022054Y-138617219D01*
X180022054Y-138617219D02*
X179879197Y-138569600D01*
X179879197Y-138569600D02*
X179783959Y-138474361D01*
X179783959Y-138474361D02*
X179736340Y-138379123D01*
X179736340Y-138379123D02*
X179688721Y-138188647D01*
X179688721Y-138188647D02*
X179688721Y-138045790D01*
X179688721Y-138045790D02*
X179736340Y-137855314D01*
X179736340Y-137855314D02*
X179783959Y-137760076D01*
X179783959Y-137760076D02*
X179879197Y-137664838D01*
X179879197Y-137664838D02*
X180022054Y-137617219D01*
X180022054Y-137617219D02*
X180117292Y-137617219D01*
X180117292Y-137617219D02*
X180260149Y-137664838D01*
X180260149Y-137664838D02*
X180307768Y-137712457D01*
X180593483Y-137617219D02*
X181164911Y-137617219D01*
X180879197Y-138617219D02*
X180879197Y-137617219D01*
X182069673Y-138617219D02*
X181736340Y-138141028D01*
X181498245Y-138617219D02*
X181498245Y-137617219D01*
X181498245Y-137617219D02*
X181879197Y-137617219D01*
X181879197Y-137617219D02*
X181974435Y-137664838D01*
X181974435Y-137664838D02*
X182022054Y-137712457D01*
X182022054Y-137712457D02*
X182069673Y-137807695D01*
X182069673Y-137807695D02*
X182069673Y-137950552D01*
X182069673Y-137950552D02*
X182022054Y-138045790D01*
X182022054Y-138045790D02*
X181974435Y-138093409D01*
X181974435Y-138093409D02*
X181879197Y-138141028D01*
X181879197Y-138141028D02*
X181498245Y-138141028D01*
X182974435Y-138617219D02*
X182498245Y-138617219D01*
X182498245Y-138617219D02*
X182498245Y-137617219D01*
X136142742Y-85696993D02*
X136142742Y-84954136D01*
X136142742Y-84954136D02*
X136599885Y-85354136D01*
X136599885Y-85354136D02*
X136599885Y-85182707D01*
X136599885Y-85182707D02*
X136657028Y-85068422D01*
X136657028Y-85068422D02*
X136714171Y-85011279D01*
X136714171Y-85011279D02*
X136828457Y-84954136D01*
X136828457Y-84954136D02*
X137114171Y-84954136D01*
X137114171Y-84954136D02*
X137228457Y-85011279D01*
X137228457Y-85011279D02*
X137285600Y-85068422D01*
X137285600Y-85068422D02*
X137342742Y-85182707D01*
X137342742Y-85182707D02*
X137342742Y-85525564D01*
X137342742Y-85525564D02*
X137285600Y-85639850D01*
X137285600Y-85639850D02*
X137228457Y-85696993D01*
X136142742Y-84611279D02*
X137342742Y-84211279D01*
X137342742Y-84211279D02*
X136142742Y-83811279D01*
X136142742Y-83525565D02*
X136142742Y-82782708D01*
X136142742Y-82782708D02*
X136599885Y-83182708D01*
X136599885Y-83182708D02*
X136599885Y-83011279D01*
X136599885Y-83011279D02*
X136657028Y-82896994D01*
X136657028Y-82896994D02*
X136714171Y-82839851D01*
X136714171Y-82839851D02*
X136828457Y-82782708D01*
X136828457Y-82782708D02*
X137114171Y-82782708D01*
X137114171Y-82782708D02*
X137228457Y-82839851D01*
X137228457Y-82839851D02*
X137285600Y-82896994D01*
X137285600Y-82896994D02*
X137342742Y-83011279D01*
X137342742Y-83011279D02*
X137342742Y-83354136D01*
X137342742Y-83354136D02*
X137285600Y-83468422D01*
X137285600Y-83468422D02*
X137228457Y-83525565D01*
X145349034Y-98474434D02*
X144349034Y-98474434D01*
X144349034Y-98474434D02*
X145063319Y-98141101D01*
X145063319Y-98141101D02*
X144349034Y-97807768D01*
X144349034Y-97807768D02*
X145349034Y-97807768D01*
X144349034Y-97141101D02*
X144349034Y-96950625D01*
X144349034Y-96950625D02*
X144396653Y-96855387D01*
X144396653Y-96855387D02*
X144491891Y-96760149D01*
X144491891Y-96760149D02*
X144682367Y-96712530D01*
X144682367Y-96712530D02*
X145015700Y-96712530D01*
X145015700Y-96712530D02*
X145206176Y-96760149D01*
X145206176Y-96760149D02*
X145301415Y-96855387D01*
X145301415Y-96855387D02*
X145349034Y-96950625D01*
X145349034Y-96950625D02*
X145349034Y-97141101D01*
X145349034Y-97141101D02*
X145301415Y-97236339D01*
X145301415Y-97236339D02*
X145206176Y-97331577D01*
X145206176Y-97331577D02*
X145015700Y-97379196D01*
X145015700Y-97379196D02*
X144682367Y-97379196D01*
X144682367Y-97379196D02*
X144491891Y-97331577D01*
X144491891Y-97331577D02*
X144396653Y-97236339D01*
X144396653Y-97236339D02*
X144349034Y-97141101D01*
X134464187Y-97760149D02*
X135130854Y-97760149D01*
X134083235Y-97998244D02*
X134797520Y-98236339D01*
X134797520Y-98236339D02*
X134797520Y-97617292D01*
X134130854Y-97331577D02*
X134130854Y-96664911D01*
X134130854Y-96664911D02*
X135130854Y-97093482D01*
X187953006Y-138093409D02*
X188095863Y-138141028D01*
X188095863Y-138141028D02*
X188143482Y-138188647D01*
X188143482Y-138188647D02*
X188191101Y-138283885D01*
X188191101Y-138283885D02*
X188191101Y-138426742D01*
X188191101Y-138426742D02*
X188143482Y-138521980D01*
X188143482Y-138521980D02*
X188095863Y-138569600D01*
X188095863Y-138569600D02*
X188000625Y-138617219D01*
X188000625Y-138617219D02*
X187619673Y-138617219D01*
X187619673Y-138617219D02*
X187619673Y-137617219D01*
X187619673Y-137617219D02*
X187953006Y-137617219D01*
X187953006Y-137617219D02*
X188048244Y-137664838D01*
X188048244Y-137664838D02*
X188095863Y-137712457D01*
X188095863Y-137712457D02*
X188143482Y-137807695D01*
X188143482Y-137807695D02*
X188143482Y-137902933D01*
X188143482Y-137902933D02*
X188095863Y-137998171D01*
X188095863Y-137998171D02*
X188048244Y-138045790D01*
X188048244Y-138045790D02*
X187953006Y-138093409D01*
X187953006Y-138093409D02*
X187619673Y-138093409D01*
X188572054Y-138331504D02*
X189048244Y-138331504D01*
X188476816Y-138617219D02*
X188810149Y-137617219D01*
X188810149Y-137617219D02*
X189143482Y-138617219D01*
X189333959Y-137617219D02*
X189905387Y-137617219D01*
X189619673Y-138617219D02*
X189619673Y-137617219D01*
X190095864Y-137617219D02*
X190667292Y-137617219D01*
X190381578Y-138617219D02*
X190381578Y-137617219D01*
X191000626Y-138236266D02*
X191762531Y-138236266D01*
X75407635Y-121523819D02*
X76026682Y-121523819D01*
X76026682Y-121523819D02*
X75693349Y-121904771D01*
X75693349Y-121904771D02*
X75836206Y-121904771D01*
X75836206Y-121904771D02*
X75931444Y-121952390D01*
X75931444Y-121952390D02*
X75979063Y-122000009D01*
X75979063Y-122000009D02*
X76026682Y-122095247D01*
X76026682Y-122095247D02*
X76026682Y-122333342D01*
X76026682Y-122333342D02*
X75979063Y-122428580D01*
X75979063Y-122428580D02*
X75931444Y-122476200D01*
X75931444Y-122476200D02*
X75836206Y-122523819D01*
X75836206Y-122523819D02*
X75550492Y-122523819D01*
X75550492Y-122523819D02*
X75455254Y-122476200D01*
X75455254Y-122476200D02*
X75407635Y-122428580D01*
X76312397Y-121523819D02*
X76645730Y-122523819D01*
X76645730Y-122523819D02*
X76979063Y-121523819D01*
X77217159Y-121523819D02*
X77883825Y-121523819D01*
X77883825Y-121523819D02*
X77455254Y-122523819D01*
X150458124Y-97903005D02*
X149458124Y-97903005D01*
X149458124Y-97903005D02*
X150172409Y-97569672D01*
X150172409Y-97569672D02*
X149458124Y-97236339D01*
X149458124Y-97236339D02*
X150458124Y-97236339D01*
X150458124Y-96760148D02*
X149458124Y-96760148D01*
X205269673Y-115117219D02*
X205269673Y-114117219D01*
X205936339Y-114117219D02*
X206126815Y-114117219D01*
X206126815Y-114117219D02*
X206222053Y-114164838D01*
X206222053Y-114164838D02*
X206317291Y-114260076D01*
X206317291Y-114260076D02*
X206364910Y-114450552D01*
X206364910Y-114450552D02*
X206364910Y-114783885D01*
X206364910Y-114783885D02*
X206317291Y-114974361D01*
X206317291Y-114974361D02*
X206222053Y-115069600D01*
X206222053Y-115069600D02*
X206126815Y-115117219D01*
X206126815Y-115117219D02*
X205936339Y-115117219D01*
X205936339Y-115117219D02*
X205841101Y-115069600D01*
X205841101Y-115069600D02*
X205745863Y-114974361D01*
X205745863Y-114974361D02*
X205698244Y-114783885D01*
X205698244Y-114783885D02*
X205698244Y-114450552D01*
X205698244Y-114450552D02*
X205745863Y-114260076D01*
X205745863Y-114260076D02*
X205841101Y-114164838D01*
X205841101Y-114164838D02*
X205936339Y-114117219D01*
X207317291Y-115117219D02*
X206745863Y-115117219D01*
X207031577Y-115117219D02*
X207031577Y-114117219D01*
X207031577Y-114117219D02*
X206936339Y-114260076D01*
X206936339Y-114260076D02*
X206841101Y-114355314D01*
X206841101Y-114355314D02*
X206745863Y-114402933D01*
X208174434Y-114117219D02*
X207983958Y-114117219D01*
X207983958Y-114117219D02*
X207888720Y-114164838D01*
X207888720Y-114164838D02*
X207841101Y-114212457D01*
X207841101Y-114212457D02*
X207745863Y-114355314D01*
X207745863Y-114355314D02*
X207698244Y-114545790D01*
X207698244Y-114545790D02*
X207698244Y-114926742D01*
X207698244Y-114926742D02*
X207745863Y-115021980D01*
X207745863Y-115021980D02*
X207793482Y-115069600D01*
X207793482Y-115069600D02*
X207888720Y-115117219D01*
X207888720Y-115117219D02*
X208079196Y-115117219D01*
X208079196Y-115117219D02*
X208174434Y-115069600D01*
X208174434Y-115069600D02*
X208222053Y-115021980D01*
X208222053Y-115021980D02*
X208269672Y-114926742D01*
X208269672Y-114926742D02*
X208269672Y-114688647D01*
X208269672Y-114688647D02*
X208222053Y-114593409D01*
X208222053Y-114593409D02*
X208174434Y-114545790D01*
X208174434Y-114545790D02*
X208079196Y-114498171D01*
X208079196Y-114498171D02*
X207888720Y-114498171D01*
X207888720Y-114498171D02*
X207793482Y-114545790D01*
X207793482Y-114545790D02*
X207745863Y-114593409D01*
X207745863Y-114593409D02*
X207698244Y-114688647D01*
X75740968Y-116406771D02*
X75645730Y-116359152D01*
X75645730Y-116359152D02*
X75502873Y-116359152D01*
X75502873Y-116359152D02*
X75360016Y-116406771D01*
X75360016Y-116406771D02*
X75264778Y-116502009D01*
X75264778Y-116502009D02*
X75217159Y-116597247D01*
X75217159Y-116597247D02*
X75169540Y-116787723D01*
X75169540Y-116787723D02*
X75169540Y-116930580D01*
X75169540Y-116930580D02*
X75217159Y-117121056D01*
X75217159Y-117121056D02*
X75264778Y-117216294D01*
X75264778Y-117216294D02*
X75360016Y-117311533D01*
X75360016Y-117311533D02*
X75502873Y-117359152D01*
X75502873Y-117359152D02*
X75598111Y-117359152D01*
X75598111Y-117359152D02*
X75740968Y-117311533D01*
X75740968Y-117311533D02*
X75788587Y-117263913D01*
X75788587Y-117263913D02*
X75788587Y-116930580D01*
X75788587Y-116930580D02*
X75598111Y-116930580D01*
X76217159Y-117359152D02*
X76217159Y-116359152D01*
X76217159Y-116359152D02*
X76788587Y-117359152D01*
X76788587Y-117359152D02*
X76788587Y-116359152D01*
X77264778Y-117359152D02*
X77264778Y-116359152D01*
X77264778Y-116359152D02*
X77502873Y-116359152D01*
X77502873Y-116359152D02*
X77645730Y-116406771D01*
X77645730Y-116406771D02*
X77740968Y-116502009D01*
X77740968Y-116502009D02*
X77788587Y-116597247D01*
X77788587Y-116597247D02*
X77836206Y-116787723D01*
X77836206Y-116787723D02*
X77836206Y-116930580D01*
X77836206Y-116930580D02*
X77788587Y-117121056D01*
X77788587Y-117121056D02*
X77740968Y-117216294D01*
X77740968Y-117216294D02*
X77645730Y-117311533D01*
X77645730Y-117311533D02*
X77502873Y-117359152D01*
X77502873Y-117359152D02*
X77264778Y-117359152D01*
X93553006Y-88543409D02*
X93695863Y-88591028D01*
X93695863Y-88591028D02*
X93743482Y-88638647D01*
X93743482Y-88638647D02*
X93791101Y-88733885D01*
X93791101Y-88733885D02*
X93791101Y-88876742D01*
X93791101Y-88876742D02*
X93743482Y-88971980D01*
X93743482Y-88971980D02*
X93695863Y-89019600D01*
X93695863Y-89019600D02*
X93600625Y-89067219D01*
X93600625Y-89067219D02*
X93219673Y-89067219D01*
X93219673Y-89067219D02*
X93219673Y-88067219D01*
X93219673Y-88067219D02*
X93553006Y-88067219D01*
X93553006Y-88067219D02*
X93648244Y-88114838D01*
X93648244Y-88114838D02*
X93695863Y-88162457D01*
X93695863Y-88162457D02*
X93743482Y-88257695D01*
X93743482Y-88257695D02*
X93743482Y-88352933D01*
X93743482Y-88352933D02*
X93695863Y-88448171D01*
X93695863Y-88448171D02*
X93648244Y-88495790D01*
X93648244Y-88495790D02*
X93553006Y-88543409D01*
X93553006Y-88543409D02*
X93219673Y-88543409D01*
X94648244Y-88400552D02*
X94648244Y-89067219D01*
X94219673Y-88400552D02*
X94219673Y-88924361D01*
X94219673Y-88924361D02*
X94267292Y-89019600D01*
X94267292Y-89019600D02*
X94362530Y-89067219D01*
X94362530Y-89067219D02*
X94505387Y-89067219D01*
X94505387Y-89067219D02*
X94600625Y-89019600D01*
X94600625Y-89019600D02*
X94648244Y-88971980D01*
X95029197Y-88400552D02*
X95553006Y-88400552D01*
X95553006Y-88400552D02*
X95029197Y-89067219D01*
X95029197Y-89067219D02*
X95553006Y-89067219D01*
X95838721Y-88400552D02*
X96362530Y-88400552D01*
X96362530Y-88400552D02*
X95838721Y-89067219D01*
X95838721Y-89067219D02*
X96362530Y-89067219D01*
X97124435Y-89019600D02*
X97029197Y-89067219D01*
X97029197Y-89067219D02*
X96838721Y-89067219D01*
X96838721Y-89067219D02*
X96743483Y-89019600D01*
X96743483Y-89019600D02*
X96695864Y-88924361D01*
X96695864Y-88924361D02*
X96695864Y-88543409D01*
X96695864Y-88543409D02*
X96743483Y-88448171D01*
X96743483Y-88448171D02*
X96838721Y-88400552D01*
X96838721Y-88400552D02*
X97029197Y-88400552D01*
X97029197Y-88400552D02*
X97124435Y-88448171D01*
X97124435Y-88448171D02*
X97172054Y-88543409D01*
X97172054Y-88543409D02*
X97172054Y-88638647D01*
X97172054Y-88638647D02*
X96695864Y-88733885D01*
X97600626Y-89067219D02*
X97600626Y-88400552D01*
X97600626Y-88591028D02*
X97648245Y-88495790D01*
X97648245Y-88495790D02*
X97695864Y-88448171D01*
X97695864Y-88448171D02*
X97791102Y-88400552D01*
X97791102Y-88400552D02*
X97886340Y-88400552D01*
X98838722Y-88067219D02*
X99172055Y-89067219D01*
X99172055Y-89067219D02*
X99505388Y-88067219D01*
X99981579Y-89067219D02*
X99886341Y-89019600D01*
X99886341Y-89019600D02*
X99838722Y-88971980D01*
X99838722Y-88971980D02*
X99791103Y-88876742D01*
X99791103Y-88876742D02*
X99791103Y-88591028D01*
X99791103Y-88591028D02*
X99838722Y-88495790D01*
X99838722Y-88495790D02*
X99886341Y-88448171D01*
X99886341Y-88448171D02*
X99981579Y-88400552D01*
X99981579Y-88400552D02*
X100124436Y-88400552D01*
X100124436Y-88400552D02*
X100219674Y-88448171D01*
X100219674Y-88448171D02*
X100267293Y-88495790D01*
X100267293Y-88495790D02*
X100314912Y-88591028D01*
X100314912Y-88591028D02*
X100314912Y-88876742D01*
X100314912Y-88876742D02*
X100267293Y-88971980D01*
X100267293Y-88971980D02*
X100219674Y-89019600D01*
X100219674Y-89019600D02*
X100124436Y-89067219D01*
X100124436Y-89067219D02*
X99981579Y-89067219D01*
X100886341Y-89067219D02*
X100791103Y-89019600D01*
X100791103Y-89019600D02*
X100743484Y-88924361D01*
X100743484Y-88924361D02*
X100743484Y-88067219D01*
X195203006Y-138093409D02*
X195345863Y-138141028D01*
X195345863Y-138141028D02*
X195393482Y-138188647D01*
X195393482Y-138188647D02*
X195441101Y-138283885D01*
X195441101Y-138283885D02*
X195441101Y-138426742D01*
X195441101Y-138426742D02*
X195393482Y-138521980D01*
X195393482Y-138521980D02*
X195345863Y-138569600D01*
X195345863Y-138569600D02*
X195250625Y-138617219D01*
X195250625Y-138617219D02*
X194869673Y-138617219D01*
X194869673Y-138617219D02*
X194869673Y-137617219D01*
X194869673Y-137617219D02*
X195203006Y-137617219D01*
X195203006Y-137617219D02*
X195298244Y-137664838D01*
X195298244Y-137664838D02*
X195345863Y-137712457D01*
X195345863Y-137712457D02*
X195393482Y-137807695D01*
X195393482Y-137807695D02*
X195393482Y-137902933D01*
X195393482Y-137902933D02*
X195345863Y-137998171D01*
X195345863Y-137998171D02*
X195298244Y-138045790D01*
X195298244Y-138045790D02*
X195203006Y-138093409D01*
X195203006Y-138093409D02*
X194869673Y-138093409D01*
X195822054Y-138331504D02*
X196298244Y-138331504D01*
X195726816Y-138617219D02*
X196060149Y-137617219D01*
X196060149Y-137617219D02*
X196393482Y-138617219D01*
X196583959Y-137617219D02*
X197155387Y-137617219D01*
X196869673Y-138617219D02*
X196869673Y-137617219D01*
X197345864Y-137617219D02*
X197917292Y-137617219D01*
X197631578Y-138617219D02*
X197631578Y-137617219D01*
X198250626Y-138236266D02*
X199012531Y-138236266D01*
X198631578Y-138617219D02*
X198631578Y-137855314D01*
X205269673Y-116967219D02*
X205269673Y-115967219D01*
X205936339Y-115967219D02*
X206126815Y-115967219D01*
X206126815Y-115967219D02*
X206222053Y-116014838D01*
X206222053Y-116014838D02*
X206317291Y-116110076D01*
X206317291Y-116110076D02*
X206364910Y-116300552D01*
X206364910Y-116300552D02*
X206364910Y-116633885D01*
X206364910Y-116633885D02*
X206317291Y-116824361D01*
X206317291Y-116824361D02*
X206222053Y-116919600D01*
X206222053Y-116919600D02*
X206126815Y-116967219D01*
X206126815Y-116967219D02*
X205936339Y-116967219D01*
X205936339Y-116967219D02*
X205841101Y-116919600D01*
X205841101Y-116919600D02*
X205745863Y-116824361D01*
X205745863Y-116824361D02*
X205698244Y-116633885D01*
X205698244Y-116633885D02*
X205698244Y-116300552D01*
X205698244Y-116300552D02*
X205745863Y-116110076D01*
X205745863Y-116110076D02*
X205841101Y-116014838D01*
X205841101Y-116014838D02*
X205936339Y-115967219D01*
X207317291Y-116967219D02*
X206745863Y-116967219D01*
X207031577Y-116967219D02*
X207031577Y-115967219D01*
X207031577Y-115967219D02*
X206936339Y-116110076D01*
X206936339Y-116110076D02*
X206841101Y-116205314D01*
X206841101Y-116205314D02*
X206745863Y-116252933D01*
X208222053Y-115967219D02*
X207745863Y-115967219D01*
X207745863Y-115967219D02*
X207698244Y-116443409D01*
X207698244Y-116443409D02*
X207745863Y-116395790D01*
X207745863Y-116395790D02*
X207841101Y-116348171D01*
X207841101Y-116348171D02*
X208079196Y-116348171D01*
X208079196Y-116348171D02*
X208174434Y-116395790D01*
X208174434Y-116395790D02*
X208222053Y-116443409D01*
X208222053Y-116443409D02*
X208269672Y-116538647D01*
X208269672Y-116538647D02*
X208269672Y-116776742D01*
X208269672Y-116776742D02*
X208222053Y-116871980D01*
X208222053Y-116871980D02*
X208174434Y-116919600D01*
X208174434Y-116919600D02*
X208079196Y-116967219D01*
X208079196Y-116967219D02*
X207841101Y-116967219D01*
X207841101Y-116967219D02*
X207745863Y-116919600D01*
X207745863Y-116919600D02*
X207698244Y-116871980D01*
D12*
X82511318Y-97831952D02*
X82511318Y-98436714D01*
X82511318Y-98436714D02*
X81241318Y-98436714D01*
X82450842Y-97469095D02*
X82511318Y-97287666D01*
X82511318Y-97287666D02*
X82511318Y-96985285D01*
X82511318Y-96985285D02*
X82450842Y-96864333D01*
X82450842Y-96864333D02*
X82390365Y-96803857D01*
X82390365Y-96803857D02*
X82269413Y-96743380D01*
X82269413Y-96743380D02*
X82148461Y-96743380D01*
X82148461Y-96743380D02*
X82027508Y-96803857D01*
X82027508Y-96803857D02*
X81967032Y-96864333D01*
X81967032Y-96864333D02*
X81906556Y-96985285D01*
X81906556Y-96985285D02*
X81846080Y-97227190D01*
X81846080Y-97227190D02*
X81785603Y-97348142D01*
X81785603Y-97348142D02*
X81725127Y-97408619D01*
X81725127Y-97408619D02*
X81604175Y-97469095D01*
X81604175Y-97469095D02*
X81483222Y-97469095D01*
X81483222Y-97469095D02*
X81362270Y-97408619D01*
X81362270Y-97408619D02*
X81301794Y-97348142D01*
X81301794Y-97348142D02*
X81241318Y-97227190D01*
X81241318Y-97227190D02*
X81241318Y-96924809D01*
X81241318Y-96924809D02*
X81301794Y-96743380D01*
X81664651Y-95654809D02*
X82511318Y-95654809D01*
X81180842Y-95957190D02*
X82087984Y-96259571D01*
X82087984Y-96259571D02*
X82087984Y-95473380D01*
X81241318Y-94747666D02*
X81241318Y-94626713D01*
X81241318Y-94626713D02*
X81301794Y-94505761D01*
X81301794Y-94505761D02*
X81362270Y-94445285D01*
X81362270Y-94445285D02*
X81483222Y-94384809D01*
X81483222Y-94384809D02*
X81725127Y-94324332D01*
X81725127Y-94324332D02*
X82027508Y-94324332D01*
X82027508Y-94324332D02*
X82269413Y-94384809D01*
X82269413Y-94384809D02*
X82390365Y-94445285D01*
X82390365Y-94445285D02*
X82450842Y-94505761D01*
X82450842Y-94505761D02*
X82511318Y-94626713D01*
X82511318Y-94626713D02*
X82511318Y-94747666D01*
X82511318Y-94747666D02*
X82450842Y-94868618D01*
X82450842Y-94868618D02*
X82390365Y-94929094D01*
X82390365Y-94929094D02*
X82269413Y-94989571D01*
X82269413Y-94989571D02*
X82027508Y-95050047D01*
X82027508Y-95050047D02*
X81725127Y-95050047D01*
X81725127Y-95050047D02*
X81483222Y-94989571D01*
X81483222Y-94989571D02*
X81362270Y-94929094D01*
X81362270Y-94929094D02*
X81301794Y-94868618D01*
X81301794Y-94868618D02*
X81241318Y-94747666D01*
X82511318Y-93114808D02*
X82511318Y-93840523D01*
X82511318Y-93477666D02*
X81241318Y-93477666D01*
X81241318Y-93477666D02*
X81422746Y-93598618D01*
X81422746Y-93598618D02*
X81543699Y-93719570D01*
X81543699Y-93719570D02*
X81604175Y-93840523D01*
D11*
X172619673Y-132867219D02*
X172619673Y-131867219D01*
X172619673Y-131867219D02*
X173000625Y-131867219D01*
X173000625Y-131867219D02*
X173095863Y-131914838D01*
X173095863Y-131914838D02*
X173143482Y-131962457D01*
X173143482Y-131962457D02*
X173191101Y-132057695D01*
X173191101Y-132057695D02*
X173191101Y-132200552D01*
X173191101Y-132200552D02*
X173143482Y-132295790D01*
X173143482Y-132295790D02*
X173095863Y-132343409D01*
X173095863Y-132343409D02*
X173000625Y-132391028D01*
X173000625Y-132391028D02*
X172619673Y-132391028D01*
X174191101Y-132771980D02*
X174143482Y-132819600D01*
X174143482Y-132819600D02*
X174000625Y-132867219D01*
X174000625Y-132867219D02*
X173905387Y-132867219D01*
X173905387Y-132867219D02*
X173762530Y-132819600D01*
X173762530Y-132819600D02*
X173667292Y-132724361D01*
X173667292Y-132724361D02*
X173619673Y-132629123D01*
X173619673Y-132629123D02*
X173572054Y-132438647D01*
X173572054Y-132438647D02*
X173572054Y-132295790D01*
X173572054Y-132295790D02*
X173619673Y-132105314D01*
X173619673Y-132105314D02*
X173667292Y-132010076D01*
X173667292Y-132010076D02*
X173762530Y-131914838D01*
X173762530Y-131914838D02*
X173905387Y-131867219D01*
X173905387Y-131867219D02*
X174000625Y-131867219D01*
X174000625Y-131867219D02*
X174143482Y-131914838D01*
X174143482Y-131914838D02*
X174191101Y-131962457D01*
X174953006Y-132343409D02*
X175095863Y-132391028D01*
X175095863Y-132391028D02*
X175143482Y-132438647D01*
X175143482Y-132438647D02*
X175191101Y-132533885D01*
X175191101Y-132533885D02*
X175191101Y-132676742D01*
X175191101Y-132676742D02*
X175143482Y-132771980D01*
X175143482Y-132771980D02*
X175095863Y-132819600D01*
X175095863Y-132819600D02*
X175000625Y-132867219D01*
X175000625Y-132867219D02*
X174619673Y-132867219D01*
X174619673Y-132867219D02*
X174619673Y-131867219D01*
X174619673Y-131867219D02*
X174953006Y-131867219D01*
X174953006Y-131867219D02*
X175048244Y-131914838D01*
X175048244Y-131914838D02*
X175095863Y-131962457D01*
X175095863Y-131962457D02*
X175143482Y-132057695D01*
X175143482Y-132057695D02*
X175143482Y-132152933D01*
X175143482Y-132152933D02*
X175095863Y-132248171D01*
X175095863Y-132248171D02*
X175048244Y-132295790D01*
X175048244Y-132295790D02*
X174953006Y-132343409D01*
X174953006Y-132343409D02*
X174619673Y-132343409D01*
X172572054Y-130069600D02*
X172714911Y-130117219D01*
X172714911Y-130117219D02*
X172953006Y-130117219D01*
X172953006Y-130117219D02*
X173048244Y-130069600D01*
X173048244Y-130069600D02*
X173095863Y-130021980D01*
X173095863Y-130021980D02*
X173143482Y-129926742D01*
X173143482Y-129926742D02*
X173143482Y-129831504D01*
X173143482Y-129831504D02*
X173095863Y-129736266D01*
X173095863Y-129736266D02*
X173048244Y-129688647D01*
X173048244Y-129688647D02*
X172953006Y-129641028D01*
X172953006Y-129641028D02*
X172762530Y-129593409D01*
X172762530Y-129593409D02*
X172667292Y-129545790D01*
X172667292Y-129545790D02*
X172619673Y-129498171D01*
X172619673Y-129498171D02*
X172572054Y-129402933D01*
X172572054Y-129402933D02*
X172572054Y-129307695D01*
X172572054Y-129307695D02*
X172619673Y-129212457D01*
X172619673Y-129212457D02*
X172667292Y-129164838D01*
X172667292Y-129164838D02*
X172762530Y-129117219D01*
X172762530Y-129117219D02*
X173000625Y-129117219D01*
X173000625Y-129117219D02*
X173143482Y-129164838D01*
X174000625Y-130069600D02*
X173905387Y-130117219D01*
X173905387Y-130117219D02*
X173714911Y-130117219D01*
X173714911Y-130117219D02*
X173619673Y-130069600D01*
X173619673Y-130069600D02*
X173572054Y-130021980D01*
X173572054Y-130021980D02*
X173524435Y-129926742D01*
X173524435Y-129926742D02*
X173524435Y-129641028D01*
X173524435Y-129641028D02*
X173572054Y-129545790D01*
X173572054Y-129545790D02*
X173619673Y-129498171D01*
X173619673Y-129498171D02*
X173714911Y-129450552D01*
X173714911Y-129450552D02*
X173905387Y-129450552D01*
X173905387Y-129450552D02*
X174000625Y-129498171D01*
X174429197Y-130117219D02*
X174429197Y-129450552D01*
X174429197Y-129641028D02*
X174476816Y-129545790D01*
X174476816Y-129545790D02*
X174524435Y-129498171D01*
X174524435Y-129498171D02*
X174619673Y-129450552D01*
X174619673Y-129450552D02*
X174714911Y-129450552D01*
X175429197Y-130069600D02*
X175333959Y-130117219D01*
X175333959Y-130117219D02*
X175143483Y-130117219D01*
X175143483Y-130117219D02*
X175048245Y-130069600D01*
X175048245Y-130069600D02*
X175000626Y-129974361D01*
X175000626Y-129974361D02*
X175000626Y-129593409D01*
X175000626Y-129593409D02*
X175048245Y-129498171D01*
X175048245Y-129498171D02*
X175143483Y-129450552D01*
X175143483Y-129450552D02*
X175333959Y-129450552D01*
X175333959Y-129450552D02*
X175429197Y-129498171D01*
X175429197Y-129498171D02*
X175476816Y-129593409D01*
X175476816Y-129593409D02*
X175476816Y-129688647D01*
X175476816Y-129688647D02*
X175000626Y-129783885D01*
X176286340Y-130069600D02*
X176191102Y-130117219D01*
X176191102Y-130117219D02*
X176000626Y-130117219D01*
X176000626Y-130117219D02*
X175905388Y-130069600D01*
X175905388Y-130069600D02*
X175857769Y-129974361D01*
X175857769Y-129974361D02*
X175857769Y-129593409D01*
X175857769Y-129593409D02*
X175905388Y-129498171D01*
X175905388Y-129498171D02*
X176000626Y-129450552D01*
X176000626Y-129450552D02*
X176191102Y-129450552D01*
X176191102Y-129450552D02*
X176286340Y-129498171D01*
X176286340Y-129498171D02*
X176333959Y-129593409D01*
X176333959Y-129593409D02*
X176333959Y-129688647D01*
X176333959Y-129688647D02*
X175857769Y-129783885D01*
X176762531Y-129450552D02*
X176762531Y-130117219D01*
X176762531Y-129545790D02*
X176810150Y-129498171D01*
X176810150Y-129498171D02*
X176905388Y-129450552D01*
X176905388Y-129450552D02*
X177048245Y-129450552D01*
X177048245Y-129450552D02*
X177143483Y-129498171D01*
X177143483Y-129498171D02*
X177191102Y-129593409D01*
X177191102Y-129593409D02*
X177191102Y-130117219D01*
X219745863Y-115991695D02*
X220279197Y-115991695D01*
X220279197Y-115991695D02*
X219745863Y-116791695D01*
X219745863Y-116791695D02*
X220279197Y-116791695D01*
X223003006Y-115742742D02*
X223803006Y-116942742D01*
X223803006Y-115742742D02*
X223003006Y-116942742D01*
X218845863Y-114271314D02*
X218845863Y-114842742D01*
X218445863Y-113642742D02*
X218845863Y-114271314D01*
X218845863Y-114271314D02*
X219245863Y-113642742D01*
D12*
%TO.C,LS401*%
X75189090Y-95828000D02*
G75*
G03*
X75189090Y-95828000I-50090J0D01*
G01*
X88100000Y-95600000D02*
G75*
G03*
X88100000Y-95600000I-6100000J0D01*
G01*
D13*
%TO.C,C301*%
X216240580Y-96090000D02*
X215959420Y-96090000D01*
X216240580Y-97110000D02*
X215959420Y-97110000D01*
%TO.C,R305*%
X216553641Y-98280000D02*
X216246359Y-98280000D01*
X216553641Y-97520000D02*
X216246359Y-97520000D01*
D14*
%TO.C,J301*%
X183130000Y-95670000D02*
X183130000Y-97000000D01*
X181800000Y-95670000D02*
X183130000Y-95670000D01*
X180530000Y-95670000D02*
X172850000Y-95670000D01*
X180530000Y-95670000D02*
X180530000Y-98330000D01*
X180530000Y-98330000D02*
X172850000Y-98330000D01*
X172820000Y-98330000D02*
X172820000Y-95670000D01*
D11*
X184000000Y-100500000D02*
X172000000Y-100500000D01*
X184000000Y-130500000D02*
X172000000Y-130500000D01*
X184000000Y-95500000D02*
X172000000Y-95500000D01*
X172000000Y-95500000D02*
X172000000Y-133500000D01*
X172000000Y-133500000D02*
X184000000Y-133500000D01*
X184000000Y-133500000D02*
X184000000Y-95500000D01*
D13*
%TO.C,R207*%
X185469800Y-95553559D02*
X185469800Y-95860841D01*
X184709800Y-95553559D02*
X184709800Y-95860841D01*
%TO.C,R405*%
X89353641Y-91580000D02*
X89046359Y-91580000D01*
X89353641Y-90820000D02*
X89046359Y-90820000D01*
%TO.C,R404*%
X167920000Y-128843641D02*
X167920000Y-128536359D01*
X168680000Y-128843641D02*
X168680000Y-128536359D01*
%TO.C,D401*%
X167330000Y-123950000D02*
X167330000Y-124600000D01*
X167330000Y-123950000D02*
X170170000Y-123950000D01*
X167330000Y-126250000D02*
X170170000Y-126250000D01*
%TO.C,R406*%
X191080000Y-132646359D02*
X191080000Y-132953641D01*
X190320000Y-132646359D02*
X190320000Y-132953641D01*
%TO.C,D422*%
X107080000Y-123950000D02*
X107080000Y-124600000D01*
X107080000Y-123950000D02*
X109920000Y-123950000D01*
X107080000Y-126250000D02*
X109920000Y-126250000D01*
D15*
%TO.C,ART102*%
X85487500Y-104662500D02*
X87487500Y-102662500D01*
X85487500Y-114662500D02*
X85487500Y-104662500D01*
X85487500Y-120162500D02*
X85487500Y-130162500D01*
X85487500Y-130162500D02*
X87487500Y-132162500D01*
X87487500Y-102662500D02*
X89487500Y-104662500D01*
X87487500Y-116662500D02*
X85487500Y-114662500D01*
X87487500Y-118162500D02*
X85487500Y-120162500D01*
X87487500Y-132162500D02*
X89487500Y-130162500D01*
X88237500Y-101912500D02*
X90237500Y-99912500D01*
X88237500Y-117412500D02*
X90237500Y-119412500D01*
X88237500Y-132912500D02*
X90237500Y-134912500D01*
X89487500Y-104662500D02*
X89487500Y-114662500D01*
X89487500Y-114662500D02*
X87487500Y-116662500D01*
X89487500Y-120162500D02*
X87487500Y-118162500D01*
X89487500Y-130162500D02*
X89487500Y-120162500D01*
X90237500Y-99912500D02*
X100237500Y-99912500D01*
X90237500Y-103912500D02*
X88237500Y-101912500D01*
X90237500Y-115412500D02*
X88237500Y-117412500D01*
X90237500Y-119412500D02*
X100237500Y-119412500D01*
X90237500Y-130912500D02*
X88237500Y-132912500D01*
X90237500Y-134912500D02*
X100237500Y-134912500D01*
X100237500Y-99912500D02*
X102237500Y-101912500D01*
X100237500Y-103912500D02*
X90237500Y-103912500D01*
X100237500Y-115412500D02*
X90237500Y-115412500D01*
X100237500Y-119412500D02*
X102237500Y-117412500D01*
X100237500Y-130912500D02*
X90237500Y-130912500D01*
X100237500Y-134912500D02*
X102237500Y-132912500D01*
X100987500Y-104662500D02*
X102987500Y-102662500D01*
X100987500Y-114662500D02*
X100987500Y-104662500D01*
X100987500Y-120162500D02*
X100987500Y-130162500D01*
X100987500Y-130162500D02*
X102987500Y-132162500D01*
X102237500Y-101912500D02*
X100237500Y-103912500D01*
X102237500Y-117412500D02*
X100237500Y-115412500D01*
X102237500Y-132912500D02*
X100237500Y-130912500D01*
X102987500Y-102662500D02*
X104987500Y-104662500D01*
X102987500Y-116662500D02*
X100987500Y-114662500D01*
X102987500Y-118162500D02*
X100987500Y-120162500D01*
X102987500Y-132162500D02*
X104987500Y-130162500D01*
X104987500Y-104662500D02*
X104987500Y-114662500D01*
X104987500Y-114662500D02*
X102987500Y-116662500D01*
X104987500Y-120162500D02*
X102987500Y-118162500D01*
X104987500Y-130162500D02*
X104987500Y-120162500D01*
X106487500Y-104662500D02*
X108487500Y-102662500D01*
X106487500Y-114662500D02*
X106487500Y-104662500D01*
X106487500Y-120162500D02*
X106487500Y-130162500D01*
X106487500Y-130162500D02*
X108487500Y-132162500D01*
X108487500Y-102662500D02*
X110487500Y-104662500D01*
X108487500Y-116662500D02*
X106487500Y-114662500D01*
X108487500Y-118162500D02*
X106487500Y-120162500D01*
X108487500Y-132162500D02*
X110487500Y-130162500D01*
X109237500Y-101912500D02*
X111237500Y-99912500D01*
X109237500Y-117412500D02*
X111237500Y-119412500D01*
X109237500Y-132912500D02*
X111237500Y-134912500D01*
X110487500Y-104662500D02*
X110487500Y-114662500D01*
X110487500Y-114662500D02*
X108487500Y-116662500D01*
X110487500Y-120162500D02*
X108487500Y-118162500D01*
X110487500Y-130162500D02*
X110487500Y-120162500D01*
X111237500Y-99912500D02*
X121237500Y-99912500D01*
X111237500Y-103912500D02*
X109237500Y-101912500D01*
X111237500Y-115412500D02*
X109237500Y-117412500D01*
X111237500Y-119412500D02*
X121237500Y-119412500D01*
X111237500Y-130912500D02*
X109237500Y-132912500D01*
X111237500Y-134912500D02*
X121237500Y-134912500D01*
X121237500Y-99912500D02*
X123237500Y-101912500D01*
X121237500Y-103912500D02*
X111237500Y-103912500D01*
X121237500Y-115412500D02*
X111237500Y-115412500D01*
X121237500Y-119412500D02*
X123237500Y-117412500D01*
X121237500Y-130912500D02*
X111237500Y-130912500D01*
X121237500Y-134912500D02*
X123237500Y-132912500D01*
X121987500Y-104662500D02*
X123987500Y-102662500D01*
X121987500Y-114662500D02*
X121987500Y-104662500D01*
X121987500Y-120162500D02*
X121987500Y-130162500D01*
X121987500Y-130162500D02*
X123987500Y-132162500D01*
X123237500Y-101912500D02*
X121237500Y-103912500D01*
X123237500Y-117412500D02*
X121237500Y-115412500D01*
X123237500Y-132912500D02*
X121237500Y-130912500D01*
X123987500Y-102662500D02*
X125987500Y-104662500D01*
X123987500Y-116662500D02*
X121987500Y-114662500D01*
X123987500Y-118162500D02*
X121987500Y-120162500D01*
X123987500Y-132162500D02*
X125987500Y-130162500D01*
X125987500Y-104662500D02*
X125987500Y-114662500D01*
X125987500Y-114662500D02*
X123987500Y-116662500D01*
X125987500Y-120162500D02*
X123987500Y-118162500D01*
X125987500Y-130162500D02*
X125987500Y-120162500D01*
X130187500Y-104662500D02*
X130187500Y-114662500D01*
X130187500Y-114662500D02*
X132187500Y-116662500D01*
X130187500Y-120162500D02*
X132187500Y-118162500D01*
X130187500Y-130162500D02*
X130187500Y-120162500D01*
X132187500Y-102662500D02*
X130187500Y-104662500D01*
X132187500Y-116662500D02*
X134187500Y-114662500D01*
X132187500Y-118162500D02*
X134187500Y-120162500D01*
X132187500Y-132162500D02*
X130187500Y-130162500D01*
X132937500Y-101912500D02*
X134937500Y-103912500D01*
X132937500Y-117412500D02*
X134937500Y-115412500D01*
X132937500Y-132912500D02*
X134937500Y-130912500D01*
X134187500Y-104662500D02*
X132187500Y-102662500D01*
X134187500Y-114662500D02*
X134187500Y-104662500D01*
X134187500Y-120162500D02*
X134187500Y-130162500D01*
X134187500Y-130162500D02*
X132187500Y-132162500D01*
X134937500Y-99912500D02*
X132937500Y-101912500D01*
X134937500Y-103912500D02*
X144937500Y-103912500D01*
X134937500Y-115412500D02*
X144937500Y-115412500D01*
X134937500Y-119412500D02*
X132937500Y-117412500D01*
X134937500Y-130912500D02*
X144937500Y-130912500D01*
X134937500Y-134912500D02*
X132937500Y-132912500D01*
X144937500Y-99912500D02*
X134937500Y-99912500D01*
X144937500Y-103912500D02*
X146937500Y-101912500D01*
X144937500Y-115412500D02*
X146937500Y-117412500D01*
X144937500Y-119412500D02*
X134937500Y-119412500D01*
X144937500Y-130912500D02*
X146937500Y-132912500D01*
X144937500Y-134912500D02*
X134937500Y-134912500D01*
X145687500Y-104662500D02*
X145687500Y-114662500D01*
X145687500Y-114662500D02*
X147687500Y-116662500D01*
X145687500Y-120162500D02*
X147687500Y-118162500D01*
X145687500Y-130162500D02*
X145687500Y-120162500D01*
X146937500Y-101912500D02*
X144937500Y-99912500D01*
X146937500Y-117412500D02*
X144937500Y-119412500D01*
X146937500Y-132912500D02*
X144937500Y-134912500D01*
X147687500Y-102662500D02*
X145687500Y-104662500D01*
X147687500Y-116662500D02*
X149687500Y-114662500D01*
X147687500Y-118162500D02*
X149687500Y-120162500D01*
X147687500Y-132162500D02*
X145687500Y-130162500D01*
X149687500Y-104662500D02*
X147687500Y-102662500D01*
X149687500Y-114662500D02*
X149687500Y-104662500D01*
X149687500Y-120162500D02*
X149687500Y-130162500D01*
X149687500Y-130162500D02*
X147687500Y-132162500D01*
X151187500Y-104662500D02*
X151187500Y-114662500D01*
X151187500Y-114662500D02*
X153187500Y-116662500D01*
X151187500Y-120162500D02*
X153187500Y-118162500D01*
X151187500Y-130162500D02*
X151187500Y-120162500D01*
X153187500Y-102662500D02*
X151187500Y-104662500D01*
X153187500Y-116662500D02*
X155187500Y-114662500D01*
X153187500Y-118162500D02*
X155187500Y-120162500D01*
X153187500Y-132162500D02*
X151187500Y-130162500D01*
X153937500Y-101912500D02*
X155937500Y-103912500D01*
X153937500Y-117412500D02*
X155937500Y-115412500D01*
X153937500Y-132912500D02*
X155937500Y-130912500D01*
X155187500Y-104662500D02*
X153187500Y-102662500D01*
X155187500Y-114662500D02*
X155187500Y-104662500D01*
X155187500Y-120162500D02*
X155187500Y-130162500D01*
X155187500Y-130162500D02*
X153187500Y-132162500D01*
X155937500Y-99912500D02*
X153937500Y-101912500D01*
X155937500Y-103912500D02*
X165937500Y-103912500D01*
X155937500Y-115412500D02*
X165937500Y-115412500D01*
X155937500Y-119412500D02*
X153937500Y-117412500D01*
X155937500Y-130912500D02*
X165937500Y-130912500D01*
X155937500Y-134912500D02*
X153937500Y-132912500D01*
X165937500Y-99912500D02*
X155937500Y-99912500D01*
X165937500Y-103912500D02*
X167937500Y-101912500D01*
X165937500Y-115412500D02*
X167937500Y-117412500D01*
X165937500Y-119412500D02*
X155937500Y-119412500D01*
X165937500Y-130912500D02*
X167937500Y-132912500D01*
X165937500Y-134912500D02*
X155937500Y-134912500D01*
X166687500Y-104662500D02*
X166687500Y-114662500D01*
X166687500Y-114662500D02*
X168687500Y-116662500D01*
X166687500Y-120162500D02*
X168687500Y-118162500D01*
X166687500Y-130162500D02*
X166687500Y-120162500D01*
X167937500Y-101912500D02*
X165937500Y-99912500D01*
X167937500Y-117412500D02*
X165937500Y-119412500D01*
X167937500Y-132912500D02*
X165937500Y-134912500D01*
X168687500Y-102662500D02*
X166687500Y-104662500D01*
X168687500Y-116662500D02*
X170687500Y-114662500D01*
X168687500Y-118162500D02*
X170687500Y-120162500D01*
X168687500Y-132162500D02*
X166687500Y-130162500D01*
X170687500Y-104662500D02*
X168687500Y-102662500D01*
X170687500Y-114662500D02*
X170687500Y-104662500D01*
X170687500Y-120162500D02*
X170687500Y-130162500D01*
X170687500Y-130162500D02*
X168687500Y-132162500D01*
D13*
%TO.C,R303*%
X215653641Y-112980000D02*
X215346359Y-112980000D01*
X215653641Y-112220000D02*
X215346359Y-112220000D01*
%TO.C,J402*%
X78470000Y-112870000D02*
X79800000Y-112870000D01*
X78470000Y-114200000D02*
X78470000Y-112870000D01*
X78470000Y-115470000D02*
X78470000Y-123150000D01*
X78470000Y-115470000D02*
X81130000Y-115470000D01*
X78470000Y-123150000D02*
X81130000Y-123150000D01*
X81130000Y-115470000D02*
X81130000Y-123150000D01*
%TO.C,D406*%
X159750000Y-134320000D02*
X160400000Y-134320000D01*
X159750000Y-134320000D02*
X159750000Y-131480000D01*
X162050000Y-134320000D02*
X162050000Y-131480000D01*
%TO.C,U202*%
X206310000Y-130637500D02*
X206310000Y-128837500D01*
X206310000Y-130637500D02*
X206310000Y-131437500D01*
X203190000Y-130637500D02*
X203190000Y-129837500D01*
X203190000Y-130637500D02*
X203190000Y-131437500D01*
%TO.C,C404*%
X195690000Y-134340580D02*
X195690000Y-134059420D01*
X196710000Y-134340580D02*
X196710000Y-134059420D01*
D16*
%TO.C,SW402*%
X166470000Y-93600000D02*
X166470000Y-93300000D01*
X166470000Y-90300000D02*
X166470000Y-90000000D01*
X166470000Y-90000000D02*
X162470000Y-90000000D01*
X162470000Y-93600000D02*
X166470000Y-93600000D01*
X162470000Y-93300000D02*
X162470000Y-93600000D01*
X162470000Y-90000000D02*
X162470000Y-90300000D01*
X165470000Y-92600000D02*
X163470000Y-92600000D01*
X163470000Y-92600000D02*
X163470000Y-91000000D01*
X163470000Y-91000000D02*
X165470000Y-91000000D01*
X165470000Y-91000000D02*
X165470000Y-92600000D01*
D13*
%TO.C,D403*%
X159850000Y-103320000D02*
X160500000Y-103320000D01*
X159850000Y-103320000D02*
X159850000Y-100480000D01*
X162150000Y-103320000D02*
X162150000Y-100480000D01*
%TO.C,R208*%
X201880000Y-114346359D02*
X201880000Y-114653641D01*
X201120000Y-114346359D02*
X201120000Y-114653641D01*
%TO.C,D417*%
X122850000Y-111020000D02*
X123500000Y-111020000D01*
X122850000Y-111020000D02*
X122850000Y-108180000D01*
X125150000Y-111020000D02*
X125150000Y-108180000D01*
%TO.C,C201*%
X186985000Y-90242164D02*
X186985000Y-90457836D01*
X186265000Y-90242164D02*
X186265000Y-90457836D01*
%TO.C,D404*%
X152050000Y-111020000D02*
X152700000Y-111020000D01*
X152050000Y-111020000D02*
X152050000Y-108180000D01*
X154350000Y-111020000D02*
X154350000Y-108180000D01*
%TO.C,C305*%
X213542164Y-116490000D02*
X213757836Y-116490000D01*
X213542164Y-117210000D02*
X213757836Y-117210000D01*
%TO.C,D426*%
X86250000Y-111020000D02*
X86900000Y-111020000D01*
X86250000Y-111020000D02*
X86250000Y-108180000D01*
X88550000Y-111020000D02*
X88550000Y-108180000D01*
%TO.C,D413*%
X138750000Y-134320000D02*
X139400000Y-134320000D01*
X138750000Y-134320000D02*
X138750000Y-131480000D01*
X141050000Y-134320000D02*
X141050000Y-131480000D01*
D16*
%TO.C,SW201*%
X226200000Y-102200000D02*
X226200000Y-102500000D01*
X226200000Y-105500000D02*
X226200000Y-105800000D01*
X226200000Y-105800000D02*
X230200000Y-105800000D01*
X230200000Y-102200000D02*
X226200000Y-102200000D01*
X230200000Y-102500000D02*
X230200000Y-102200000D01*
X230200000Y-105800000D02*
X230200000Y-105500000D01*
X227200000Y-103200000D02*
X229200000Y-103200000D01*
X229200000Y-103200000D02*
X229200000Y-104800000D01*
X229200000Y-104800000D02*
X227200000Y-104800000D01*
X227200000Y-104800000D02*
X227200000Y-103200000D01*
D13*
%TO.C,D427*%
X96620000Y-118550000D02*
X96620000Y-117900000D01*
X96620000Y-118550000D02*
X93780000Y-118550000D01*
X96620000Y-116250000D02*
X93780000Y-116250000D01*
%TO.C,D409*%
X146550000Y-111020000D02*
X147200000Y-111020000D01*
X146550000Y-111020000D02*
X146550000Y-108180000D01*
X148850000Y-111020000D02*
X148850000Y-108180000D01*
%TO.C,D420*%
X117620000Y-118550000D02*
X117620000Y-117900000D01*
X117620000Y-118550000D02*
X114780000Y-118550000D01*
X117620000Y-116250000D02*
X114780000Y-116250000D01*
%TO.C,D425*%
X94050000Y-103320000D02*
X94700000Y-103320000D01*
X94050000Y-103320000D02*
X94050000Y-100480000D01*
X96350000Y-103320000D02*
X96350000Y-100480000D01*
%TO.C,D203*%
X202215000Y-115755000D02*
X202215000Y-117225000D01*
X202215000Y-117225000D02*
X204500000Y-117225000D01*
X204500000Y-115755000D02*
X202215000Y-115755000D01*
%TO.C,D416*%
X122580000Y-123950000D02*
X122580000Y-124600000D01*
X122580000Y-123950000D02*
X125420000Y-123950000D01*
X122580000Y-126250000D02*
X125420000Y-126250000D01*
%TO.C,D407*%
X151780000Y-123950000D02*
X151780000Y-124600000D01*
X151780000Y-123950000D02*
X154620000Y-123950000D01*
X151780000Y-126250000D02*
X154620000Y-126250000D01*
%TO.C,J206*%
X230580000Y-130560000D02*
X228880000Y-130560000D01*
X230580000Y-121220000D02*
X228880000Y-121220000D01*
%TO.C,R210*%
X229636359Y-131310000D02*
X229943641Y-131310000D01*
X229636359Y-132070000D02*
X229943641Y-132070000D01*
%TO.C,Q201*%
X211880000Y-126940000D02*
X211230000Y-126940000D01*
X211880000Y-126940000D02*
X212530000Y-126940000D01*
X211880000Y-130060000D02*
X211230000Y-130060000D01*
X211880000Y-130060000D02*
X213555000Y-130060000D01*
%TO.C,R410*%
X100070000Y-92570000D02*
X93530000Y-92570000D01*
X100070000Y-92240000D02*
X100070000Y-92570000D01*
X100070000Y-90160000D02*
X100070000Y-89830000D01*
X100070000Y-89830000D02*
X93530000Y-89830000D01*
X93530000Y-92570000D02*
X93530000Y-92240000D01*
X93530000Y-89830000D02*
X93530000Y-90160000D01*
%TO.C,R403*%
X169020000Y-128853641D02*
X169020000Y-128546359D01*
X169780000Y-128853641D02*
X169780000Y-128546359D01*
%TO.C,TP201*%
X195050000Y-139050000D02*
X197950000Y-139050000D01*
X195050000Y-141950000D02*
X195050000Y-139050000D01*
X197950000Y-139050000D02*
X197950000Y-141950000D01*
X197950000Y-141950000D02*
X195050000Y-141950000D01*
D16*
%TO.C,LS402*%
X81500000Y-95600000D02*
X82500000Y-95600000D01*
X82000000Y-97600000D02*
X82000000Y-93600000D01*
D11*
X88100000Y-95600000D02*
G75*
G03*
X88100000Y-95600000I-6100000J0D01*
G01*
D12*
X84850090Y-89200000D02*
G75*
G03*
X84850090Y-89200000I-50090J0D01*
G01*
D13*
%TO.C,D424*%
X101850000Y-111020000D02*
X102500000Y-111020000D01*
X101850000Y-111020000D02*
X101850000Y-108180000D01*
X104150000Y-111020000D02*
X104150000Y-108180000D01*
%TO.C,JP401*%
X95500000Y-95900000D02*
X95500000Y-95300000D01*
X96200000Y-94600000D02*
X97600000Y-94600000D01*
X97600000Y-96600000D02*
X96200000Y-96600000D01*
X98300000Y-95300000D02*
X98300000Y-95900000D01*
X96200000Y-94600000D02*
G75*
G03*
X95500000Y-95300000I-1J-699999D01*
G01*
X95500000Y-95900000D02*
G75*
G03*
X96200000Y-96600000I699999J-1D01*
G01*
X98300000Y-95300000D02*
G75*
G03*
X97600000Y-94600000I-700000J0D01*
G01*
X97600000Y-96600000D02*
G75*
G03*
X98300000Y-95900000I0J700000D01*
G01*
%TO.C,D405*%
X162420000Y-118550000D02*
X162420000Y-117900000D01*
X162420000Y-118550000D02*
X159580000Y-118550000D01*
X162420000Y-116250000D02*
X159580000Y-116250000D01*
%TO.C,J201*%
X126270000Y-95840000D02*
X126270000Y-94400000D01*
X125700000Y-94400000D02*
X126270000Y-94400000D01*
X125700000Y-94400000D02*
X125700000Y-89200000D01*
X127790000Y-94400000D02*
X128810000Y-94400000D01*
X130330000Y-94400000D02*
X131350000Y-94400000D01*
X132870000Y-94400000D02*
X133890000Y-94400000D01*
X135410000Y-94400000D02*
X136430000Y-94400000D01*
X137950000Y-94400000D02*
X138970000Y-94400000D01*
X140490000Y-94400000D02*
X141510000Y-94400000D01*
X143030000Y-94400000D02*
X144050000Y-94400000D01*
X145570000Y-94400000D02*
X146590000Y-94400000D01*
X148110000Y-94400000D02*
X149130000Y-94400000D01*
X150650000Y-94400000D02*
X151670000Y-94400000D01*
X153190000Y-94400000D02*
X154210000Y-94400000D01*
X155730000Y-94400000D02*
X156300000Y-94400000D01*
X156300000Y-94400000D02*
X156300000Y-89200000D01*
X125700000Y-89200000D02*
X126270000Y-89200000D01*
X127790000Y-89200000D02*
X128810000Y-89200000D01*
X130330000Y-89200000D02*
X131350000Y-89200000D01*
X132870000Y-89200000D02*
X133890000Y-89200000D01*
X135410000Y-89200000D02*
X136430000Y-89200000D01*
X137950000Y-89200000D02*
X138970000Y-89200000D01*
X140490000Y-89200000D02*
X141510000Y-89200000D01*
X143030000Y-89200000D02*
X144050000Y-89200000D01*
X145570000Y-89200000D02*
X146590000Y-89200000D01*
X148110000Y-89200000D02*
X149130000Y-89200000D01*
X150650000Y-89200000D02*
X151670000Y-89200000D01*
X153190000Y-89200000D02*
X154210000Y-89200000D01*
X155730000Y-89200000D02*
X156300000Y-89200000D01*
%TO.C,R401*%
X110030000Y-96046359D02*
X110030000Y-96353641D01*
X109270000Y-96046359D02*
X109270000Y-96353641D01*
%TO.C,D410*%
X138750000Y-103320000D02*
X139400000Y-103320000D01*
X138750000Y-103320000D02*
X138750000Y-100480000D01*
X141050000Y-103320000D02*
X141050000Y-100480000D01*
D16*
%TO.C,L401*%
X190300000Y-126510000D02*
X190300000Y-130710000D01*
X190100000Y-126510000D02*
X190300000Y-126510000D01*
X186100000Y-126510000D02*
X186300000Y-126510000D01*
X190300000Y-130710000D02*
X190100000Y-130710000D01*
X186300000Y-130710000D02*
X186100000Y-130710000D01*
X186100000Y-130710000D02*
X186100000Y-126510000D01*
D13*
%TO.C,C403*%
X194340580Y-130210000D02*
X194059420Y-130210000D01*
X194340580Y-129190000D02*
X194059420Y-129190000D01*
%TO.C,R201*%
X222620000Y-103928641D02*
X222620000Y-103621359D01*
X223380000Y-103928641D02*
X223380000Y-103621359D01*
%TO.C,TP401*%
X100550000Y-97050000D02*
X100550000Y-94150000D01*
X103450000Y-97050000D02*
X100550000Y-97050000D01*
X100550000Y-94150000D02*
X103450000Y-94150000D01*
X103450000Y-94150000D02*
X103450000Y-97050000D01*
%TO.C,R203*%
X215280000Y-129746359D02*
X215280000Y-130053641D01*
X214520000Y-129746359D02*
X214520000Y-130053641D01*
%TO.C,R302*%
X214853641Y-110980000D02*
X214546359Y-110980000D01*
X214853641Y-110220000D02*
X214546359Y-110220000D01*
%TO.C,C203*%
X224910000Y-103859420D02*
X224910000Y-104140580D01*
X223890000Y-103859420D02*
X223890000Y-104140580D01*
%TO.C,U401*%
X193475000Y-132470000D02*
X191925000Y-132470000D01*
X191925000Y-130670000D02*
X193225000Y-130670000D01*
D17*
X194050000Y-132070000D02*
G75*
G03*
X194050000Y-132070000I-75000J0D01*
G01*
D13*
%TO.C,C205*%
X205307836Y-128197500D02*
X205092164Y-128197500D01*
X205307836Y-127477500D02*
X205092164Y-127477500D01*
%TO.C,R408*%
X193553641Y-133790000D02*
X193246359Y-133790000D01*
X193553641Y-133030000D02*
X193246359Y-133030000D01*
%TO.C,D421*%
X115050000Y-134320000D02*
X115700000Y-134320000D01*
X115050000Y-134320000D02*
X115050000Y-131480000D01*
X117350000Y-134320000D02*
X117350000Y-131480000D01*
%TO.C,D204*%
X202265000Y-114015000D02*
X202265000Y-115485000D01*
X202265000Y-115485000D02*
X204550000Y-115485000D01*
X204550000Y-114015000D02*
X202265000Y-114015000D01*
%TO.C,D411*%
X131050000Y-111020000D02*
X131700000Y-111020000D01*
X131050000Y-111020000D02*
X131050000Y-108180000D01*
X133350000Y-111020000D02*
X133350000Y-108180000D01*
%TO.C,D402*%
X169900000Y-108180000D02*
X169250000Y-108180000D01*
X169900000Y-108180000D02*
X169900000Y-111020000D01*
X167600000Y-108180000D02*
X167600000Y-111020000D01*
%TO.C,D430*%
X188197500Y-121535000D02*
X188197500Y-120065000D01*
X188197500Y-120065000D02*
X185912500Y-120065000D01*
X185912500Y-121535000D02*
X188197500Y-121535000D01*
%TO.C,TP403*%
X175950000Y-139050000D02*
X178850000Y-139050000D01*
X175950000Y-141950000D02*
X175950000Y-139050000D01*
X178850000Y-139050000D02*
X178850000Y-141950000D01*
X178850000Y-141950000D02*
X175950000Y-141950000D01*
D16*
%TO.C,SW202*%
X226200000Y-111950000D02*
X226200000Y-112250000D01*
X226200000Y-115250000D02*
X226200000Y-115550000D01*
X226200000Y-115550000D02*
X230200000Y-115550000D01*
X230200000Y-111950000D02*
X226200000Y-111950000D01*
X230200000Y-112250000D02*
X230200000Y-111950000D01*
X230200000Y-115550000D02*
X230200000Y-115250000D01*
X227200000Y-112950000D02*
X229200000Y-112950000D01*
X229200000Y-112950000D02*
X229200000Y-114550000D01*
X229200000Y-114550000D02*
X227200000Y-114550000D01*
X227200000Y-114550000D02*
X227200000Y-112950000D01*
D13*
%TO.C,TP402*%
X90350000Y-94150000D02*
X93250000Y-94150000D01*
X90350000Y-97050000D02*
X90350000Y-94150000D01*
X93250000Y-94150000D02*
X93250000Y-97050000D01*
X93250000Y-97050000D02*
X90350000Y-97050000D01*
D11*
%TO.C,U301*%
X221200000Y-95450000D02*
X218000000Y-95450000D01*
X221200000Y-90550000D02*
X221200000Y-95450000D01*
X218000000Y-95450000D02*
X218000000Y-90550000D01*
X218000000Y-90550000D02*
X221200000Y-90550000D01*
X221900000Y-95800000D02*
G75*
G03*
X221900000Y-95800000I-100000J0D01*
G01*
D13*
%TO.C,R402*%
X110470000Y-96353641D02*
X110470000Y-96046359D01*
X111230000Y-96353641D02*
X111230000Y-96046359D01*
%TO.C,C405*%
X190738748Y-123765000D02*
X191261252Y-123765000D01*
X190738748Y-125235000D02*
X191261252Y-125235000D01*
%TO.C,R407*%
X194520000Y-134053641D02*
X194520000Y-133746359D01*
X195280000Y-134053641D02*
X195280000Y-133746359D01*
%TO.C,D419*%
X107350000Y-111020000D02*
X108000000Y-111020000D01*
X107350000Y-111020000D02*
X107350000Y-108180000D01*
X109650000Y-111020000D02*
X109650000Y-108180000D01*
D16*
%TO.C,SW401*%
X120870000Y-93600000D02*
X120870000Y-93300000D01*
X120870000Y-90300000D02*
X120870000Y-90000000D01*
X120870000Y-90000000D02*
X116870000Y-90000000D01*
X116870000Y-93600000D02*
X120870000Y-93600000D01*
X116870000Y-93300000D02*
X116870000Y-93600000D01*
X116870000Y-90000000D02*
X116870000Y-90300000D01*
X119870000Y-92600000D02*
X117870000Y-92600000D01*
X117870000Y-92600000D02*
X117870000Y-91000000D01*
X117870000Y-91000000D02*
X119870000Y-91000000D01*
X119870000Y-91000000D02*
X119870000Y-92600000D01*
D13*
%TO.C,D423*%
X101580000Y-123950000D02*
X101580000Y-124600000D01*
X101580000Y-123950000D02*
X104420000Y-123950000D01*
X101580000Y-126250000D02*
X104420000Y-126250000D01*
%TO.C,D408*%
X146180000Y-123950000D02*
X146180000Y-124600000D01*
X146180000Y-123950000D02*
X149020000Y-123950000D01*
X146180000Y-126250000D02*
X149020000Y-126250000D01*
%TO.C,C207*%
X187149200Y-95261820D02*
X187149200Y-95542980D01*
X186129200Y-95261820D02*
X186129200Y-95542980D01*
%TO.C,C202*%
X185535000Y-90209420D02*
X185535000Y-90490580D01*
X184515000Y-90209420D02*
X184515000Y-90490580D01*
%TO.C,R301*%
X211646359Y-110220000D02*
X211953641Y-110220000D01*
X211646359Y-110980000D02*
X211953641Y-110980000D01*
%TO.C,D429*%
X86080000Y-123950000D02*
X86080000Y-124600000D01*
X86080000Y-123950000D02*
X88920000Y-123950000D01*
X86080000Y-126250000D02*
X88920000Y-126250000D01*
%TO.C,R209*%
X229636359Y-119710000D02*
X229943641Y-119710000D01*
X229636359Y-120470000D02*
X229943641Y-120470000D01*
%TO.C,D415*%
X126680000Y-116250000D02*
X126680000Y-116900000D01*
X126680000Y-116250000D02*
X129520000Y-116250000D01*
X126680000Y-118550000D02*
X129520000Y-118550000D01*
%TO.C,R204*%
X202692500Y-122246359D02*
X202692500Y-122553641D01*
X201932500Y-122246359D02*
X201932500Y-122553641D01*
%TO.C,C206*%
X205461252Y-126972500D02*
X204938748Y-126972500D01*
X205461252Y-125502500D02*
X204938748Y-125502500D01*
%TO.C,TP202*%
X187550000Y-139050000D02*
X190450000Y-139050000D01*
X187550000Y-141950000D02*
X187550000Y-139050000D01*
X190450000Y-139050000D02*
X190450000Y-141950000D01*
X190450000Y-141950000D02*
X187550000Y-141950000D01*
%TO.C,C402*%
X194661252Y-128635000D02*
X194138748Y-128635000D01*
X194661252Y-127165000D02*
X194138748Y-127165000D01*
%TO.C,R205*%
X185469800Y-97636359D02*
X185469800Y-97943641D01*
X184709800Y-97636359D02*
X184709800Y-97943641D01*
%TO.C,D428*%
X94050000Y-134320000D02*
X94700000Y-134320000D01*
X94050000Y-134320000D02*
X94050000Y-131480000D01*
X96350000Y-134320000D02*
X96350000Y-131480000D01*
%TO.C,C204*%
X205261252Y-134435000D02*
X204738748Y-134435000D01*
X205261252Y-132965000D02*
X204738748Y-132965000D01*
%TO.C,D412*%
X141320000Y-118550000D02*
X141320000Y-117900000D01*
X141320000Y-118550000D02*
X138480000Y-118550000D01*
X141320000Y-116250000D02*
X138480000Y-116250000D01*
D11*
%TO.C,ART101*%
X220000000Y-113700000D02*
X219600000Y-114300000D01*
X220000000Y-113700000D02*
X220400000Y-114300000D01*
X220000000Y-115400000D02*
X220000000Y-113700000D01*
X221000000Y-116400000D02*
X222700000Y-116400000D01*
X222700000Y-116400000D02*
X222100000Y-116000000D01*
X222700000Y-116400000D02*
X222100000Y-116800000D01*
D16*
X220943398Y-116400000D02*
G75*
G03*
X220943398Y-116400000I-943398J0D01*
G01*
D13*
%TO.C,R202*%
X202070000Y-129153641D02*
X202070000Y-128846359D01*
X202830000Y-129153641D02*
X202830000Y-128846359D01*
%TO.C,D201*%
X203027500Y-121665000D02*
X203027500Y-123135000D01*
X203027500Y-123135000D02*
X205312500Y-123135000D01*
X205312500Y-121665000D02*
X203027500Y-121665000D01*
%TO.C,R304*%
X211030000Y-114296359D02*
X211030000Y-114603641D01*
X210270000Y-114296359D02*
X210270000Y-114603641D01*
D16*
%TO.C,U302*%
X212000000Y-113250000D02*
X212000000Y-114050000D01*
X212000000Y-115250000D02*
X212000000Y-116050000D01*
X212000000Y-116050000D02*
X212800000Y-116050000D01*
X212800000Y-113250000D02*
X212000000Y-113250000D01*
X214500000Y-116050000D02*
X215300000Y-116050000D01*
X215300000Y-113250000D02*
X214500000Y-113250000D01*
X215300000Y-114050000D02*
X215300000Y-113250000D01*
X215300000Y-116050000D02*
X215300000Y-115250000D01*
D12*
X211562000Y-113450000D02*
G75*
G03*
X211562000Y-113450000I-12000J0D01*
G01*
D13*
%TO.C,D418*%
X115050000Y-103320000D02*
X115700000Y-103320000D01*
X115050000Y-103320000D02*
X115050000Y-100480000D01*
X117350000Y-103320000D02*
X117350000Y-100480000D01*
D16*
%TO.C,Y301*%
X225300000Y-94050000D02*
X225300000Y-94650000D01*
X223700000Y-94050000D02*
X223700000Y-94650000D01*
D13*
%TO.C,D205*%
X213997500Y-126200000D02*
X213997500Y-128200000D01*
X213997500Y-126200000D02*
X218007500Y-126200000D01*
X213997500Y-128200000D02*
X218007500Y-128200000D01*
%TO.C,Q401*%
X106830000Y-93940000D02*
X106180000Y-93940000D01*
X106830000Y-93940000D02*
X107480000Y-93940000D01*
X106830000Y-97060000D02*
X106180000Y-97060000D01*
X106830000Y-97060000D02*
X108505000Y-97060000D01*
%TO.C,R206*%
X201120000Y-116903641D02*
X201120000Y-116596359D01*
X201880000Y-116903641D02*
X201880000Y-116596359D01*
%TO.C,C304*%
X216360000Y-115892164D02*
X216360000Y-116107836D01*
X215640000Y-115892164D02*
X215640000Y-116107836D01*
%TO.C,D414*%
X130680000Y-123950000D02*
X130680000Y-124600000D01*
X130680000Y-123950000D02*
X133520000Y-123950000D01*
X130680000Y-126250000D02*
X133520000Y-126250000D01*
%TO.C,R409*%
X189292500Y-120646359D02*
X189292500Y-120953641D01*
X188532500Y-120646359D02*
X188532500Y-120953641D01*
%TO.C,D202*%
X209640000Y-130925000D02*
X209640000Y-132925000D01*
X209640000Y-130925000D02*
X213650000Y-130925000D01*
X209640000Y-132925000D02*
X213650000Y-132925000D01*
%TD*%
%LPC*%
D18*
%TO.C,LS401*%
X79500000Y-95600000D03*
X84500000Y-95600000D03*
%TD*%
D19*
%TO.C,C301*%
X216875000Y-96600000D03*
X215325000Y-96600000D03*
%TD*%
D20*
%TO.C,R305*%
X216910000Y-97900000D03*
X215890000Y-97900000D03*
%TD*%
D21*
%TO.C,J301*%
X181800000Y-97000000D03*
D22*
X179260000Y-97000000D03*
X176720000Y-97000000D03*
X174180000Y-97000000D03*
%TD*%
D23*
%TO.C,R207*%
X185089800Y-95197200D03*
X185089800Y-96217200D03*
%TD*%
D20*
%TO.C,R405*%
X89710000Y-91200000D03*
X88690000Y-91200000D03*
%TD*%
D24*
%TO.C,R404*%
X168300000Y-129200000D03*
X168300000Y-128180000D03*
%TD*%
D25*
%TO.C,D401*%
X167835000Y-124550000D03*
X167835000Y-125650000D03*
X169665000Y-125650000D03*
X169665000Y-124550000D03*
%TD*%
D23*
%TO.C,R406*%
X190700000Y-132290000D03*
X190700000Y-133310000D03*
%TD*%
D25*
%TO.C,D422*%
X107585000Y-124550000D03*
X107585000Y-125650000D03*
X109415000Y-125650000D03*
X109415000Y-124550000D03*
%TD*%
D20*
%TO.C,R303*%
X216010000Y-112600000D03*
X214990000Y-112600000D03*
%TD*%
D21*
%TO.C,J402*%
X79800000Y-114200000D03*
D22*
X79800000Y-116740000D03*
X79800000Y-119280000D03*
X79800000Y-121820000D03*
%TD*%
D25*
%TO.C,D406*%
X160350000Y-133815000D03*
X161450000Y-133815000D03*
X161450000Y-131985000D03*
X160350000Y-131985000D03*
%TD*%
D26*
%TO.C,U202*%
X205700000Y-129500000D03*
X204750000Y-129500000D03*
X203800000Y-129500000D03*
X203800000Y-131775000D03*
X205700000Y-131775000D03*
%TD*%
D27*
%TO.C,C404*%
X196200000Y-134975000D03*
X196200000Y-133425000D03*
%TD*%
D28*
%TO.C,SW402*%
X166445000Y-92550000D03*
X162495000Y-92550000D03*
X166445000Y-91050000D03*
X162495000Y-91050000D03*
%TD*%
D25*
%TO.C,D403*%
X160450000Y-102815000D03*
X161550000Y-102815000D03*
X161550000Y-100985000D03*
X160450000Y-100985000D03*
%TD*%
D23*
%TO.C,R208*%
X201500000Y-113990000D03*
X201500000Y-115010000D03*
%TD*%
D25*
%TO.C,D417*%
X123450000Y-110515000D03*
X124550000Y-110515000D03*
X124550000Y-108685000D03*
X123450000Y-108685000D03*
%TD*%
D29*
%TO.C,C201*%
X186625000Y-89870000D03*
X186625000Y-90830000D03*
%TD*%
D30*
%TO.C,H103*%
X78000000Y-85000000D03*
D31*
X78000000Y-85000000D03*
%TD*%
D25*
%TO.C,D404*%
X152650000Y-110515000D03*
X153750000Y-110515000D03*
X153750000Y-108685000D03*
X152650000Y-108685000D03*
%TD*%
D32*
%TO.C,C305*%
X213170000Y-116850000D03*
X214130000Y-116850000D03*
%TD*%
D25*
%TO.C,D426*%
X86850000Y-110515000D03*
X87950000Y-110515000D03*
X87950000Y-108685000D03*
X86850000Y-108685000D03*
%TD*%
%TO.C,D413*%
X139350000Y-133815000D03*
X140450000Y-133815000D03*
X140450000Y-131985000D03*
X139350000Y-131985000D03*
%TD*%
D28*
%TO.C,SW201*%
X226225000Y-103250000D03*
X230175000Y-103250000D03*
X226225000Y-104750000D03*
X230175000Y-104750000D03*
%TD*%
D25*
%TO.C,D427*%
X96115000Y-117950000D03*
X96115000Y-116850000D03*
X94285000Y-116850000D03*
X94285000Y-117950000D03*
%TD*%
%TO.C,D409*%
X147150000Y-110515000D03*
X148250000Y-110515000D03*
X148250000Y-108685000D03*
X147150000Y-108685000D03*
%TD*%
%TO.C,D420*%
X117115000Y-117950000D03*
X117115000Y-116850000D03*
X115285000Y-116850000D03*
X115285000Y-117950000D03*
%TD*%
%TO.C,D425*%
X94650000Y-102815000D03*
X95750000Y-102815000D03*
X95750000Y-100985000D03*
X94650000Y-100985000D03*
%TD*%
D33*
%TO.C,D203*%
X202912500Y-116490000D03*
X204487500Y-116490000D03*
%TD*%
D25*
%TO.C,D416*%
X123085000Y-124550000D03*
X123085000Y-125650000D03*
X124915000Y-125650000D03*
X124915000Y-124550000D03*
%TD*%
%TO.C,D407*%
X152285000Y-124550000D03*
X152285000Y-125650000D03*
X154115000Y-125650000D03*
X154115000Y-124550000D03*
%TD*%
D34*
%TO.C,J206*%
X228075000Y-128780000D03*
X228075000Y-123000000D03*
D35*
X227000000Y-129090000D03*
X227000000Y-128290000D03*
D36*
X227000000Y-127140000D03*
X227000000Y-126140000D03*
X227000000Y-125640000D03*
X227000000Y-124640000D03*
D35*
X227000000Y-123490000D03*
X227000000Y-122690000D03*
X227000000Y-122690000D03*
X227000000Y-123490000D03*
D36*
X227000000Y-124140000D03*
X227000000Y-125140000D03*
X227000000Y-126640000D03*
X227000000Y-127640000D03*
D35*
X227000000Y-128290000D03*
X227000000Y-129090000D03*
D37*
X227575000Y-130210000D03*
D38*
X231755000Y-130210000D03*
D37*
X227575000Y-121570000D03*
D38*
X231755000Y-121570000D03*
%TD*%
D39*
%TO.C,R210*%
X229280000Y-131690000D03*
X230300000Y-131690000D03*
%TD*%
D40*
%TO.C,Q201*%
X210942500Y-128500000D03*
X212817500Y-129450000D03*
X212817500Y-127550000D03*
%TD*%
D41*
%TO.C,U201*%
X189000000Y-89690000D03*
X189000000Y-90960000D03*
X189000000Y-92230000D03*
X189000000Y-93500000D03*
X189000000Y-94770000D03*
X189000000Y-96040000D03*
X189000000Y-97310000D03*
X189000000Y-98580000D03*
X189000000Y-99850000D03*
X189000000Y-101120000D03*
X189000000Y-102390000D03*
X189000000Y-103660000D03*
X189000000Y-104930000D03*
X189000000Y-106200000D03*
D42*
X190765000Y-107450000D03*
X192035000Y-107450000D03*
X193305000Y-107450000D03*
X194575000Y-107450000D03*
X195845000Y-107450000D03*
X197115000Y-107450000D03*
X198385000Y-107450000D03*
X199655000Y-107450000D03*
X200925000Y-107450000D03*
X202195000Y-107450000D03*
X203465000Y-107450000D03*
X204735000Y-107450000D03*
D41*
X206500000Y-106200000D03*
X206500000Y-104930000D03*
X206500000Y-103660000D03*
X206500000Y-102390000D03*
X206500000Y-101120000D03*
X206500000Y-99850000D03*
X206500000Y-98580000D03*
X206500000Y-97310000D03*
X206500000Y-96040000D03*
X206500000Y-94770000D03*
X206500000Y-93500000D03*
X206500000Y-92230000D03*
X206500000Y-90960000D03*
X206500000Y-89690000D03*
D43*
X196250000Y-97410000D03*
X196250000Y-96010000D03*
X194850000Y-96010000D03*
X194850000Y-97410000D03*
X194850000Y-98810000D03*
X196250000Y-98810000D03*
X197650000Y-98810000D03*
X197650000Y-97410000D03*
X197650000Y-96010000D03*
%TD*%
D44*
%TO.C,R410*%
X100610000Y-91200000D03*
D45*
X92990000Y-91200000D03*
%TD*%
D24*
%TO.C,R403*%
X169400000Y-129210000D03*
X169400000Y-128190000D03*
%TD*%
D46*
%TO.C,TP201*%
X196500000Y-140500000D03*
%TD*%
D18*
%TO.C,LS402*%
X82000000Y-92350000D03*
X82000000Y-98850000D03*
%TD*%
D25*
%TO.C,D424*%
X102450000Y-110515000D03*
X103550000Y-110515000D03*
X103550000Y-108685000D03*
X102450000Y-108685000D03*
%TD*%
D47*
%TO.C,JP401*%
X96250000Y-95600000D03*
D48*
X97550000Y-95600000D03*
%TD*%
D25*
%TO.C,D405*%
X161915000Y-117950000D03*
X161915000Y-116850000D03*
X160085000Y-116850000D03*
X160085000Y-117950000D03*
%TD*%
D30*
%TO.C,H102*%
X78000000Y-139000000D03*
D31*
X78000000Y-139000000D03*
%TD*%
D49*
%TO.C,J201*%
X127030000Y-94325000D03*
X127030000Y-89275000D03*
X129570000Y-94325000D03*
X129570000Y-89275000D03*
X132110000Y-94325000D03*
X132110000Y-89275000D03*
X134650000Y-94325000D03*
X134650000Y-89275000D03*
X137190000Y-94325000D03*
X137190000Y-89275000D03*
X139730000Y-94325000D03*
X139730000Y-89275000D03*
X142270000Y-94325000D03*
X142270000Y-89275000D03*
X144810000Y-94325000D03*
X144810000Y-89275000D03*
X147350000Y-94325000D03*
X147350000Y-89275000D03*
X149890000Y-94325000D03*
X149890000Y-89275000D03*
X152430000Y-94325000D03*
X152430000Y-89275000D03*
X154970000Y-94325000D03*
X154970000Y-89275000D03*
%TD*%
D23*
%TO.C,R401*%
X109650000Y-95690000D03*
X109650000Y-96710000D03*
%TD*%
D25*
%TO.C,D410*%
X139350000Y-102815000D03*
X140450000Y-102815000D03*
X140450000Y-100985000D03*
X139350000Y-100985000D03*
%TD*%
D50*
%TO.C,L401*%
X188200000Y-127010000D03*
X188200000Y-130210000D03*
%TD*%
D19*
%TO.C,C403*%
X194975000Y-129700000D03*
X193425000Y-129700000D03*
%TD*%
D24*
%TO.C,R201*%
X223000000Y-104285000D03*
X223000000Y-103265000D03*
%TD*%
D46*
%TO.C,TP401*%
X102000000Y-95600000D03*
%TD*%
D23*
%TO.C,R203*%
X214900000Y-129390000D03*
X214900000Y-130410000D03*
%TD*%
D20*
%TO.C,R302*%
X215210000Y-110600000D03*
X214190000Y-110600000D03*
%TD*%
D51*
%TO.C,C203*%
X224400000Y-103225000D03*
X224400000Y-104775000D03*
%TD*%
D30*
%TO.C,H104*%
X229000000Y-139000000D03*
D31*
X229000000Y-139000000D03*
%TD*%
D52*
%TO.C,U401*%
X193325000Y-132070000D03*
X193325000Y-131570000D03*
X193325000Y-131070000D03*
X191825000Y-131070000D03*
X191825000Y-131570000D03*
X191825000Y-132070000D03*
%TD*%
D53*
%TO.C,C205*%
X205680000Y-127837500D03*
X204720000Y-127837500D03*
%TD*%
D20*
%TO.C,R408*%
X193910000Y-133410000D03*
X192890000Y-133410000D03*
%TD*%
D25*
%TO.C,D421*%
X115650000Y-133815000D03*
X116750000Y-133815000D03*
X116750000Y-131985000D03*
X115650000Y-131985000D03*
%TD*%
D33*
%TO.C,D204*%
X202962500Y-114750000D03*
X204537500Y-114750000D03*
%TD*%
D30*
%TO.C,H101*%
X229000000Y-85000000D03*
D31*
X229000000Y-85000000D03*
%TD*%
D25*
%TO.C,D411*%
X131650000Y-110515000D03*
X132750000Y-110515000D03*
X132750000Y-108685000D03*
X131650000Y-108685000D03*
%TD*%
%TO.C,D402*%
X169300000Y-108685000D03*
X168200000Y-108685000D03*
X168200000Y-110515000D03*
X169300000Y-110515000D03*
%TD*%
D54*
%TO.C,D430*%
X187500000Y-120800000D03*
X185925000Y-120800000D03*
%TD*%
D46*
%TO.C,TP403*%
X177400000Y-140500000D03*
%TD*%
D28*
%TO.C,SW202*%
X226225000Y-113000000D03*
X230175000Y-113000000D03*
X226225000Y-114500000D03*
X230175000Y-114500000D03*
%TD*%
D46*
%TO.C,TP402*%
X91800000Y-95600000D03*
%TD*%
D55*
%TO.C,U301*%
X222325000Y-94905000D03*
X222325000Y-93635000D03*
X222325000Y-92365000D03*
X222325000Y-91095000D03*
X216875000Y-91095000D03*
X216875000Y-92365000D03*
X216875000Y-93635000D03*
X216875000Y-94905000D03*
%TD*%
D24*
%TO.C,R402*%
X110850000Y-96710000D03*
X110850000Y-95690000D03*
%TD*%
D56*
%TO.C,C405*%
X190050000Y-124500000D03*
X191950000Y-124500000D03*
%TD*%
D24*
%TO.C,R407*%
X194900000Y-134410000D03*
X194900000Y-133390000D03*
%TD*%
D25*
%TO.C,D419*%
X107950000Y-110515000D03*
X109050000Y-110515000D03*
X109050000Y-108685000D03*
X107950000Y-108685000D03*
%TD*%
D28*
%TO.C,SW401*%
X120845000Y-92550000D03*
X116895000Y-92550000D03*
X120845000Y-91050000D03*
X116895000Y-91050000D03*
%TD*%
D25*
%TO.C,D423*%
X102085000Y-124550000D03*
X102085000Y-125650000D03*
X103915000Y-125650000D03*
X103915000Y-124550000D03*
%TD*%
%TO.C,D408*%
X146685000Y-124550000D03*
X146685000Y-125650000D03*
X148515000Y-125650000D03*
X148515000Y-124550000D03*
%TD*%
D51*
%TO.C,C207*%
X186639200Y-94627400D03*
X186639200Y-96177400D03*
%TD*%
%TO.C,C202*%
X185025000Y-89575000D03*
X185025000Y-91125000D03*
%TD*%
D39*
%TO.C,R301*%
X211290000Y-110600000D03*
X212310000Y-110600000D03*
%TD*%
D25*
%TO.C,D429*%
X86585000Y-124550000D03*
X86585000Y-125650000D03*
X88415000Y-125650000D03*
X88415000Y-124550000D03*
%TD*%
D39*
%TO.C,R209*%
X229280000Y-120090000D03*
X230300000Y-120090000D03*
%TD*%
D25*
%TO.C,D415*%
X127185000Y-116850000D03*
X127185000Y-117950000D03*
X129015000Y-117950000D03*
X129015000Y-116850000D03*
%TD*%
D23*
%TO.C,R204*%
X202312500Y-121890000D03*
X202312500Y-122910000D03*
%TD*%
D57*
%TO.C,C206*%
X206150000Y-126237500D03*
X204250000Y-126237500D03*
%TD*%
D46*
%TO.C,TP202*%
X189000000Y-140500000D03*
%TD*%
D57*
%TO.C,C402*%
X195350000Y-127900000D03*
X193450000Y-127900000D03*
%TD*%
D23*
%TO.C,R205*%
X185089800Y-97280000D03*
X185089800Y-98300000D03*
%TD*%
D25*
%TO.C,D428*%
X94650000Y-133815000D03*
X95750000Y-133815000D03*
X95750000Y-131985000D03*
X94650000Y-131985000D03*
%TD*%
D57*
%TO.C,C204*%
X205950000Y-133700000D03*
X204050000Y-133700000D03*
%TD*%
D25*
%TO.C,D412*%
X140815000Y-117950000D03*
X140815000Y-116850000D03*
X138985000Y-116850000D03*
X138985000Y-117950000D03*
%TD*%
D24*
%TO.C,R202*%
X202450000Y-129510000D03*
X202450000Y-128490000D03*
%TD*%
D33*
%TO.C,D201*%
X203725000Y-122400000D03*
X205300000Y-122400000D03*
%TD*%
D23*
%TO.C,R304*%
X210650000Y-113940000D03*
X210650000Y-114960000D03*
%TD*%
D58*
%TO.C,U302*%
X212500000Y-113900000D03*
X212500000Y-114400000D03*
X212500000Y-114900000D03*
X212500000Y-115400000D03*
D59*
X213150000Y-115550000D03*
X213650000Y-115550000D03*
X214150000Y-115550000D03*
D58*
X214800000Y-115400000D03*
X214800000Y-114900000D03*
X214800000Y-114400000D03*
X214800000Y-113900000D03*
D59*
X214150000Y-113750000D03*
X213650000Y-113750000D03*
X213150000Y-113750000D03*
%TD*%
D25*
%TO.C,D418*%
X115650000Y-102815000D03*
X116750000Y-102815000D03*
X116750000Y-100985000D03*
X115650000Y-100985000D03*
%TD*%
D60*
%TO.C,Y301*%
X224500000Y-93600000D03*
X224500000Y-95100000D03*
%TD*%
D61*
%TO.C,D205*%
X214707500Y-127200000D03*
X218007500Y-127200000D03*
%TD*%
D40*
%TO.C,Q401*%
X105892500Y-95500000D03*
X107767500Y-96450000D03*
X107767500Y-94550000D03*
%TD*%
D24*
%TO.C,R206*%
X201500000Y-117260000D03*
X201500000Y-116240000D03*
%TD*%
D29*
%TO.C,C304*%
X216000000Y-115520000D03*
X216000000Y-116480000D03*
%TD*%
D25*
%TO.C,D414*%
X131185000Y-124550000D03*
X131185000Y-125650000D03*
X133015000Y-125650000D03*
X133015000Y-124550000D03*
%TD*%
D23*
%TO.C,R409*%
X188912500Y-120290000D03*
X188912500Y-121310000D03*
%TD*%
D61*
%TO.C,D202*%
X210350000Y-131925000D03*
X213650000Y-131925000D03*
%TD*%
D62*
%TO.C,J203*%
X146250000Y-84000000D03*
X146250000Y-139300000D03*
%TD*%
%TO.C,J205*%
X129750000Y-139300000D03*
X129750000Y-84000000D03*
%TD*%
%TO.C,J202*%
X162750000Y-139300000D03*
X162750000Y-84000000D03*
%TD*%
%TO.C,J204*%
X113250000Y-84000000D03*
X113250000Y-139300000D03*
%TD*%
%LPD*%
M02*
