%TF.GenerationSoftware,KiCad,Pcbnew,7.0.9*%
%TF.CreationDate,2024-02-17T00:35:01+08:00*%
%TF.ProjectId,AlarmClockProjV1,416c6172-6d43-46c6-9f63-6b50726f6a56,rev?*%
%TF.SameCoordinates,Original*%
%TF.FileFunction,Soldermask,Bot*%
%TF.FilePolarity,Negative*%
%FSLAX46Y46*%
G04 Gerber Fmt 4.6, Leading zero omitted, Abs format (unit mm)*
G04 Created by KiCad (PCBNEW 7.0.9) date 2024-02-17 00:35:01*
%MOMM*%
%LPD*%
G01*
G04 APERTURE LIST*
%ADD10C,1.350000*%
%ADD11R,1.700000X1.700000*%
%ADD12O,1.700000X1.700000*%
%ADD13C,3.600000*%
%ADD14C,6.400000*%
%ADD15C,0.650000*%
%ADD16O,2.100000X1.000000*%
%ADD17O,1.800000X1.000000*%
%ADD18C,1.600000*%
%ADD19O,1.600000X1.600000*%
%ADD20C,2.300000*%
%ADD21R,2.500000X2.500000*%
G04 APERTURE END LIST*
D10*
%TO.C,LS401*%
X79500000Y-95600000D03*
X84500000Y-95600000D03*
%TD*%
D11*
%TO.C,J301*%
X181800000Y-97000000D03*
D12*
X179260000Y-97000000D03*
X176720000Y-97000000D03*
X174180000Y-97000000D03*
%TD*%
D11*
%TO.C,J402*%
X79800000Y-114200000D03*
D12*
X79800000Y-116740000D03*
X79800000Y-119280000D03*
X79800000Y-121820000D03*
%TD*%
D13*
%TO.C,H103*%
X78000000Y-85000000D03*
D14*
X78000000Y-85000000D03*
%TD*%
D15*
%TO.C,J206*%
X228075000Y-128780000D03*
X228075000Y-123000000D03*
D16*
X227575000Y-130210000D03*
D17*
X231755000Y-130210000D03*
D16*
X227575000Y-121570000D03*
D17*
X231755000Y-121570000D03*
%TD*%
D18*
%TO.C,R410*%
X100610000Y-91200000D03*
D19*
X92990000Y-91200000D03*
%TD*%
D10*
%TO.C,LS402*%
X82000000Y-92350000D03*
X82000000Y-98850000D03*
%TD*%
D13*
%TO.C,H102*%
X78000000Y-139000000D03*
D14*
X78000000Y-139000000D03*
%TD*%
D13*
%TO.C,H104*%
X229000000Y-139000000D03*
D14*
X229000000Y-139000000D03*
%TD*%
D13*
%TO.C,H101*%
X229000000Y-85000000D03*
D14*
X229000000Y-85000000D03*
%TD*%
D20*
%TO.C,J203*%
X146250000Y-84000000D03*
X146250000Y-139300000D03*
%TD*%
D21*
%TO.C,TP302*%
X224400000Y-98050000D03*
%TD*%
%TO.C,TP303*%
X224400000Y-109650000D03*
%TD*%
D20*
%TO.C,J205*%
X129750000Y-139300000D03*
X129750000Y-84000000D03*
%TD*%
D21*
%TO.C,TP301*%
X224400000Y-115100000D03*
%TD*%
D20*
%TO.C,J202*%
X162750000Y-139300000D03*
X162750000Y-84000000D03*
%TD*%
%TO.C,J204*%
X113250000Y-84000000D03*
X113250000Y-139300000D03*
%TD*%
D21*
%TO.C,TP304*%
X224400000Y-92900000D03*
%TD*%
M02*
