M48
; DRILL file {KiCad 7.0.9} date Sat Feb 17 00:35:01 2024
; FORMAT={-:-/ absolute / inch / decimal}
; #@! TF.CreationDate,2024-02-17T00:35:01+08:00
; #@! TF.GenerationSoftware,Kicad,Pcbnew,7.0.9
; #@! TF.FileFunction,Plated,1,4,PTH
FMAT,2
INCH
; #@! TA.AperFunction,Plated,PTH,ViaDrill
T1C0.0098
; #@! TA.AperFunction,Plated,PTH,ViaDrill
T2C0.0118
; #@! TA.AperFunction,Plated,PTH,ViaDrill
T3C0.0157
; #@! TA.AperFunction,Plated,PTH,ComponentDrill
T4C0.0236
; #@! TA.AperFunction,Plated,PTH,ComponentDrill
T5C0.0315
; #@! TA.AperFunction,Plated,PTH,ComponentDrill
T6C0.0335
; #@! TA.AperFunction,Plated,PTH,ComponentDrill
T7C0.0394
; #@! TA.AperFunction,Plated,PTH,ComponentDrill
T8C0.0591
; #@! TA.AperFunction,Plated,PTH,ComponentDrill
T9C0.1260
%
G90
G05
T1
X7.6713Y-3.8071
X7.6713Y-3.8622
X7.6988Y-3.7795
X7.6988Y-3.8327
X7.6988Y-3.8917
X7.7264Y-3.8071
X7.7264Y-3.8622
X7.7539Y-3.7795
X7.7539Y-3.8327
X7.7539Y-3.8898
X7.7815Y-3.8071
X7.7815Y-3.8622
T2
X2.9528Y-4.1339
X2.9528Y-4.2323
X2.9528Y-4.3307
X2.9528Y-4.9213
X2.9528Y-5.0197
X2.9528Y-5.1181
X2.9528Y-5.2165
X3.0512Y-4.1339
X3.0512Y-4.2323
X3.0512Y-4.3307
X3.0512Y-5.0197
X3.0512Y-5.1181
X3.0512Y-5.2165
X3.1496Y-4.1339
X3.1496Y-4.2323
X3.1496Y-4.3307
X3.248Y-4.1339
X3.248Y-4.2323
X3.248Y-4.3307
X3.3465Y-3.248
X3.3465Y-3.3465
X3.3465Y-3.4449
X3.3465Y-5.4134
X3.3465Y-5.5118
X3.4055Y-4.9921
X3.4449Y-3.248
X3.4449Y-3.3465
X3.4449Y-3.4449
X3.4449Y-5.4134
X3.4449Y-5.5118
X3.4606Y-3.5906
X3.5039Y-4.3504
X3.5433Y-3.248
X3.5433Y-3.3465
X3.5433Y-3.4449
X3.5433Y-5.4134
X3.5433Y-5.5118
X3.6417Y-3.248
X3.6417Y-3.3465
X3.6417Y-3.4449
X3.6417Y-4.2323
X3.6417Y-4.3307
X3.6417Y-4.4291
X3.6417Y-4.8228
X3.6417Y-4.9213
X3.6417Y-5.4134
X3.6417Y-5.5118
X3.7402Y-3.248
X3.7402Y-3.3465
X3.7402Y-3.4449
X3.7402Y-4.2323
X3.7402Y-4.3307
X3.7402Y-4.4291
X3.7402Y-4.8228
X3.7402Y-4.9213
X3.7402Y-5.0197
X3.7402Y-5.4134
X3.7402Y-5.5118
X3.7441Y-4.0906
X3.7677Y-5.0709
X3.811Y-5.2677
X3.8189Y-4.5984
X3.8386Y-3.248
X3.8386Y-3.3465
X3.8386Y-3.4449
X3.8386Y-4.2323
X3.8386Y-4.3307
X3.8386Y-4.4291
X3.8386Y-5.4134
X3.8386Y-5.5118
X3.937Y-3.248
X3.937Y-3.3465
X3.937Y-3.4449
X3.937Y-4.8228
X3.937Y-4.9213
X3.937Y-5.0197
X3.937Y-5.4134
X3.937Y-5.5118
X4.0197Y-4.9921
X4.0354Y-3.248
X4.0354Y-3.3465
X4.0354Y-3.4449
X4.1181Y-4.3504
X4.1339Y-3.4449
X4.1339Y-3.6417
X4.1339Y-4.0354
X4.1339Y-4.626
X4.1339Y-4.8622
X4.1339Y-5.2165
X4.1339Y-5.315
X4.2323Y-3.4449
X4.2323Y-3.6417
X4.2323Y-4.0354
X4.2323Y-4.626
X4.2362Y-4.9921
X4.3268Y-4.3504
X4.3307Y-3.4449
X4.3307Y-3.5433
X4.3504Y-4.9016
X4.3858Y-4.9016
X4.4173Y-3.874
X4.4291Y-3.4449
X4.4291Y-4.2323
X4.4291Y-4.3307
X4.4291Y-4.4291
X4.4606Y-5.1142
X4.4921Y-3.7835
X4.5276Y-4.2323
X4.5276Y-4.3307
X4.5276Y-4.4291
X4.5276Y-4.9213
X4.5472Y-3.6417
X4.5551Y-5.1496
X4.5945Y-5.1496
X4.6063Y-4.8228
X4.626Y-3.4449
X4.626Y-4.2323
X4.626Y-4.3307
X4.626Y-4.4291
X4.6417Y-5.2677
X4.6575Y-4.5984
X4.6772Y-3.8346
X4.7008Y-5.0748
X4.7244Y-3.4449
X4.7244Y-5.4134
X4.7244Y-5.5118
X4.8228Y-3.7402
X4.8228Y-5.4134
X4.8228Y-5.5118
X4.8465Y-4.9921
X4.872Y-3.5335
X4.874Y-3.8386
X4.9114Y-3.5335
X4.9134Y-3.8386
X4.9134Y-3.8819
X4.9409Y-4.3504
X4.9606Y-3.8386
X4.9606Y-4.8425
X4.9724Y-4.6732
X5.0197Y-4.1339
X5.0197Y-4.2323
X5.0197Y-4.5276
X5.0197Y-4.9213
X5.0197Y-5.0197
X5.0197Y-5.2165
X5.0394Y-4.0157
X5.0456Y-3.8134
X5.048Y-3.773
X5.1181Y-4.5276
X5.1181Y-5.2165
X5.1181Y-5.315
X5.151Y-3.758
X5.151Y-3.804
X5.1654Y-4.9921
X5.1732Y-4.1535
X5.2087Y-4.7638
X5.2165Y-5.315
X5.2441Y-4.2126
X5.2677Y-4.2795
X5.2677Y-4.3504
X5.315Y-3.248
X5.315Y-3.3465
X5.4213Y-4.1535
X5.437Y-4.0118
X5.4429Y-4.1201
X5.4429Y-4.3209
X5.4429Y-4.3701
X5.4488Y-4.063
X5.5118Y-4.3307
X5.5118Y-4.7244
X5.5118Y-4.8228
X5.5118Y-4.9213
X5.5118Y-5.0197
X5.5315Y-5.1496
X5.5787Y-5.2638
X5.5906Y-4.5984
X5.6024Y-3.4173
X5.6102Y-3.248
X5.6102Y-4.3307
X5.6102Y-4.4291
X5.6102Y-4.7244
X5.6102Y-4.8228
X5.6102Y-4.9213
X5.6102Y-5.0197
X5.7008Y-3.4173
X5.7756Y-4.9921
X5.7874Y-4.2047
X5.8031Y-3.4173
X5.8189Y-4.811
X5.8386Y-4.0118
X5.8386Y-4.3937
X5.9016Y-3.4173
X5.9055Y-4.626
X5.9055Y-5.2165
X5.9173Y-4.3071
X5.9921Y-4.9921
X6.0Y-3.4173
X6.0039Y-4.626
X6.0039Y-5.2165
X6.0039Y-5.4134
X6.0039Y-5.5118
X6.0551Y-4.1063
X6.1024Y-3.4173
X6.1024Y-4.3504
X6.1024Y-5.4134
X6.1024Y-5.5118
X6.1102Y-4.2795
X6.1496Y-4.2795
X6.1732Y-3.4646
X6.1732Y-3.5157
X6.1732Y-3.5669
X6.185Y-4.0709
X6.2008Y-4.7244
X6.2008Y-4.8228
X6.2008Y-5.122
X6.2165Y-4.0984
X6.2205Y-4.0118
X6.2559Y-4.1654
X6.2559Y-4.2244
X6.2874Y-4.1339
X6.2874Y-4.1929
X6.2913Y-4.252
X6.2992Y-3.4449
X6.2992Y-4.3307
X6.2992Y-4.4291
X6.2992Y-4.7244
X6.2992Y-4.8228
X6.3307Y-5.122
X6.3504Y-3.6378
X6.3976Y-3.4449
X6.3976Y-4.3307
X6.3976Y-4.4291
X6.3976Y-5.2677
X6.4173Y-4.6024
X6.4961Y-4.8228
X6.4961Y-4.9213
X6.5748Y-4.2638
X6.5945Y-3.248
X6.5945Y-3.3465
X6.6102Y-4.9921
X6.6929Y-3.248
X6.6929Y-3.3465
X6.6929Y-3.4449
X6.752Y-4.2717
X6.7559Y-5.0236
X6.7913Y-3.4449
X6.8425Y-4.4764
X6.8425Y-4.5394
X6.8425Y-4.5984
X6.8425Y-4.6535
X6.8701Y-3.9488
X6.878Y-4.5079
X6.878Y-4.5669
X6.878Y-4.626
X6.878Y-4.689
X6.8898Y-4.4291
X6.8898Y-5.0197
X6.9181Y-5.3338
X6.9882Y-4.4291
X6.9882Y-4.9213
X6.9882Y-5.0197
X6.9921Y-3.9921
X7.0Y-4.7008
X7.0315Y-5.3346
X7.0591Y-5.2165
X7.0866Y-4.0157
X7.0866Y-4.9213
X7.101Y-3.659
X7.128Y-3.693
X7.1326Y-4.0157
X7.152Y-3.726
X7.1654Y-4.1181
X7.173Y-3.761
X7.201Y-3.5245
X7.2146Y-4.1142
X7.2283Y-4.2795
X7.2283Y-4.4764
X7.2288Y-4.4177
X7.23Y-4.348
X7.2343Y-5.0492
X7.2677Y-4.254
X7.27Y-4.32
X7.2717Y-4.3819
X7.2717Y-4.4508
X7.2717Y-4.5079
X7.2736Y-5.0492
X7.3071Y-4.5394
X7.311Y-3.7
X7.333Y-3.948
X7.337Y-3.834
X7.3386Y-4.5709
X7.3661Y-3.9843
X7.372Y-3.89
X7.372Y-3.93
X7.374Y-4.5984
X7.384Y-3.834
X7.3858Y-4.9331
X7.4094Y-4.628
X7.4409Y-4.6535
X7.4764Y-4.7795
X7.4803Y-4.689
X7.5158Y-4.0984
X7.5197Y-4.0256
X7.5276Y-3.6811
X7.5492Y-4.065
X7.5492Y-4.124
X7.5689Y-4.0256
X7.5846Y-3.7303
X7.596Y-4.163
X7.6063Y-4.4488
X7.621Y-4.021
X7.626Y-4.5079
X7.6264Y-3.9846
X7.638Y-4.163
X7.6417Y-4.4213
X7.6535Y-4.4783
X7.654Y-3.953
X7.6693Y-5.3268
X7.677Y-4.57
X7.685Y-5.185
X7.6929Y-4.5374
X7.704Y-4.163
X7.7165Y-5.213
X7.7323Y-4.5709
X7.7441Y-4.622
X7.746Y-4.163
X7.748Y-5.189
X7.7756Y-4.8228
X7.7795Y-5.213
X7.7913Y-4.626
X7.794Y-4.163
X7.836Y-4.163
X7.874Y-4.8228
X7.878Y-4.163
X7.903Y-4.552
X7.922Y-4.163
X7.9291Y-4.8425
X7.9724Y-4.4488
X7.9961Y-5.0354
X8.002Y-4.4193
X8.0315Y-4.3898
X8.0413Y-4.7047
X8.061Y-4.3602
X8.0807Y-4.7047
X8.1299Y-4.8622
X8.1811Y-4.7795
X8.1929Y-3.5315
X8.2Y-3.681
X8.22Y-4.014
X8.2205Y-3.8819
X8.222Y-4.149
X8.228Y-3.7064
X8.228Y-3.767
X8.255Y-4.545
X8.259Y-3.732
X8.262Y-3.8819
X8.263Y-4.014
X8.263Y-4.149
X8.2874Y-4.2244
X8.2874Y-4.2677
X8.2953Y-4.878
X8.2992Y-5.2992
X8.314Y-3.792
X8.314Y-3.831
X8.314Y-3.8819
X8.314Y-3.9335
X8.315Y-4.565
X8.315Y-4.6024
X8.315Y-4.6417
X8.3346Y-4.878
X8.3386Y-5.2992
X8.3583Y-4.9764
X8.3661Y-5.4134
X8.396Y-3.578
X8.397Y-3.617
X8.3976Y-3.9921
X8.4016Y-4.8189
X8.4016Y-4.9882
X8.4291Y-4.937
X8.4311Y-3.9646
X8.4331Y-3.8031
X8.4488Y-3.7047
X8.4646Y-4.8228
X8.467Y-4.589
X8.4724Y-3.6732
X8.4826Y-4.037
X8.5Y-3.8976
X8.5Y-5.1339
X8.5276Y-4.037
X8.5335Y-4.3445
X8.5433Y-3.8976
X8.563Y-4.8228
X8.563Y-4.9213
X8.563Y-5.4134
X8.5726Y-4.037
X8.5827Y-4.5768
X8.6043Y-4.0669
X8.622Y-3.7106
X8.622Y-3.75
X8.626Y-4.3996
X8.6388Y-4.3632
X8.6614Y-3.937
X8.6614Y-4.9213
X8.6693Y-5.0079
X8.6929Y-4.689
X8.7205Y-4.2913
X8.7205Y-4.3307
X8.7244Y-4.7126
X8.752Y-3.5512
X8.7598Y-3.937
X8.7598Y-4.9252
X8.7598Y-5.2165
X8.7598Y-5.315
X8.7598Y-5.4134
X8.7598Y-5.5118
X8.7795Y-4.2165
X8.7992Y-4.9252
X8.8346Y-4.1693
X8.8583Y-4.626
X8.8583Y-4.7244
X8.8583Y-5.2165
X8.8583Y-5.315
X8.8622Y-4.8228
X8.8622Y-4.8622
X8.9567Y-3.7402
X8.9567Y-3.937
X8.9567Y-4.3307
X9.0551Y-3.7402
X9.0551Y-3.937
X9.0551Y-4.3307
X9.1024Y-4.7087
X9.1024Y-5.1969
X9.1102Y-4.126
X9.1142Y-4.5315
X9.1535Y-3.6417
X9.1535Y-3.7402
X9.1535Y-4.0354
X9.1535Y-4.4291
T3
X3.7677Y-5.1142
X4.1339Y-4.9016
X4.4173Y-3.8307
X4.5236Y-3.811
X4.5787Y-4.0906
X4.6299Y-3.8386
X4.7441Y-5.0748
X4.9179Y-4.8459
X5.0394Y-3.9764
X5.0945Y-4.1614
X5.2362Y-4.8504
X5.4213Y-5.1142
X5.4364Y-3.9758
X5.4862Y-5.1476
X5.5118Y-4.0945
X5.815Y-4.2323
X5.8392Y-3.9758
X5.8504Y-4.8425
X5.9488Y-4.2795
X6.0157Y-4.0945
X6.1535Y-5.122
X6.2598Y-4.0118
X6.2795Y-5.122
X6.3425Y-4.0906
X6.752Y-4.311
X6.8465Y-3.9094
X6.9213Y-5.374
X6.9488Y-3.9921
X6.9528Y-4.7008
X7.0315Y-5.374
X7.0591Y-5.1732
X7.3386Y-5.4961
X7.3386Y-5.5787
X7.4665Y-5.25
X7.467Y-5.3031
X7.5288Y-5.3031
X7.5472Y-5.4961
X7.5472Y-5.5787
X7.552Y-5.252
X7.5591Y-4.8425
X7.5591Y-4.9618
X7.5591Y-5.0157
X7.5591Y-5.0717
X7.5906Y-5.3031
X7.612Y-4.844
X7.612Y-4.9025
X7.612Y-4.961
X7.7402Y-4.9921
X7.7402Y-5.0354
X7.7402Y-5.0787
X7.7402Y-5.126
X7.9764Y-4.9016
X7.9764Y-4.9449
X7.9764Y-4.9921
X8.0039Y-5.315
X8.0236Y-4.9016
X8.0709Y-4.9016
X8.1299Y-4.8228
X8.1535Y-5.0118
X8.1535Y-5.063
X8.1535Y-5.1181
X8.2323Y-5.063
X8.2323Y-5.1181
X8.2323Y-5.189
X8.3504Y-4.8189
X8.3583Y-4.6417
X8.5335Y-4.3898
X8.5531Y-4.5472
X8.626Y-5.0079
X8.7795Y-4.1732
X8.8346Y-3.5709
T5
X3.2283Y-3.6358
X3.2283Y-3.8917
X3.661Y-3.5906
X3.961Y-3.5906
T6
X3.1299Y-3.7638
X3.3268Y-3.7638
T7
X3.1417Y-4.4961
X3.1417Y-4.5961
X3.1417Y-4.6961
X3.1417Y-4.7961
X6.8575Y-3.8189
X6.9575Y-3.8189
X7.0575Y-3.8189
X7.1575Y-3.8189
T8
X4.4587Y-3.3071
X4.4587Y-5.4843
X5.1083Y-3.3071
X5.1083Y-5.4843
X5.7579Y-3.3071
X5.7579Y-5.4843
X6.4075Y-3.3071
X6.4075Y-5.4843
T9
X3.0709Y-3.3465
X3.0709Y-5.4724
X9.0157Y-3.3465
X9.0157Y-5.4724
T4
G00X8.938Y-4.7862
M15
G01X8.9813Y-4.7862
M16
G05
G00X8.938Y-5.1264
M15
G01X8.9813Y-5.1264
M16
G05
G00X9.1085Y-4.7862
M15
G01X9.14Y-4.7862
M16
G05
G00X9.1085Y-5.1264
M15
G01X9.14Y-5.1264
M16
G05
T0
M30
