%TF.GenerationSoftware,KiCad,Pcbnew,7.0.9*%
%TF.CreationDate,2024-02-17T00:35:01+08:00*%
%TF.ProjectId,AlarmClockProjV1,416c6172-6d43-46c6-9f63-6b50726f6a56,rev?*%
%TF.SameCoordinates,Original*%
%TF.FileFunction,Soldermask,Top*%
%TF.FilePolarity,Negative*%
%FSLAX46Y46*%
G04 Gerber Fmt 4.6, Leading zero omitted, Abs format (unit mm)*
G04 Created by KiCad (PCBNEW 7.0.9) date 2024-02-17 00:35:01*
%MOMM*%
%LPD*%
G01*
G04 APERTURE LIST*
G04 Aperture macros list*
%AMRoundRect*
0 Rectangle with rounded corners*
0 $1 Rounding radius*
0 $2 $3 $4 $5 $6 $7 $8 $9 X,Y pos of 4 corners*
0 Add a 4 corners polygon primitive as box body*
4,1,4,$2,$3,$4,$5,$6,$7,$8,$9,$2,$3,0*
0 Add four circle primitives for the rounded corners*
1,1,$1+$1,$2,$3*
1,1,$1+$1,$4,$5*
1,1,$1+$1,$6,$7*
1,1,$1+$1,$8,$9*
0 Add four rect primitives between the rounded corners*
20,1,$1+$1,$2,$3,$4,$5,0*
20,1,$1+$1,$4,$5,$6,$7,0*
20,1,$1+$1,$6,$7,$8,$9,0*
20,1,$1+$1,$8,$9,$2,$3,0*%
%AMFreePoly0*
4,1,19,0.500000,-0.750000,0.000000,-0.750000,0.000000,-0.744911,-0.071157,-0.744911,-0.207708,-0.704816,-0.327430,-0.627875,-0.420627,-0.520320,-0.479746,-0.390866,-0.500000,-0.250000,-0.500000,0.250000,-0.479746,0.390866,-0.420627,0.520320,-0.327430,0.627875,-0.207708,0.704816,-0.071157,0.744911,0.000000,0.744911,0.000000,0.750000,0.500000,0.750000,0.500000,-0.750000,0.500000,-0.750000,
$1*%
%AMFreePoly1*
4,1,19,0.000000,0.744911,0.071157,0.744911,0.207708,0.704816,0.327430,0.627875,0.420627,0.520320,0.479746,0.390866,0.500000,0.250000,0.500000,-0.250000,0.479746,-0.390866,0.420627,-0.520320,0.327430,-0.627875,0.207708,-0.704816,0.071157,-0.744911,0.000000,-0.744911,0.000000,-0.750000,-0.500000,-0.750000,-0.500000,0.750000,0.000000,0.750000,0.000000,0.744911,0.000000,0.744911,
$1*%
G04 Aperture macros list end*
%ADD10C,1.350000*%
%ADD11RoundRect,0.225000X0.225000X0.250000X-0.225000X0.250000X-0.225000X-0.250000X0.225000X-0.250000X0*%
%ADD12RoundRect,0.135000X0.135000X0.185000X-0.135000X0.185000X-0.135000X-0.185000X0.135000X-0.185000X0*%
%ADD13R,1.700000X1.700000*%
%ADD14O,1.700000X1.700000*%
%ADD15RoundRect,0.135000X-0.185000X0.135000X-0.185000X-0.135000X0.185000X-0.135000X0.185000X0.135000X0*%
%ADD16RoundRect,0.135000X0.185000X-0.135000X0.185000X0.135000X-0.185000X0.135000X-0.185000X-0.135000X0*%
%ADD17R,0.700000X0.700000*%
%ADD18RoundRect,0.150000X-0.150000X0.512500X-0.150000X-0.512500X0.150000X-0.512500X0.150000X0.512500X0*%
%ADD19RoundRect,0.225000X0.250000X-0.225000X0.250000X0.225000X-0.250000X0.225000X-0.250000X-0.225000X0*%
%ADD20R,1.150000X0.900000*%
%ADD21RoundRect,0.140000X-0.170000X0.140000X-0.170000X-0.140000X0.170000X-0.140000X0.170000X0.140000X0*%
%ADD22C,3.600000*%
%ADD23C,6.400000*%
%ADD24RoundRect,0.140000X-0.140000X-0.170000X0.140000X-0.170000X0.140000X0.170000X-0.140000X0.170000X0*%
%ADD25RoundRect,0.218750X-0.218750X-0.256250X0.218750X-0.256250X0.218750X0.256250X-0.218750X0.256250X0*%
%ADD26C,0.650000*%
%ADD27RoundRect,0.150000X0.425000X-0.150000X0.425000X0.150000X-0.425000X0.150000X-0.425000X-0.150000X0*%
%ADD28RoundRect,0.075000X0.500000X-0.075000X0.500000X0.075000X-0.500000X0.075000X-0.500000X-0.075000X0*%
%ADD29O,2.100000X1.000000*%
%ADD30O,1.800000X1.000000*%
%ADD31RoundRect,0.135000X-0.135000X-0.185000X0.135000X-0.185000X0.135000X0.185000X-0.135000X0.185000X0*%
%ADD32RoundRect,0.150000X0.587500X0.150000X-0.587500X0.150000X-0.587500X-0.150000X0.587500X-0.150000X0*%
%ADD33R,1.500000X0.900000*%
%ADD34R,0.900000X1.500000*%
%ADD35R,0.900000X0.900000*%
%ADD36C,1.600000*%
%ADD37O,1.600000X1.600000*%
%ADD38R,2.500000X2.500000*%
%ADD39FreePoly0,0.000000*%
%ADD40FreePoly1,0.000000*%
%ADD41R,1.000000X3.150000*%
%ADD42R,3.500000X1.600000*%
%ADD43RoundRect,0.225000X-0.250000X0.225000X-0.250000X-0.225000X0.250000X-0.225000X0.250000X0.225000X0*%
%ADD44R,0.700000X0.340000*%
%ADD45RoundRect,0.140000X0.140000X0.170000X-0.140000X0.170000X-0.140000X-0.170000X0.140000X-0.170000X0*%
%ADD46RoundRect,0.218750X0.218750X0.256250X-0.218750X0.256250X-0.218750X-0.256250X0.218750X-0.256250X0*%
%ADD47R,1.550000X0.700000*%
%ADD48RoundRect,0.250000X-0.250000X-0.475000X0.250000X-0.475000X0.250000X0.475000X-0.250000X0.475000X0*%
%ADD49RoundRect,0.250000X0.250000X0.475000X-0.250000X0.475000X-0.250000X-0.475000X0.250000X-0.475000X0*%
%ADD50R,0.600000X0.300000*%
%ADD51R,0.300000X0.600000*%
%ADD52R,1.400000X0.700000*%
%ADD53RoundRect,0.225000X-0.225000X-0.375000X0.225000X-0.375000X0.225000X0.375000X-0.225000X0.375000X0*%
%ADD54C,2.300000*%
G04 APERTURE END LIST*
D10*
%TO.C,LS401*%
X79500000Y-95600000D03*
X84500000Y-95600000D03*
%TD*%
D11*
%TO.C,C301*%
X216875000Y-96600000D03*
X215325000Y-96600000D03*
%TD*%
D12*
%TO.C,R305*%
X216910000Y-97900000D03*
X215890000Y-97900000D03*
%TD*%
D13*
%TO.C,J301*%
X181800000Y-97000000D03*
D14*
X179260000Y-97000000D03*
X176720000Y-97000000D03*
X174180000Y-97000000D03*
%TD*%
D15*
%TO.C,R207*%
X185089800Y-95197200D03*
X185089800Y-96217200D03*
%TD*%
D12*
%TO.C,R405*%
X89710000Y-91200000D03*
X88690000Y-91200000D03*
%TD*%
D16*
%TO.C,R404*%
X168300000Y-129200000D03*
X168300000Y-128180000D03*
%TD*%
D17*
%TO.C,D401*%
X167835000Y-124550000D03*
X167835000Y-125650000D03*
X169665000Y-125650000D03*
X169665000Y-124550000D03*
%TD*%
D15*
%TO.C,R406*%
X190700000Y-132290000D03*
X190700000Y-133310000D03*
%TD*%
D17*
%TO.C,D422*%
X107585000Y-124550000D03*
X107585000Y-125650000D03*
X109415000Y-125650000D03*
X109415000Y-124550000D03*
%TD*%
D12*
%TO.C,R303*%
X216010000Y-112600000D03*
X214990000Y-112600000D03*
%TD*%
D13*
%TO.C,J402*%
X79800000Y-114200000D03*
D14*
X79800000Y-116740000D03*
X79800000Y-119280000D03*
X79800000Y-121820000D03*
%TD*%
D17*
%TO.C,D406*%
X160350000Y-133815000D03*
X161450000Y-133815000D03*
X161450000Y-131985000D03*
X160350000Y-131985000D03*
%TD*%
D18*
%TO.C,U202*%
X205700000Y-129500000D03*
X204750000Y-129500000D03*
X203800000Y-129500000D03*
X203800000Y-131775000D03*
X205700000Y-131775000D03*
%TD*%
D19*
%TO.C,C404*%
X196200000Y-134975000D03*
X196200000Y-133425000D03*
%TD*%
D20*
%TO.C,SW402*%
X166445000Y-92550000D03*
X162495000Y-92550000D03*
X166445000Y-91050000D03*
X162495000Y-91050000D03*
%TD*%
D17*
%TO.C,D403*%
X160450000Y-102815000D03*
X161550000Y-102815000D03*
X161550000Y-100985000D03*
X160450000Y-100985000D03*
%TD*%
D15*
%TO.C,R208*%
X201500000Y-113990000D03*
X201500000Y-115010000D03*
%TD*%
D17*
%TO.C,D417*%
X123450000Y-110515000D03*
X124550000Y-110515000D03*
X124550000Y-108685000D03*
X123450000Y-108685000D03*
%TD*%
D21*
%TO.C,C201*%
X186625000Y-89870000D03*
X186625000Y-90830000D03*
%TD*%
D22*
%TO.C,H103*%
X78000000Y-85000000D03*
D23*
X78000000Y-85000000D03*
%TD*%
D17*
%TO.C,D404*%
X152650000Y-110515000D03*
X153750000Y-110515000D03*
X153750000Y-108685000D03*
X152650000Y-108685000D03*
%TD*%
D24*
%TO.C,C305*%
X213170000Y-116850000D03*
X214130000Y-116850000D03*
%TD*%
D17*
%TO.C,D426*%
X86850000Y-110515000D03*
X87950000Y-110515000D03*
X87950000Y-108685000D03*
X86850000Y-108685000D03*
%TD*%
%TO.C,D413*%
X139350000Y-133815000D03*
X140450000Y-133815000D03*
X140450000Y-131985000D03*
X139350000Y-131985000D03*
%TD*%
D20*
%TO.C,SW201*%
X226225000Y-103250000D03*
X230175000Y-103250000D03*
X226225000Y-104750000D03*
X230175000Y-104750000D03*
%TD*%
D17*
%TO.C,D427*%
X96115000Y-117950000D03*
X96115000Y-116850000D03*
X94285000Y-116850000D03*
X94285000Y-117950000D03*
%TD*%
%TO.C,D409*%
X147150000Y-110515000D03*
X148250000Y-110515000D03*
X148250000Y-108685000D03*
X147150000Y-108685000D03*
%TD*%
%TO.C,D420*%
X117115000Y-117950000D03*
X117115000Y-116850000D03*
X115285000Y-116850000D03*
X115285000Y-117950000D03*
%TD*%
%TO.C,D425*%
X94650000Y-102815000D03*
X95750000Y-102815000D03*
X95750000Y-100985000D03*
X94650000Y-100985000D03*
%TD*%
D25*
%TO.C,D203*%
X202912500Y-116490000D03*
X204487500Y-116490000D03*
%TD*%
D17*
%TO.C,D416*%
X123085000Y-124550000D03*
X123085000Y-125650000D03*
X124915000Y-125650000D03*
X124915000Y-124550000D03*
%TD*%
%TO.C,D407*%
X152285000Y-124550000D03*
X152285000Y-125650000D03*
X154115000Y-125650000D03*
X154115000Y-124550000D03*
%TD*%
D26*
%TO.C,J206*%
X228075000Y-128780000D03*
X228075000Y-123000000D03*
D27*
X227000000Y-129090000D03*
X227000000Y-128290000D03*
D28*
X227000000Y-127140000D03*
X227000000Y-126140000D03*
X227000000Y-125640000D03*
X227000000Y-124640000D03*
D27*
X227000000Y-123490000D03*
X227000000Y-122690000D03*
X227000000Y-122690000D03*
X227000000Y-123490000D03*
D28*
X227000000Y-124140000D03*
X227000000Y-125140000D03*
X227000000Y-126640000D03*
X227000000Y-127640000D03*
D27*
X227000000Y-128290000D03*
X227000000Y-129090000D03*
D29*
X227575000Y-130210000D03*
D30*
X231755000Y-130210000D03*
D29*
X227575000Y-121570000D03*
D30*
X231755000Y-121570000D03*
%TD*%
D31*
%TO.C,R210*%
X229280000Y-131690000D03*
X230300000Y-131690000D03*
%TD*%
D32*
%TO.C,Q201*%
X210942500Y-128500000D03*
X212817500Y-129450000D03*
X212817500Y-127550000D03*
%TD*%
D33*
%TO.C,U201*%
X189000000Y-89690000D03*
X189000000Y-90960000D03*
X189000000Y-92230000D03*
X189000000Y-93500000D03*
X189000000Y-94770000D03*
X189000000Y-96040000D03*
X189000000Y-97310000D03*
X189000000Y-98580000D03*
X189000000Y-99850000D03*
X189000000Y-101120000D03*
X189000000Y-102390000D03*
X189000000Y-103660000D03*
X189000000Y-104930000D03*
X189000000Y-106200000D03*
D34*
X190765000Y-107450000D03*
X192035000Y-107450000D03*
X193305000Y-107450000D03*
X194575000Y-107450000D03*
X195845000Y-107450000D03*
X197115000Y-107450000D03*
X198385000Y-107450000D03*
X199655000Y-107450000D03*
X200925000Y-107450000D03*
X202195000Y-107450000D03*
X203465000Y-107450000D03*
X204735000Y-107450000D03*
D33*
X206500000Y-106200000D03*
X206500000Y-104930000D03*
X206500000Y-103660000D03*
X206500000Y-102390000D03*
X206500000Y-101120000D03*
X206500000Y-99850000D03*
X206500000Y-98580000D03*
X206500000Y-97310000D03*
X206500000Y-96040000D03*
X206500000Y-94770000D03*
X206500000Y-93500000D03*
X206500000Y-92230000D03*
X206500000Y-90960000D03*
X206500000Y-89690000D03*
D35*
X196250000Y-97410000D03*
X196250000Y-96010000D03*
X194850000Y-96010000D03*
X194850000Y-97410000D03*
X194850000Y-98810000D03*
X196250000Y-98810000D03*
X197650000Y-98810000D03*
X197650000Y-97410000D03*
X197650000Y-96010000D03*
%TD*%
D36*
%TO.C,R410*%
X100610000Y-91200000D03*
D37*
X92990000Y-91200000D03*
%TD*%
D16*
%TO.C,R403*%
X169400000Y-129210000D03*
X169400000Y-128190000D03*
%TD*%
D38*
%TO.C,TP201*%
X196500000Y-140500000D03*
%TD*%
D10*
%TO.C,LS402*%
X82000000Y-92350000D03*
X82000000Y-98850000D03*
%TD*%
D17*
%TO.C,D424*%
X102450000Y-110515000D03*
X103550000Y-110515000D03*
X103550000Y-108685000D03*
X102450000Y-108685000D03*
%TD*%
D39*
%TO.C,JP401*%
X96250000Y-95600000D03*
D40*
X97550000Y-95600000D03*
%TD*%
D17*
%TO.C,D405*%
X161915000Y-117950000D03*
X161915000Y-116850000D03*
X160085000Y-116850000D03*
X160085000Y-117950000D03*
%TD*%
D22*
%TO.C,H102*%
X78000000Y-139000000D03*
D23*
X78000000Y-139000000D03*
%TD*%
D41*
%TO.C,J201*%
X127030000Y-94325000D03*
X127030000Y-89275000D03*
X129570000Y-94325000D03*
X129570000Y-89275000D03*
X132110000Y-94325000D03*
X132110000Y-89275000D03*
X134650000Y-94325000D03*
X134650000Y-89275000D03*
X137190000Y-94325000D03*
X137190000Y-89275000D03*
X139730000Y-94325000D03*
X139730000Y-89275000D03*
X142270000Y-94325000D03*
X142270000Y-89275000D03*
X144810000Y-94325000D03*
X144810000Y-89275000D03*
X147350000Y-94325000D03*
X147350000Y-89275000D03*
X149890000Y-94325000D03*
X149890000Y-89275000D03*
X152430000Y-94325000D03*
X152430000Y-89275000D03*
X154970000Y-94325000D03*
X154970000Y-89275000D03*
%TD*%
D15*
%TO.C,R401*%
X109650000Y-95690000D03*
X109650000Y-96710000D03*
%TD*%
D17*
%TO.C,D410*%
X139350000Y-102815000D03*
X140450000Y-102815000D03*
X140450000Y-100985000D03*
X139350000Y-100985000D03*
%TD*%
D42*
%TO.C,L401*%
X188200000Y-127010000D03*
X188200000Y-130210000D03*
%TD*%
D11*
%TO.C,C403*%
X194975000Y-129700000D03*
X193425000Y-129700000D03*
%TD*%
D16*
%TO.C,R201*%
X223000000Y-104285000D03*
X223000000Y-103265000D03*
%TD*%
D38*
%TO.C,TP401*%
X102000000Y-95600000D03*
%TD*%
D15*
%TO.C,R203*%
X214900000Y-129390000D03*
X214900000Y-130410000D03*
%TD*%
D12*
%TO.C,R302*%
X215210000Y-110600000D03*
X214190000Y-110600000D03*
%TD*%
D43*
%TO.C,C203*%
X224400000Y-103225000D03*
X224400000Y-104775000D03*
%TD*%
D22*
%TO.C,H104*%
X229000000Y-139000000D03*
D23*
X229000000Y-139000000D03*
%TD*%
D44*
%TO.C,U401*%
X193325000Y-132070000D03*
X193325000Y-131570000D03*
X193325000Y-131070000D03*
X191825000Y-131070000D03*
X191825000Y-131570000D03*
X191825000Y-132070000D03*
%TD*%
D45*
%TO.C,C205*%
X205680000Y-127837500D03*
X204720000Y-127837500D03*
%TD*%
D12*
%TO.C,R408*%
X193910000Y-133410000D03*
X192890000Y-133410000D03*
%TD*%
D17*
%TO.C,D421*%
X115650000Y-133815000D03*
X116750000Y-133815000D03*
X116750000Y-131985000D03*
X115650000Y-131985000D03*
%TD*%
D25*
%TO.C,D204*%
X202962500Y-114750000D03*
X204537500Y-114750000D03*
%TD*%
D22*
%TO.C,H101*%
X229000000Y-85000000D03*
D23*
X229000000Y-85000000D03*
%TD*%
D17*
%TO.C,D411*%
X131650000Y-110515000D03*
X132750000Y-110515000D03*
X132750000Y-108685000D03*
X131650000Y-108685000D03*
%TD*%
%TO.C,D402*%
X169300000Y-108685000D03*
X168200000Y-108685000D03*
X168200000Y-110515000D03*
X169300000Y-110515000D03*
%TD*%
D46*
%TO.C,D430*%
X187500000Y-120800000D03*
X185925000Y-120800000D03*
%TD*%
D38*
%TO.C,TP403*%
X177400000Y-140500000D03*
%TD*%
D20*
%TO.C,SW202*%
X226225000Y-113000000D03*
X230175000Y-113000000D03*
X226225000Y-114500000D03*
X230175000Y-114500000D03*
%TD*%
D38*
%TO.C,TP402*%
X91800000Y-95600000D03*
%TD*%
D47*
%TO.C,U301*%
X222325000Y-94905000D03*
X222325000Y-93635000D03*
X222325000Y-92365000D03*
X222325000Y-91095000D03*
X216875000Y-91095000D03*
X216875000Y-92365000D03*
X216875000Y-93635000D03*
X216875000Y-94905000D03*
%TD*%
D16*
%TO.C,R402*%
X110850000Y-96710000D03*
X110850000Y-95690000D03*
%TD*%
D48*
%TO.C,C405*%
X190050000Y-124500000D03*
X191950000Y-124500000D03*
%TD*%
D16*
%TO.C,R407*%
X194900000Y-134410000D03*
X194900000Y-133390000D03*
%TD*%
D17*
%TO.C,D419*%
X107950000Y-110515000D03*
X109050000Y-110515000D03*
X109050000Y-108685000D03*
X107950000Y-108685000D03*
%TD*%
D20*
%TO.C,SW401*%
X120845000Y-92550000D03*
X116895000Y-92550000D03*
X120845000Y-91050000D03*
X116895000Y-91050000D03*
%TD*%
D17*
%TO.C,D423*%
X102085000Y-124550000D03*
X102085000Y-125650000D03*
X103915000Y-125650000D03*
X103915000Y-124550000D03*
%TD*%
%TO.C,D408*%
X146685000Y-124550000D03*
X146685000Y-125650000D03*
X148515000Y-125650000D03*
X148515000Y-124550000D03*
%TD*%
D43*
%TO.C,C207*%
X186639200Y-94627400D03*
X186639200Y-96177400D03*
%TD*%
%TO.C,C202*%
X185025000Y-89575000D03*
X185025000Y-91125000D03*
%TD*%
D31*
%TO.C,R301*%
X211290000Y-110600000D03*
X212310000Y-110600000D03*
%TD*%
D17*
%TO.C,D429*%
X86585000Y-124550000D03*
X86585000Y-125650000D03*
X88415000Y-125650000D03*
X88415000Y-124550000D03*
%TD*%
D31*
%TO.C,R209*%
X229280000Y-120090000D03*
X230300000Y-120090000D03*
%TD*%
D17*
%TO.C,D415*%
X127185000Y-116850000D03*
X127185000Y-117950000D03*
X129015000Y-117950000D03*
X129015000Y-116850000D03*
%TD*%
D15*
%TO.C,R204*%
X202312500Y-121890000D03*
X202312500Y-122910000D03*
%TD*%
D49*
%TO.C,C206*%
X206150000Y-126237500D03*
X204250000Y-126237500D03*
%TD*%
D38*
%TO.C,TP202*%
X189000000Y-140500000D03*
%TD*%
D49*
%TO.C,C402*%
X195350000Y-127900000D03*
X193450000Y-127900000D03*
%TD*%
D15*
%TO.C,R205*%
X185089800Y-97280000D03*
X185089800Y-98300000D03*
%TD*%
D17*
%TO.C,D428*%
X94650000Y-133815000D03*
X95750000Y-133815000D03*
X95750000Y-131985000D03*
X94650000Y-131985000D03*
%TD*%
D49*
%TO.C,C204*%
X205950000Y-133700000D03*
X204050000Y-133700000D03*
%TD*%
D17*
%TO.C,D412*%
X140815000Y-117950000D03*
X140815000Y-116850000D03*
X138985000Y-116850000D03*
X138985000Y-117950000D03*
%TD*%
D16*
%TO.C,R202*%
X202450000Y-129510000D03*
X202450000Y-128490000D03*
%TD*%
D25*
%TO.C,D201*%
X203725000Y-122400000D03*
X205300000Y-122400000D03*
%TD*%
D15*
%TO.C,R304*%
X210650000Y-113940000D03*
X210650000Y-114960000D03*
%TD*%
D50*
%TO.C,U302*%
X212500000Y-113900000D03*
X212500000Y-114400000D03*
X212500000Y-114900000D03*
X212500000Y-115400000D03*
D51*
X213150000Y-115550000D03*
X213650000Y-115550000D03*
X214150000Y-115550000D03*
D50*
X214800000Y-115400000D03*
X214800000Y-114900000D03*
X214800000Y-114400000D03*
X214800000Y-113900000D03*
D51*
X214150000Y-113750000D03*
X213650000Y-113750000D03*
X213150000Y-113750000D03*
%TD*%
D17*
%TO.C,D418*%
X115650000Y-102815000D03*
X116750000Y-102815000D03*
X116750000Y-100985000D03*
X115650000Y-100985000D03*
%TD*%
D52*
%TO.C,Y301*%
X224500000Y-93600000D03*
X224500000Y-95100000D03*
%TD*%
D53*
%TO.C,D205*%
X214707500Y-127200000D03*
X218007500Y-127200000D03*
%TD*%
D32*
%TO.C,Q401*%
X105892500Y-95500000D03*
X107767500Y-96450000D03*
X107767500Y-94550000D03*
%TD*%
D16*
%TO.C,R206*%
X201500000Y-117260000D03*
X201500000Y-116240000D03*
%TD*%
D21*
%TO.C,C304*%
X216000000Y-115520000D03*
X216000000Y-116480000D03*
%TD*%
D17*
%TO.C,D414*%
X131185000Y-124550000D03*
X131185000Y-125650000D03*
X133015000Y-125650000D03*
X133015000Y-124550000D03*
%TD*%
D15*
%TO.C,R409*%
X188912500Y-120290000D03*
X188912500Y-121310000D03*
%TD*%
D53*
%TO.C,D202*%
X210350000Y-131925000D03*
X213650000Y-131925000D03*
%TD*%
D54*
%TO.C,J203*%
X146250000Y-84000000D03*
X146250000Y-139300000D03*
%TD*%
%TO.C,J205*%
X129750000Y-139300000D03*
X129750000Y-84000000D03*
%TD*%
%TO.C,J202*%
X162750000Y-139300000D03*
X162750000Y-84000000D03*
%TD*%
%TO.C,J204*%
X113250000Y-84000000D03*
X113250000Y-139300000D03*
%TD*%
M02*
