%TF.GenerationSoftware,KiCad,Pcbnew,7.0.9*%
%TF.CreationDate,2024-02-17T00:35:01+08:00*%
%TF.ProjectId,AlarmClockProjV1,416c6172-6d43-46c6-9f63-6b50726f6a56,rev?*%
%TF.SameCoordinates,Original*%
%TF.FileFunction,Legend,Bot*%
%TF.FilePolarity,Positive*%
%FSLAX46Y46*%
G04 Gerber Fmt 4.6, Leading zero omitted, Abs format (unit mm)*
G04 Created by KiCad (PCBNEW 7.0.9) date 2024-02-17 00:35:01*
%MOMM*%
%LPD*%
G01*
G04 APERTURE LIST*
%ADD10C,0.150000*%
%ADD11C,0.200000*%
%ADD12C,0.300000*%
%ADD13C,0.400000*%
%ADD14C,0.120000*%
%ADD15C,1.350000*%
%ADD16R,1.700000X1.700000*%
%ADD17O,1.700000X1.700000*%
%ADD18C,3.600000*%
%ADD19C,6.400000*%
%ADD20C,0.650000*%
%ADD21O,2.100000X1.000000*%
%ADD22O,1.800000X1.000000*%
%ADD23C,1.600000*%
%ADD24O,1.600000X1.600000*%
%ADD25C,2.300000*%
%ADD26R,2.500000X2.500000*%
G04 APERTURE END LIST*
D10*
X181377506Y-90269819D02*
X181377506Y-90984104D01*
X181377506Y-90984104D02*
X181425125Y-91126961D01*
X181425125Y-91126961D02*
X181520363Y-91222200D01*
X181520363Y-91222200D02*
X181663220Y-91269819D01*
X181663220Y-91269819D02*
X181758458Y-91269819D01*
X180425125Y-91269819D02*
X180901315Y-91269819D01*
X180901315Y-91269819D02*
X180901315Y-90269819D01*
X179520363Y-91174580D02*
X179567982Y-91222200D01*
X179567982Y-91222200D02*
X179710839Y-91269819D01*
X179710839Y-91269819D02*
X179806077Y-91269819D01*
X179806077Y-91269819D02*
X179948934Y-91222200D01*
X179948934Y-91222200D02*
X180044172Y-91126961D01*
X180044172Y-91126961D02*
X180091791Y-91031723D01*
X180091791Y-91031723D02*
X180139410Y-90841247D01*
X180139410Y-90841247D02*
X180139410Y-90698390D01*
X180139410Y-90698390D02*
X180091791Y-90507914D01*
X180091791Y-90507914D02*
X180044172Y-90412676D01*
X180044172Y-90412676D02*
X179948934Y-90317438D01*
X179948934Y-90317438D02*
X179806077Y-90269819D01*
X179806077Y-90269819D02*
X179710839Y-90269819D01*
X179710839Y-90269819D02*
X179567982Y-90317438D01*
X179567982Y-90317438D02*
X179520363Y-90365057D01*
X178806077Y-90269819D02*
X178806077Y-90984104D01*
X178806077Y-90984104D02*
X178853696Y-91126961D01*
X178853696Y-91126961D02*
X178948934Y-91222200D01*
X178948934Y-91222200D02*
X179091791Y-91269819D01*
X179091791Y-91269819D02*
X179187029Y-91269819D01*
X177853696Y-91269819D02*
X178329886Y-91269819D01*
X178329886Y-91269819D02*
X178329886Y-90269819D01*
X176948934Y-91174580D02*
X176996553Y-91222200D01*
X176996553Y-91222200D02*
X177139410Y-91269819D01*
X177139410Y-91269819D02*
X177234648Y-91269819D01*
X177234648Y-91269819D02*
X177377505Y-91222200D01*
X177377505Y-91222200D02*
X177472743Y-91126961D01*
X177472743Y-91126961D02*
X177520362Y-91031723D01*
X177520362Y-91031723D02*
X177567981Y-90841247D01*
X177567981Y-90841247D02*
X177567981Y-90698390D01*
X177567981Y-90698390D02*
X177520362Y-90507914D01*
X177520362Y-90507914D02*
X177472743Y-90412676D01*
X177472743Y-90412676D02*
X177377505Y-90317438D01*
X177377505Y-90317438D02*
X177234648Y-90269819D01*
X177234648Y-90269819D02*
X177139410Y-90269819D01*
X177139410Y-90269819D02*
X176996553Y-90317438D01*
X176996553Y-90317438D02*
X176948934Y-90365057D01*
X176234648Y-90269819D02*
X176234648Y-90984104D01*
X176234648Y-90984104D02*
X176282267Y-91126961D01*
X176282267Y-91126961D02*
X176377505Y-91222200D01*
X176377505Y-91222200D02*
X176520362Y-91269819D01*
X176520362Y-91269819D02*
X176615600Y-91269819D01*
X175282267Y-91269819D02*
X175758457Y-91269819D01*
X175758457Y-91269819D02*
X175758457Y-90269819D01*
X174377505Y-91174580D02*
X174425124Y-91222200D01*
X174425124Y-91222200D02*
X174567981Y-91269819D01*
X174567981Y-91269819D02*
X174663219Y-91269819D01*
X174663219Y-91269819D02*
X174806076Y-91222200D01*
X174806076Y-91222200D02*
X174901314Y-91126961D01*
X174901314Y-91126961D02*
X174948933Y-91031723D01*
X174948933Y-91031723D02*
X174996552Y-90841247D01*
X174996552Y-90841247D02*
X174996552Y-90698390D01*
X174996552Y-90698390D02*
X174948933Y-90507914D01*
X174948933Y-90507914D02*
X174901314Y-90412676D01*
X174901314Y-90412676D02*
X174806076Y-90317438D01*
X174806076Y-90317438D02*
X174663219Y-90269819D01*
X174663219Y-90269819D02*
X174567981Y-90269819D01*
X174567981Y-90269819D02*
X174425124Y-90317438D01*
X174425124Y-90317438D02*
X174377505Y-90365057D01*
X173663219Y-90269819D02*
X173663219Y-90984104D01*
X173663219Y-90984104D02*
X173710838Y-91126961D01*
X173710838Y-91126961D02*
X173806076Y-91222200D01*
X173806076Y-91222200D02*
X173948933Y-91269819D01*
X173948933Y-91269819D02*
X174044171Y-91269819D01*
X172710838Y-91269819D02*
X173187028Y-91269819D01*
X173187028Y-91269819D02*
X173187028Y-90269819D01*
X171806076Y-91174580D02*
X171853695Y-91222200D01*
X171853695Y-91222200D02*
X171996552Y-91269819D01*
X171996552Y-91269819D02*
X172091790Y-91269819D01*
X172091790Y-91269819D02*
X172234647Y-91222200D01*
X172234647Y-91222200D02*
X172329885Y-91126961D01*
X172329885Y-91126961D02*
X172377504Y-91031723D01*
X172377504Y-91031723D02*
X172425123Y-90841247D01*
X172425123Y-90841247D02*
X172425123Y-90698390D01*
X172425123Y-90698390D02*
X172377504Y-90507914D01*
X172377504Y-90507914D02*
X172329885Y-90412676D01*
X172329885Y-90412676D02*
X172234647Y-90317438D01*
X172234647Y-90317438D02*
X172091790Y-90269819D01*
X172091790Y-90269819D02*
X171996552Y-90269819D01*
X171996552Y-90269819D02*
X171853695Y-90317438D01*
X171853695Y-90317438D02*
X171806076Y-90365057D01*
D11*
X226563660Y-101117219D02*
X226896993Y-100641028D01*
X227135088Y-101117219D02*
X227135088Y-100117219D01*
X227135088Y-100117219D02*
X226754136Y-100117219D01*
X226754136Y-100117219D02*
X226658898Y-100164838D01*
X226658898Y-100164838D02*
X226611279Y-100212457D01*
X226611279Y-100212457D02*
X226563660Y-100307695D01*
X226563660Y-100307695D02*
X226563660Y-100450552D01*
X226563660Y-100450552D02*
X226611279Y-100545790D01*
X226611279Y-100545790D02*
X226658898Y-100593409D01*
X226658898Y-100593409D02*
X226754136Y-100641028D01*
X226754136Y-100641028D02*
X227135088Y-100641028D01*
X226277945Y-100117219D02*
X225706517Y-100117219D01*
X225992231Y-101117219D02*
X225992231Y-100117219D01*
X224801755Y-101021980D02*
X224849374Y-101069600D01*
X224849374Y-101069600D02*
X224992231Y-101117219D01*
X224992231Y-101117219D02*
X225087469Y-101117219D01*
X225087469Y-101117219D02*
X225230326Y-101069600D01*
X225230326Y-101069600D02*
X225325564Y-100974361D01*
X225325564Y-100974361D02*
X225373183Y-100879123D01*
X225373183Y-100879123D02*
X225420802Y-100688647D01*
X225420802Y-100688647D02*
X225420802Y-100545790D01*
X225420802Y-100545790D02*
X225373183Y-100355314D01*
X225373183Y-100355314D02*
X225325564Y-100260076D01*
X225325564Y-100260076D02*
X225230326Y-100164838D01*
X225230326Y-100164838D02*
X225087469Y-100117219D01*
X225087469Y-100117219D02*
X224992231Y-100117219D01*
X224992231Y-100117219D02*
X224849374Y-100164838D01*
X224849374Y-100164838D02*
X224801755Y-100212457D01*
X223611278Y-101117219D02*
X223611278Y-100117219D01*
X223135088Y-101117219D02*
X223135088Y-100117219D01*
X223135088Y-100117219D02*
X222563660Y-101117219D01*
X222563660Y-101117219D02*
X222563660Y-100117219D01*
X222230326Y-100117219D02*
X221658898Y-100117219D01*
X221944612Y-101117219D02*
X221944612Y-100117219D01*
D12*
X98528570Y-137778400D02*
X97157142Y-137778400D01*
X97842856Y-138464114D02*
X97842856Y-137092685D01*
X96299999Y-137778400D02*
X94928571Y-137778400D01*
X94071428Y-137778400D02*
X92700000Y-137778400D01*
X93385714Y-138464114D02*
X93385714Y-137092685D01*
X91842857Y-137778400D02*
X90471429Y-137778400D01*
X102085713Y-140521257D02*
X101828570Y-140606971D01*
X101828570Y-140606971D02*
X101742856Y-140692685D01*
X101742856Y-140692685D02*
X101657142Y-140864114D01*
X101657142Y-140864114D02*
X101657142Y-141121257D01*
X101657142Y-141121257D02*
X101742856Y-141292685D01*
X101742856Y-141292685D02*
X101828570Y-141378400D01*
X101828570Y-141378400D02*
X101999999Y-141464114D01*
X101999999Y-141464114D02*
X102685713Y-141464114D01*
X102685713Y-141464114D02*
X102685713Y-139664114D01*
X102685713Y-139664114D02*
X102085713Y-139664114D01*
X102085713Y-139664114D02*
X101914285Y-139749828D01*
X101914285Y-139749828D02*
X101828570Y-139835542D01*
X101828570Y-139835542D02*
X101742856Y-140006971D01*
X101742856Y-140006971D02*
X101742856Y-140178400D01*
X101742856Y-140178400D02*
X101828570Y-140349828D01*
X101828570Y-140349828D02*
X101914285Y-140435542D01*
X101914285Y-140435542D02*
X102085713Y-140521257D01*
X102085713Y-140521257D02*
X102685713Y-140521257D01*
X100114285Y-141464114D02*
X100114285Y-140521257D01*
X100114285Y-140521257D02*
X100199999Y-140349828D01*
X100199999Y-140349828D02*
X100371427Y-140264114D01*
X100371427Y-140264114D02*
X100714285Y-140264114D01*
X100714285Y-140264114D02*
X100885713Y-140349828D01*
X100114285Y-141378400D02*
X100285713Y-141464114D01*
X100285713Y-141464114D02*
X100714285Y-141464114D01*
X100714285Y-141464114D02*
X100885713Y-141378400D01*
X100885713Y-141378400D02*
X100971427Y-141206971D01*
X100971427Y-141206971D02*
X100971427Y-141035542D01*
X100971427Y-141035542D02*
X100885713Y-140864114D01*
X100885713Y-140864114D02*
X100714285Y-140778400D01*
X100714285Y-140778400D02*
X100285713Y-140778400D01*
X100285713Y-140778400D02*
X100114285Y-140692685D01*
X99514285Y-140264114D02*
X98828571Y-140264114D01*
X99257142Y-139664114D02*
X99257142Y-141206971D01*
X99257142Y-141206971D02*
X99171428Y-141378400D01*
X99171428Y-141378400D02*
X98999999Y-141464114D01*
X98999999Y-141464114D02*
X98828571Y-141464114D01*
X98485714Y-140264114D02*
X97800000Y-140264114D01*
X98228571Y-139664114D02*
X98228571Y-141206971D01*
X98228571Y-141206971D02*
X98142857Y-141378400D01*
X98142857Y-141378400D02*
X97971428Y-141464114D01*
X97971428Y-141464114D02*
X97800000Y-141464114D01*
X95828571Y-141464114D02*
X95828571Y-139664114D01*
X95828571Y-139664114D02*
X95142857Y-139664114D01*
X95142857Y-139664114D02*
X94971428Y-139749828D01*
X94971428Y-139749828D02*
X94885714Y-139835542D01*
X94885714Y-139835542D02*
X94800000Y-140006971D01*
X94800000Y-140006971D02*
X94800000Y-140264114D01*
X94800000Y-140264114D02*
X94885714Y-140435542D01*
X94885714Y-140435542D02*
X94971428Y-140521257D01*
X94971428Y-140521257D02*
X95142857Y-140606971D01*
X95142857Y-140606971D02*
X95828571Y-140606971D01*
X93771428Y-141464114D02*
X93942857Y-141378400D01*
X93942857Y-141378400D02*
X94028571Y-141292685D01*
X94028571Y-141292685D02*
X94114285Y-141121257D01*
X94114285Y-141121257D02*
X94114285Y-140606971D01*
X94114285Y-140606971D02*
X94028571Y-140435542D01*
X94028571Y-140435542D02*
X93942857Y-140349828D01*
X93942857Y-140349828D02*
X93771428Y-140264114D01*
X93771428Y-140264114D02*
X93514285Y-140264114D01*
X93514285Y-140264114D02*
X93342857Y-140349828D01*
X93342857Y-140349828D02*
X93257143Y-140435542D01*
X93257143Y-140435542D02*
X93171428Y-140606971D01*
X93171428Y-140606971D02*
X93171428Y-141121257D01*
X93171428Y-141121257D02*
X93257143Y-141292685D01*
X93257143Y-141292685D02*
X93342857Y-141378400D01*
X93342857Y-141378400D02*
X93514285Y-141464114D01*
X93514285Y-141464114D02*
X93771428Y-141464114D01*
X92142857Y-141464114D02*
X92314286Y-141378400D01*
X92314286Y-141378400D02*
X92400000Y-141206971D01*
X92400000Y-141206971D02*
X92400000Y-139664114D01*
X90685715Y-141464114D02*
X90685715Y-140521257D01*
X90685715Y-140521257D02*
X90771429Y-140349828D01*
X90771429Y-140349828D02*
X90942857Y-140264114D01*
X90942857Y-140264114D02*
X91285715Y-140264114D01*
X91285715Y-140264114D02*
X91457143Y-140349828D01*
X90685715Y-141378400D02*
X90857143Y-141464114D01*
X90857143Y-141464114D02*
X91285715Y-141464114D01*
X91285715Y-141464114D02*
X91457143Y-141378400D01*
X91457143Y-141378400D02*
X91542857Y-141206971D01*
X91542857Y-141206971D02*
X91542857Y-141035542D01*
X91542857Y-141035542D02*
X91457143Y-140864114D01*
X91457143Y-140864114D02*
X91285715Y-140778400D01*
X91285715Y-140778400D02*
X90857143Y-140778400D01*
X90857143Y-140778400D02*
X90685715Y-140692685D01*
X89828572Y-141464114D02*
X89828572Y-140264114D01*
X89828572Y-140606971D02*
X89742858Y-140435542D01*
X89742858Y-140435542D02*
X89657144Y-140349828D01*
X89657144Y-140349828D02*
X89485715Y-140264114D01*
X89485715Y-140264114D02*
X89314286Y-140264114D01*
X88714286Y-141464114D02*
X88714286Y-140264114D01*
X88714286Y-139664114D02*
X88800000Y-139749828D01*
X88800000Y-139749828D02*
X88714286Y-139835542D01*
X88714286Y-139835542D02*
X88628572Y-139749828D01*
X88628572Y-139749828D02*
X88714286Y-139664114D01*
X88714286Y-139664114D02*
X88714286Y-139835542D01*
X88114286Y-140264114D02*
X87428572Y-140264114D01*
X87857143Y-139664114D02*
X87857143Y-141206971D01*
X87857143Y-141206971D02*
X87771429Y-141378400D01*
X87771429Y-141378400D02*
X87600000Y-141464114D01*
X87600000Y-141464114D02*
X87428572Y-141464114D01*
X87000001Y-140264114D02*
X86571429Y-141464114D01*
X86142858Y-140264114D02*
X86571429Y-141464114D01*
X86571429Y-141464114D02*
X86742858Y-141892685D01*
X86742858Y-141892685D02*
X86828572Y-141978400D01*
X86828572Y-141978400D02*
X87000001Y-142064114D01*
X102085713Y-83821257D02*
X101828570Y-83906971D01*
X101828570Y-83906971D02*
X101742856Y-83992685D01*
X101742856Y-83992685D02*
X101657142Y-84164114D01*
X101657142Y-84164114D02*
X101657142Y-84421257D01*
X101657142Y-84421257D02*
X101742856Y-84592685D01*
X101742856Y-84592685D02*
X101828570Y-84678400D01*
X101828570Y-84678400D02*
X101999999Y-84764114D01*
X101999999Y-84764114D02*
X102685713Y-84764114D01*
X102685713Y-84764114D02*
X102685713Y-82964114D01*
X102685713Y-82964114D02*
X102085713Y-82964114D01*
X102085713Y-82964114D02*
X101914285Y-83049828D01*
X101914285Y-83049828D02*
X101828570Y-83135542D01*
X101828570Y-83135542D02*
X101742856Y-83306971D01*
X101742856Y-83306971D02*
X101742856Y-83478400D01*
X101742856Y-83478400D02*
X101828570Y-83649828D01*
X101828570Y-83649828D02*
X101914285Y-83735542D01*
X101914285Y-83735542D02*
X102085713Y-83821257D01*
X102085713Y-83821257D02*
X102685713Y-83821257D01*
X100114285Y-84764114D02*
X100114285Y-83821257D01*
X100114285Y-83821257D02*
X100199999Y-83649828D01*
X100199999Y-83649828D02*
X100371427Y-83564114D01*
X100371427Y-83564114D02*
X100714285Y-83564114D01*
X100714285Y-83564114D02*
X100885713Y-83649828D01*
X100114285Y-84678400D02*
X100285713Y-84764114D01*
X100285713Y-84764114D02*
X100714285Y-84764114D01*
X100714285Y-84764114D02*
X100885713Y-84678400D01*
X100885713Y-84678400D02*
X100971427Y-84506971D01*
X100971427Y-84506971D02*
X100971427Y-84335542D01*
X100971427Y-84335542D02*
X100885713Y-84164114D01*
X100885713Y-84164114D02*
X100714285Y-84078400D01*
X100714285Y-84078400D02*
X100285713Y-84078400D01*
X100285713Y-84078400D02*
X100114285Y-83992685D01*
X99514285Y-83564114D02*
X98828571Y-83564114D01*
X99257142Y-82964114D02*
X99257142Y-84506971D01*
X99257142Y-84506971D02*
X99171428Y-84678400D01*
X99171428Y-84678400D02*
X98999999Y-84764114D01*
X98999999Y-84764114D02*
X98828571Y-84764114D01*
X98485714Y-83564114D02*
X97800000Y-83564114D01*
X98228571Y-82964114D02*
X98228571Y-84506971D01*
X98228571Y-84506971D02*
X98142857Y-84678400D01*
X98142857Y-84678400D02*
X97971428Y-84764114D01*
X97971428Y-84764114D02*
X97800000Y-84764114D01*
X95828571Y-84764114D02*
X95828571Y-82964114D01*
X95828571Y-82964114D02*
X95142857Y-82964114D01*
X95142857Y-82964114D02*
X94971428Y-83049828D01*
X94971428Y-83049828D02*
X94885714Y-83135542D01*
X94885714Y-83135542D02*
X94800000Y-83306971D01*
X94800000Y-83306971D02*
X94800000Y-83564114D01*
X94800000Y-83564114D02*
X94885714Y-83735542D01*
X94885714Y-83735542D02*
X94971428Y-83821257D01*
X94971428Y-83821257D02*
X95142857Y-83906971D01*
X95142857Y-83906971D02*
X95828571Y-83906971D01*
X93771428Y-84764114D02*
X93942857Y-84678400D01*
X93942857Y-84678400D02*
X94028571Y-84592685D01*
X94028571Y-84592685D02*
X94114285Y-84421257D01*
X94114285Y-84421257D02*
X94114285Y-83906971D01*
X94114285Y-83906971D02*
X94028571Y-83735542D01*
X94028571Y-83735542D02*
X93942857Y-83649828D01*
X93942857Y-83649828D02*
X93771428Y-83564114D01*
X93771428Y-83564114D02*
X93514285Y-83564114D01*
X93514285Y-83564114D02*
X93342857Y-83649828D01*
X93342857Y-83649828D02*
X93257143Y-83735542D01*
X93257143Y-83735542D02*
X93171428Y-83906971D01*
X93171428Y-83906971D02*
X93171428Y-84421257D01*
X93171428Y-84421257D02*
X93257143Y-84592685D01*
X93257143Y-84592685D02*
X93342857Y-84678400D01*
X93342857Y-84678400D02*
X93514285Y-84764114D01*
X93514285Y-84764114D02*
X93771428Y-84764114D01*
X92142857Y-84764114D02*
X92314286Y-84678400D01*
X92314286Y-84678400D02*
X92400000Y-84506971D01*
X92400000Y-84506971D02*
X92400000Y-82964114D01*
X90685715Y-84764114D02*
X90685715Y-83821257D01*
X90685715Y-83821257D02*
X90771429Y-83649828D01*
X90771429Y-83649828D02*
X90942857Y-83564114D01*
X90942857Y-83564114D02*
X91285715Y-83564114D01*
X91285715Y-83564114D02*
X91457143Y-83649828D01*
X90685715Y-84678400D02*
X90857143Y-84764114D01*
X90857143Y-84764114D02*
X91285715Y-84764114D01*
X91285715Y-84764114D02*
X91457143Y-84678400D01*
X91457143Y-84678400D02*
X91542857Y-84506971D01*
X91542857Y-84506971D02*
X91542857Y-84335542D01*
X91542857Y-84335542D02*
X91457143Y-84164114D01*
X91457143Y-84164114D02*
X91285715Y-84078400D01*
X91285715Y-84078400D02*
X90857143Y-84078400D01*
X90857143Y-84078400D02*
X90685715Y-83992685D01*
X89828572Y-84764114D02*
X89828572Y-83564114D01*
X89828572Y-83906971D02*
X89742858Y-83735542D01*
X89742858Y-83735542D02*
X89657144Y-83649828D01*
X89657144Y-83649828D02*
X89485715Y-83564114D01*
X89485715Y-83564114D02*
X89314286Y-83564114D01*
X88714286Y-84764114D02*
X88714286Y-83564114D01*
X88714286Y-82964114D02*
X88800000Y-83049828D01*
X88800000Y-83049828D02*
X88714286Y-83135542D01*
X88714286Y-83135542D02*
X88628572Y-83049828D01*
X88628572Y-83049828D02*
X88714286Y-82964114D01*
X88714286Y-82964114D02*
X88714286Y-83135542D01*
X88114286Y-83564114D02*
X87428572Y-83564114D01*
X87857143Y-82964114D02*
X87857143Y-84506971D01*
X87857143Y-84506971D02*
X87771429Y-84678400D01*
X87771429Y-84678400D02*
X87600000Y-84764114D01*
X87600000Y-84764114D02*
X87428572Y-84764114D01*
X87000001Y-83564114D02*
X86571429Y-84764114D01*
X86142858Y-83564114D02*
X86571429Y-84764114D01*
X86571429Y-84764114D02*
X86742858Y-85192685D01*
X86742858Y-85192685D02*
X86828572Y-85278400D01*
X86828572Y-85278400D02*
X87000001Y-85364114D01*
D11*
X227563659Y-118117219D02*
X227563659Y-117117219D01*
X227087469Y-118117219D02*
X227087469Y-117117219D01*
X227087469Y-117117219D02*
X226754136Y-117831504D01*
X226754136Y-117831504D02*
X226420803Y-117117219D01*
X226420803Y-117117219D02*
X226420803Y-118117219D01*
X225944612Y-117117219D02*
X225944612Y-117926742D01*
X225944612Y-117926742D02*
X225896993Y-118021980D01*
X225896993Y-118021980D02*
X225849374Y-118069600D01*
X225849374Y-118069600D02*
X225754136Y-118117219D01*
X225754136Y-118117219D02*
X225563660Y-118117219D01*
X225563660Y-118117219D02*
X225468422Y-118069600D01*
X225468422Y-118069600D02*
X225420803Y-118021980D01*
X225420803Y-118021980D02*
X225373184Y-117926742D01*
X225373184Y-117926742D02*
X225373184Y-117117219D01*
X224135088Y-118117219D02*
X224135088Y-117117219D01*
X223658898Y-118117219D02*
X223658898Y-117117219D01*
X223658898Y-117117219D02*
X223087470Y-118117219D01*
X223087470Y-118117219D02*
X223087470Y-117117219D01*
X222754136Y-117117219D02*
X222182708Y-117117219D01*
X222468422Y-118117219D02*
X222468422Y-117117219D01*
X221325565Y-118117219D02*
X221896993Y-118117219D01*
X221611279Y-118117219D02*
X221611279Y-117117219D01*
X221611279Y-117117219D02*
X221706517Y-117260076D01*
X221706517Y-117260076D02*
X221801755Y-117355314D01*
X221801755Y-117355314D02*
X221896993Y-117402933D01*
D12*
X221559774Y-134082400D02*
X221302632Y-134168114D01*
X221302632Y-134168114D02*
X220874060Y-134168114D01*
X220874060Y-134168114D02*
X220702632Y-134082400D01*
X220702632Y-134082400D02*
X220616917Y-133996685D01*
X220616917Y-133996685D02*
X220531203Y-133825257D01*
X220531203Y-133825257D02*
X220531203Y-133653828D01*
X220531203Y-133653828D02*
X220616917Y-133482400D01*
X220616917Y-133482400D02*
X220702632Y-133396685D01*
X220702632Y-133396685D02*
X220874060Y-133310971D01*
X220874060Y-133310971D02*
X221216917Y-133225257D01*
X221216917Y-133225257D02*
X221388346Y-133139542D01*
X221388346Y-133139542D02*
X221474060Y-133053828D01*
X221474060Y-133053828D02*
X221559774Y-132882400D01*
X221559774Y-132882400D02*
X221559774Y-132710971D01*
X221559774Y-132710971D02*
X221474060Y-132539542D01*
X221474060Y-132539542D02*
X221388346Y-132453828D01*
X221388346Y-132453828D02*
X221216917Y-132368114D01*
X221216917Y-132368114D02*
X220788346Y-132368114D01*
X220788346Y-132368114D02*
X220531203Y-132453828D01*
X218988346Y-134168114D02*
X218988346Y-133225257D01*
X218988346Y-133225257D02*
X219074060Y-133053828D01*
X219074060Y-133053828D02*
X219245488Y-132968114D01*
X219245488Y-132968114D02*
X219588346Y-132968114D01*
X219588346Y-132968114D02*
X219759774Y-133053828D01*
X218988346Y-134082400D02*
X219159774Y-134168114D01*
X219159774Y-134168114D02*
X219588346Y-134168114D01*
X219588346Y-134168114D02*
X219759774Y-134082400D01*
X219759774Y-134082400D02*
X219845488Y-133910971D01*
X219845488Y-133910971D02*
X219845488Y-133739542D01*
X219845488Y-133739542D02*
X219759774Y-133568114D01*
X219759774Y-133568114D02*
X219588346Y-133482400D01*
X219588346Y-133482400D02*
X219159774Y-133482400D01*
X219159774Y-133482400D02*
X218988346Y-133396685D01*
X218131203Y-134168114D02*
X218131203Y-132968114D01*
X218131203Y-133139542D02*
X218045489Y-133053828D01*
X218045489Y-133053828D02*
X217874060Y-132968114D01*
X217874060Y-132968114D02*
X217616917Y-132968114D01*
X217616917Y-132968114D02*
X217445489Y-133053828D01*
X217445489Y-133053828D02*
X217359775Y-133225257D01*
X217359775Y-133225257D02*
X217359775Y-134168114D01*
X217359775Y-133225257D02*
X217274060Y-133053828D01*
X217274060Y-133053828D02*
X217102632Y-132968114D01*
X217102632Y-132968114D02*
X216845489Y-132968114D01*
X216845489Y-132968114D02*
X216674060Y-133053828D01*
X216674060Y-133053828D02*
X216588346Y-133225257D01*
X216588346Y-133225257D02*
X216588346Y-134168114D01*
X214959775Y-132968114D02*
X214959775Y-134168114D01*
X215731203Y-132968114D02*
X215731203Y-133910971D01*
X215731203Y-133910971D02*
X215645489Y-134082400D01*
X215645489Y-134082400D02*
X215474060Y-134168114D01*
X215474060Y-134168114D02*
X215216917Y-134168114D01*
X215216917Y-134168114D02*
X215045489Y-134082400D01*
X215045489Y-134082400D02*
X214959775Y-133996685D01*
X213416918Y-134082400D02*
X213588346Y-134168114D01*
X213588346Y-134168114D02*
X213931204Y-134168114D01*
X213931204Y-134168114D02*
X214102632Y-134082400D01*
X214102632Y-134082400D02*
X214188346Y-133910971D01*
X214188346Y-133910971D02*
X214188346Y-133225257D01*
X214188346Y-133225257D02*
X214102632Y-133053828D01*
X214102632Y-133053828D02*
X213931204Y-132968114D01*
X213931204Y-132968114D02*
X213588346Y-132968114D01*
X213588346Y-132968114D02*
X213416918Y-133053828D01*
X213416918Y-133053828D02*
X213331204Y-133225257D01*
X213331204Y-133225257D02*
X213331204Y-133396685D01*
X213331204Y-133396685D02*
X214188346Y-133568114D01*
X212302632Y-134168114D02*
X212474061Y-134082400D01*
X212474061Y-134082400D02*
X212559775Y-133910971D01*
X212559775Y-133910971D02*
X212559775Y-132368114D01*
X209902632Y-133310971D02*
X209902632Y-134168114D01*
X210502632Y-132368114D02*
X209902632Y-133310971D01*
X209902632Y-133310971D02*
X209302632Y-132368114D01*
X208445489Y-134168114D02*
X208616918Y-134082400D01*
X208616918Y-134082400D02*
X208702632Y-133996685D01*
X208702632Y-133996685D02*
X208788346Y-133825257D01*
X208788346Y-133825257D02*
X208788346Y-133310971D01*
X208788346Y-133310971D02*
X208702632Y-133139542D01*
X208702632Y-133139542D02*
X208616918Y-133053828D01*
X208616918Y-133053828D02*
X208445489Y-132968114D01*
X208445489Y-132968114D02*
X208188346Y-132968114D01*
X208188346Y-132968114D02*
X208016918Y-133053828D01*
X208016918Y-133053828D02*
X207931204Y-133139542D01*
X207931204Y-133139542D02*
X207845489Y-133310971D01*
X207845489Y-133310971D02*
X207845489Y-133825257D01*
X207845489Y-133825257D02*
X207931204Y-133996685D01*
X207931204Y-133996685D02*
X208016918Y-134082400D01*
X208016918Y-134082400D02*
X208188346Y-134168114D01*
X208188346Y-134168114D02*
X208445489Y-134168114D01*
X207245490Y-132968114D02*
X206902633Y-134168114D01*
X206902633Y-134168114D02*
X206559775Y-133310971D01*
X206559775Y-133310971D02*
X206216918Y-134168114D01*
X206216918Y-134168114D02*
X205874061Y-132968114D01*
X221474060Y-136123257D02*
X220874060Y-136123257D01*
X220616917Y-137066114D02*
X221474060Y-137066114D01*
X221474060Y-137066114D02*
X221474060Y-135266114D01*
X221474060Y-135266114D02*
X220616917Y-135266114D01*
X219931203Y-136980400D02*
X219674061Y-137066114D01*
X219674061Y-137066114D02*
X219245489Y-137066114D01*
X219245489Y-137066114D02*
X219074061Y-136980400D01*
X219074061Y-136980400D02*
X218988346Y-136894685D01*
X218988346Y-136894685D02*
X218902632Y-136723257D01*
X218902632Y-136723257D02*
X218902632Y-136551828D01*
X218902632Y-136551828D02*
X218988346Y-136380400D01*
X218988346Y-136380400D02*
X219074061Y-136294685D01*
X219074061Y-136294685D02*
X219245489Y-136208971D01*
X219245489Y-136208971D02*
X219588346Y-136123257D01*
X219588346Y-136123257D02*
X219759775Y-136037542D01*
X219759775Y-136037542D02*
X219845489Y-135951828D01*
X219845489Y-135951828D02*
X219931203Y-135780400D01*
X219931203Y-135780400D02*
X219931203Y-135608971D01*
X219931203Y-135608971D02*
X219845489Y-135437542D01*
X219845489Y-135437542D02*
X219759775Y-135351828D01*
X219759775Y-135351828D02*
X219588346Y-135266114D01*
X219588346Y-135266114D02*
X219159775Y-135266114D01*
X219159775Y-135266114D02*
X218902632Y-135351828D01*
X218131203Y-137066114D02*
X218131203Y-135266114D01*
X218131203Y-135266114D02*
X217445489Y-135266114D01*
X217445489Y-135266114D02*
X217274060Y-135351828D01*
X217274060Y-135351828D02*
X217188346Y-135437542D01*
X217188346Y-135437542D02*
X217102632Y-135608971D01*
X217102632Y-135608971D02*
X217102632Y-135866114D01*
X217102632Y-135866114D02*
X217188346Y-136037542D01*
X217188346Y-136037542D02*
X217274060Y-136123257D01*
X217274060Y-136123257D02*
X217445489Y-136208971D01*
X217445489Y-136208971D02*
X218131203Y-136208971D01*
X216502632Y-135266114D02*
X215388346Y-135266114D01*
X215388346Y-135266114D02*
X215988346Y-135951828D01*
X215988346Y-135951828D02*
X215731203Y-135951828D01*
X215731203Y-135951828D02*
X215559775Y-136037542D01*
X215559775Y-136037542D02*
X215474060Y-136123257D01*
X215474060Y-136123257D02*
X215388346Y-136294685D01*
X215388346Y-136294685D02*
X215388346Y-136723257D01*
X215388346Y-136723257D02*
X215474060Y-136894685D01*
X215474060Y-136894685D02*
X215559775Y-136980400D01*
X215559775Y-136980400D02*
X215731203Y-137066114D01*
X215731203Y-137066114D02*
X216245489Y-137066114D01*
X216245489Y-137066114D02*
X216416917Y-136980400D01*
X216416917Y-136980400D02*
X216502632Y-136894685D01*
X214702631Y-135437542D02*
X214616917Y-135351828D01*
X214616917Y-135351828D02*
X214445489Y-135266114D01*
X214445489Y-135266114D02*
X214016917Y-135266114D01*
X214016917Y-135266114D02*
X213845489Y-135351828D01*
X213845489Y-135351828D02*
X213759774Y-135437542D01*
X213759774Y-135437542D02*
X213674060Y-135608971D01*
X213674060Y-135608971D02*
X213674060Y-135780400D01*
X213674060Y-135780400D02*
X213759774Y-136037542D01*
X213759774Y-136037542D02*
X214788346Y-137066114D01*
X214788346Y-137066114D02*
X213674060Y-137066114D01*
X211616916Y-136980400D02*
X211359774Y-137066114D01*
X211359774Y-137066114D02*
X210931202Y-137066114D01*
X210931202Y-137066114D02*
X210759774Y-136980400D01*
X210759774Y-136980400D02*
X210674059Y-136894685D01*
X210674059Y-136894685D02*
X210588345Y-136723257D01*
X210588345Y-136723257D02*
X210588345Y-136551828D01*
X210588345Y-136551828D02*
X210674059Y-136380400D01*
X210674059Y-136380400D02*
X210759774Y-136294685D01*
X210759774Y-136294685D02*
X210931202Y-136208971D01*
X210931202Y-136208971D02*
X211274059Y-136123257D01*
X211274059Y-136123257D02*
X211445488Y-136037542D01*
X211445488Y-136037542D02*
X211531202Y-135951828D01*
X211531202Y-135951828D02*
X211616916Y-135780400D01*
X211616916Y-135780400D02*
X211616916Y-135608971D01*
X211616916Y-135608971D02*
X211531202Y-135437542D01*
X211531202Y-135437542D02*
X211445488Y-135351828D01*
X211445488Y-135351828D02*
X211274059Y-135266114D01*
X211274059Y-135266114D02*
X210845488Y-135266114D01*
X210845488Y-135266114D02*
X210588345Y-135351828D01*
X209988345Y-135266114D02*
X208874059Y-135266114D01*
X208874059Y-135266114D02*
X209474059Y-135951828D01*
X209474059Y-135951828D02*
X209216916Y-135951828D01*
X209216916Y-135951828D02*
X209045488Y-136037542D01*
X209045488Y-136037542D02*
X208959773Y-136123257D01*
X208959773Y-136123257D02*
X208874059Y-136294685D01*
X208874059Y-136294685D02*
X208874059Y-136723257D01*
X208874059Y-136723257D02*
X208959773Y-136894685D01*
X208959773Y-136894685D02*
X209045488Y-136980400D01*
X209045488Y-136980400D02*
X209216916Y-137066114D01*
X209216916Y-137066114D02*
X209731202Y-137066114D01*
X209731202Y-137066114D02*
X209902630Y-136980400D01*
X209902630Y-136980400D02*
X209988345Y-136894685D01*
X206816915Y-136551828D02*
X205959773Y-136551828D01*
X206988344Y-137066114D02*
X206388344Y-135266114D01*
X206388344Y-135266114D02*
X205788344Y-137066114D01*
X204931201Y-137066114D02*
X205102630Y-136980400D01*
X205102630Y-136980400D02*
X205188344Y-136808971D01*
X205188344Y-136808971D02*
X205188344Y-135266114D01*
X203474059Y-137066114D02*
X203474059Y-136123257D01*
X203474059Y-136123257D02*
X203559773Y-135951828D01*
X203559773Y-135951828D02*
X203731201Y-135866114D01*
X203731201Y-135866114D02*
X204074059Y-135866114D01*
X204074059Y-135866114D02*
X204245487Y-135951828D01*
X203474059Y-136980400D02*
X203645487Y-137066114D01*
X203645487Y-137066114D02*
X204074059Y-137066114D01*
X204074059Y-137066114D02*
X204245487Y-136980400D01*
X204245487Y-136980400D02*
X204331201Y-136808971D01*
X204331201Y-136808971D02*
X204331201Y-136637542D01*
X204331201Y-136637542D02*
X204245487Y-136466114D01*
X204245487Y-136466114D02*
X204074059Y-136380400D01*
X204074059Y-136380400D02*
X203645487Y-136380400D01*
X203645487Y-136380400D02*
X203474059Y-136294685D01*
X202616916Y-137066114D02*
X202616916Y-135866114D01*
X202616916Y-136208971D02*
X202531202Y-136037542D01*
X202531202Y-136037542D02*
X202445488Y-135951828D01*
X202445488Y-135951828D02*
X202274059Y-135866114D01*
X202274059Y-135866114D02*
X202102630Y-135866114D01*
X201502630Y-137066114D02*
X201502630Y-135866114D01*
X201502630Y-136037542D02*
X201416916Y-135951828D01*
X201416916Y-135951828D02*
X201245487Y-135866114D01*
X201245487Y-135866114D02*
X200988344Y-135866114D01*
X200988344Y-135866114D02*
X200816916Y-135951828D01*
X200816916Y-135951828D02*
X200731202Y-136123257D01*
X200731202Y-136123257D02*
X200731202Y-137066114D01*
X200731202Y-136123257D02*
X200645487Y-135951828D01*
X200645487Y-135951828D02*
X200474059Y-135866114D01*
X200474059Y-135866114D02*
X200216916Y-135866114D01*
X200216916Y-135866114D02*
X200045487Y-135951828D01*
X200045487Y-135951828D02*
X199959773Y-136123257D01*
X199959773Y-136123257D02*
X199959773Y-137066114D01*
X196702630Y-136894685D02*
X196788344Y-136980400D01*
X196788344Y-136980400D02*
X197045487Y-137066114D01*
X197045487Y-137066114D02*
X197216915Y-137066114D01*
X197216915Y-137066114D02*
X197474058Y-136980400D01*
X197474058Y-136980400D02*
X197645487Y-136808971D01*
X197645487Y-136808971D02*
X197731201Y-136637542D01*
X197731201Y-136637542D02*
X197816915Y-136294685D01*
X197816915Y-136294685D02*
X197816915Y-136037542D01*
X197816915Y-136037542D02*
X197731201Y-135694685D01*
X197731201Y-135694685D02*
X197645487Y-135523257D01*
X197645487Y-135523257D02*
X197474058Y-135351828D01*
X197474058Y-135351828D02*
X197216915Y-135266114D01*
X197216915Y-135266114D02*
X197045487Y-135266114D01*
X197045487Y-135266114D02*
X196788344Y-135351828D01*
X196788344Y-135351828D02*
X196702630Y-135437542D01*
X195674058Y-137066114D02*
X195845487Y-136980400D01*
X195845487Y-136980400D02*
X195931201Y-136808971D01*
X195931201Y-136808971D02*
X195931201Y-135266114D01*
X194731201Y-137066114D02*
X194902630Y-136980400D01*
X194902630Y-136980400D02*
X194988344Y-136894685D01*
X194988344Y-136894685D02*
X195074058Y-136723257D01*
X195074058Y-136723257D02*
X195074058Y-136208971D01*
X195074058Y-136208971D02*
X194988344Y-136037542D01*
X194988344Y-136037542D02*
X194902630Y-135951828D01*
X194902630Y-135951828D02*
X194731201Y-135866114D01*
X194731201Y-135866114D02*
X194474058Y-135866114D01*
X194474058Y-135866114D02*
X194302630Y-135951828D01*
X194302630Y-135951828D02*
X194216916Y-136037542D01*
X194216916Y-136037542D02*
X194131201Y-136208971D01*
X194131201Y-136208971D02*
X194131201Y-136723257D01*
X194131201Y-136723257D02*
X194216916Y-136894685D01*
X194216916Y-136894685D02*
X194302630Y-136980400D01*
X194302630Y-136980400D02*
X194474058Y-137066114D01*
X194474058Y-137066114D02*
X194731201Y-137066114D01*
X192588345Y-136980400D02*
X192759773Y-137066114D01*
X192759773Y-137066114D02*
X193102630Y-137066114D01*
X193102630Y-137066114D02*
X193274059Y-136980400D01*
X193274059Y-136980400D02*
X193359773Y-136894685D01*
X193359773Y-136894685D02*
X193445487Y-136723257D01*
X193445487Y-136723257D02*
X193445487Y-136208971D01*
X193445487Y-136208971D02*
X193359773Y-136037542D01*
X193359773Y-136037542D02*
X193274059Y-135951828D01*
X193274059Y-135951828D02*
X193102630Y-135866114D01*
X193102630Y-135866114D02*
X192759773Y-135866114D01*
X192759773Y-135866114D02*
X192588345Y-135951828D01*
X191816916Y-137066114D02*
X191816916Y-135266114D01*
X191645488Y-136380400D02*
X191131202Y-137066114D01*
X191131202Y-135866114D02*
X191816916Y-136551828D01*
X220445489Y-139964114D02*
X221045489Y-139106971D01*
X221474060Y-139964114D02*
X221474060Y-138164114D01*
X221474060Y-138164114D02*
X220788346Y-138164114D01*
X220788346Y-138164114D02*
X220616917Y-138249828D01*
X220616917Y-138249828D02*
X220531203Y-138335542D01*
X220531203Y-138335542D02*
X220445489Y-138506971D01*
X220445489Y-138506971D02*
X220445489Y-138764114D01*
X220445489Y-138764114D02*
X220531203Y-138935542D01*
X220531203Y-138935542D02*
X220616917Y-139021257D01*
X220616917Y-139021257D02*
X220788346Y-139106971D01*
X220788346Y-139106971D02*
X221474060Y-139106971D01*
X218988346Y-139878400D02*
X219159774Y-139964114D01*
X219159774Y-139964114D02*
X219502632Y-139964114D01*
X219502632Y-139964114D02*
X219674060Y-139878400D01*
X219674060Y-139878400D02*
X219759774Y-139706971D01*
X219759774Y-139706971D02*
X219759774Y-139021257D01*
X219759774Y-139021257D02*
X219674060Y-138849828D01*
X219674060Y-138849828D02*
X219502632Y-138764114D01*
X219502632Y-138764114D02*
X219159774Y-138764114D01*
X219159774Y-138764114D02*
X218988346Y-138849828D01*
X218988346Y-138849828D02*
X218902632Y-139021257D01*
X218902632Y-139021257D02*
X218902632Y-139192685D01*
X218902632Y-139192685D02*
X219759774Y-139364114D01*
X218302632Y-138764114D02*
X217874060Y-139964114D01*
X217874060Y-139964114D02*
X217445489Y-138764114D01*
X214445488Y-139964114D02*
X215474059Y-139964114D01*
X214959774Y-139964114D02*
X214959774Y-138164114D01*
X214959774Y-138164114D02*
X215131202Y-138421257D01*
X215131202Y-138421257D02*
X215302631Y-138592685D01*
X215302631Y-138592685D02*
X215474059Y-138678400D01*
X211959773Y-138164114D02*
X211788344Y-138164114D01*
X211788344Y-138164114D02*
X211616916Y-138249828D01*
X211616916Y-138249828D02*
X211531202Y-138335542D01*
X211531202Y-138335542D02*
X211445487Y-138506971D01*
X211445487Y-138506971D02*
X211359773Y-138849828D01*
X211359773Y-138849828D02*
X211359773Y-139278400D01*
X211359773Y-139278400D02*
X211445487Y-139621257D01*
X211445487Y-139621257D02*
X211531202Y-139792685D01*
X211531202Y-139792685D02*
X211616916Y-139878400D01*
X211616916Y-139878400D02*
X211788344Y-139964114D01*
X211788344Y-139964114D02*
X211959773Y-139964114D01*
X211959773Y-139964114D02*
X212131202Y-139878400D01*
X212131202Y-139878400D02*
X212216916Y-139792685D01*
X212216916Y-139792685D02*
X212302630Y-139621257D01*
X212302630Y-139621257D02*
X212388344Y-139278400D01*
X212388344Y-139278400D02*
X212388344Y-138849828D01*
X212388344Y-138849828D02*
X212302630Y-138506971D01*
X212302630Y-138506971D02*
X212216916Y-138335542D01*
X212216916Y-138335542D02*
X212131202Y-138249828D01*
X212131202Y-138249828D02*
X211959773Y-138164114D01*
X210674058Y-138335542D02*
X210588344Y-138249828D01*
X210588344Y-138249828D02*
X210416916Y-138164114D01*
X210416916Y-138164114D02*
X209988344Y-138164114D01*
X209988344Y-138164114D02*
X209816916Y-138249828D01*
X209816916Y-138249828D02*
X209731201Y-138335542D01*
X209731201Y-138335542D02*
X209645487Y-138506971D01*
X209645487Y-138506971D02*
X209645487Y-138678400D01*
X209645487Y-138678400D02*
X209731201Y-138935542D01*
X209731201Y-138935542D02*
X210759773Y-139964114D01*
X210759773Y-139964114D02*
X209645487Y-139964114D01*
X207588344Y-138078400D02*
X209131201Y-140392685D01*
X207074058Y-138335542D02*
X206988344Y-138249828D01*
X206988344Y-138249828D02*
X206816916Y-138164114D01*
X206816916Y-138164114D02*
X206388344Y-138164114D01*
X206388344Y-138164114D02*
X206216916Y-138249828D01*
X206216916Y-138249828D02*
X206131201Y-138335542D01*
X206131201Y-138335542D02*
X206045487Y-138506971D01*
X206045487Y-138506971D02*
X206045487Y-138678400D01*
X206045487Y-138678400D02*
X206131201Y-138935542D01*
X206131201Y-138935542D02*
X207159773Y-139964114D01*
X207159773Y-139964114D02*
X206045487Y-139964114D01*
X204931201Y-138164114D02*
X204759772Y-138164114D01*
X204759772Y-138164114D02*
X204588344Y-138249828D01*
X204588344Y-138249828D02*
X204502630Y-138335542D01*
X204502630Y-138335542D02*
X204416915Y-138506971D01*
X204416915Y-138506971D02*
X204331201Y-138849828D01*
X204331201Y-138849828D02*
X204331201Y-139278400D01*
X204331201Y-139278400D02*
X204416915Y-139621257D01*
X204416915Y-139621257D02*
X204502630Y-139792685D01*
X204502630Y-139792685D02*
X204588344Y-139878400D01*
X204588344Y-139878400D02*
X204759772Y-139964114D01*
X204759772Y-139964114D02*
X204931201Y-139964114D01*
X204931201Y-139964114D02*
X205102630Y-139878400D01*
X205102630Y-139878400D02*
X205188344Y-139792685D01*
X205188344Y-139792685D02*
X205274058Y-139621257D01*
X205274058Y-139621257D02*
X205359772Y-139278400D01*
X205359772Y-139278400D02*
X205359772Y-138849828D01*
X205359772Y-138849828D02*
X205274058Y-138506971D01*
X205274058Y-138506971D02*
X205188344Y-138335542D01*
X205188344Y-138335542D02*
X205102630Y-138249828D01*
X205102630Y-138249828D02*
X204931201Y-138164114D01*
X203645486Y-138335542D02*
X203559772Y-138249828D01*
X203559772Y-138249828D02*
X203388344Y-138164114D01*
X203388344Y-138164114D02*
X202959772Y-138164114D01*
X202959772Y-138164114D02*
X202788344Y-138249828D01*
X202788344Y-138249828D02*
X202702629Y-138335542D01*
X202702629Y-138335542D02*
X202616915Y-138506971D01*
X202616915Y-138506971D02*
X202616915Y-138678400D01*
X202616915Y-138678400D02*
X202702629Y-138935542D01*
X202702629Y-138935542D02*
X203731201Y-139964114D01*
X203731201Y-139964114D02*
X202616915Y-139964114D01*
X201074058Y-138764114D02*
X201074058Y-139964114D01*
X201502629Y-138078400D02*
X201931200Y-139364114D01*
X201931200Y-139364114D02*
X200816915Y-139364114D01*
X98528570Y-86378400D02*
X97157142Y-86378400D01*
X96299999Y-86378400D02*
X94928571Y-86378400D01*
X95614285Y-87064114D02*
X95614285Y-85692685D01*
X94071428Y-86378400D02*
X92700000Y-86378400D01*
X91842857Y-86378400D02*
X90471429Y-86378400D01*
X91157143Y-87064114D02*
X91157143Y-85692685D01*
D11*
X227563659Y-112517219D02*
X227563659Y-111517219D01*
X227087469Y-112517219D02*
X227087469Y-111517219D01*
X227087469Y-111517219D02*
X226754136Y-112231504D01*
X226754136Y-112231504D02*
X226420803Y-111517219D01*
X226420803Y-111517219D02*
X226420803Y-112517219D01*
X225944612Y-111517219D02*
X225944612Y-112326742D01*
X225944612Y-112326742D02*
X225896993Y-112421980D01*
X225896993Y-112421980D02*
X225849374Y-112469600D01*
X225849374Y-112469600D02*
X225754136Y-112517219D01*
X225754136Y-112517219D02*
X225563660Y-112517219D01*
X225563660Y-112517219D02*
X225468422Y-112469600D01*
X225468422Y-112469600D02*
X225420803Y-112421980D01*
X225420803Y-112421980D02*
X225373184Y-112326742D01*
X225373184Y-112326742D02*
X225373184Y-111517219D01*
X224135088Y-112517219D02*
X224135088Y-111517219D01*
X223658898Y-112517219D02*
X223658898Y-111517219D01*
X223658898Y-111517219D02*
X223087470Y-112517219D01*
X223087470Y-112517219D02*
X223087470Y-111517219D01*
X222754136Y-111517219D02*
X222182708Y-111517219D01*
X222468422Y-112517219D02*
X222468422Y-111517219D01*
X221896993Y-111612457D02*
X221849374Y-111564838D01*
X221849374Y-111564838D02*
X221754136Y-111517219D01*
X221754136Y-111517219D02*
X221516041Y-111517219D01*
X221516041Y-111517219D02*
X221420803Y-111564838D01*
X221420803Y-111564838D02*
X221373184Y-111612457D01*
X221373184Y-111612457D02*
X221325565Y-111707695D01*
X221325565Y-111707695D02*
X221325565Y-111802933D01*
X221325565Y-111802933D02*
X221373184Y-111945790D01*
X221373184Y-111945790D02*
X221944612Y-112517219D01*
X221944612Y-112517219D02*
X221325565Y-112517219D01*
X225161904Y-94814838D02*
X225257142Y-94767219D01*
X225257142Y-94767219D02*
X225399999Y-94767219D01*
X225399999Y-94767219D02*
X225542856Y-94814838D01*
X225542856Y-94814838D02*
X225638094Y-94910076D01*
X225638094Y-94910076D02*
X225685713Y-95005314D01*
X225685713Y-95005314D02*
X225733332Y-95195790D01*
X225733332Y-95195790D02*
X225733332Y-95338647D01*
X225733332Y-95338647D02*
X225685713Y-95529123D01*
X225685713Y-95529123D02*
X225638094Y-95624361D01*
X225638094Y-95624361D02*
X225542856Y-95719600D01*
X225542856Y-95719600D02*
X225399999Y-95767219D01*
X225399999Y-95767219D02*
X225304761Y-95767219D01*
X225304761Y-95767219D02*
X225161904Y-95719600D01*
X225161904Y-95719600D02*
X225114285Y-95671980D01*
X225114285Y-95671980D02*
X225114285Y-95338647D01*
X225114285Y-95338647D02*
X225304761Y-95338647D01*
X224685713Y-95767219D02*
X224685713Y-94767219D01*
X224685713Y-94767219D02*
X224114285Y-95767219D01*
X224114285Y-95767219D02*
X224114285Y-94767219D01*
X223638094Y-95767219D02*
X223638094Y-94767219D01*
X223638094Y-94767219D02*
X223399999Y-94767219D01*
X223399999Y-94767219D02*
X223257142Y-94814838D01*
X223257142Y-94814838D02*
X223161904Y-94910076D01*
X223161904Y-94910076D02*
X223114285Y-95005314D01*
X223114285Y-95005314D02*
X223066666Y-95195790D01*
X223066666Y-95195790D02*
X223066666Y-95338647D01*
X223066666Y-95338647D02*
X223114285Y-95529123D01*
X223114285Y-95529123D02*
X223161904Y-95624361D01*
X223161904Y-95624361D02*
X223257142Y-95719600D01*
X223257142Y-95719600D02*
X223399999Y-95767219D01*
X223399999Y-95767219D02*
X223638094Y-95767219D01*
D13*
%TO.C,J203*%
X138250000Y-81650000D02*
X154250000Y-81650000D01*
X154250000Y-81650000D02*
X154250000Y-141650000D01*
X154250000Y-141650000D02*
X138250000Y-141650000D01*
X138250000Y-141650000D02*
X138250000Y-81650000D01*
D14*
%TO.C,TP302*%
X225850000Y-99500000D02*
X225850000Y-96600000D01*
X225850000Y-96600000D02*
X222950000Y-96600000D01*
X222950000Y-99500000D02*
X225850000Y-99500000D01*
X222950000Y-96600000D02*
X222950000Y-99500000D01*
%TO.C,TP303*%
X225850000Y-111100000D02*
X225850000Y-108200000D01*
X225850000Y-108200000D02*
X222950000Y-108200000D01*
X222950000Y-111100000D02*
X225850000Y-111100000D01*
X222950000Y-108200000D02*
X222950000Y-111100000D01*
D13*
%TO.C,J205*%
X137750000Y-141650000D02*
X121750000Y-141650000D01*
X121750000Y-141650000D02*
X121750000Y-81650000D01*
X121750000Y-81650000D02*
X137750000Y-81650000D01*
X137750000Y-81650000D02*
X137750000Y-141650000D01*
D14*
%TO.C,TP301*%
X225850000Y-116550000D02*
X225850000Y-113650000D01*
X225850000Y-113650000D02*
X222950000Y-113650000D01*
X222950000Y-116550000D02*
X225850000Y-116550000D01*
X222950000Y-113650000D02*
X222950000Y-116550000D01*
D13*
%TO.C,J202*%
X170750000Y-141650000D02*
X154750000Y-141650000D01*
X154750000Y-141650000D02*
X154750000Y-81650000D01*
X154750000Y-81650000D02*
X170750000Y-81650000D01*
X170750000Y-81650000D02*
X170750000Y-141650000D01*
%TO.C,J204*%
X105250000Y-81650000D02*
X121250000Y-81650000D01*
X121250000Y-81650000D02*
X121250000Y-141650000D01*
X121250000Y-141650000D02*
X105250000Y-141650000D01*
X105250000Y-141650000D02*
X105250000Y-81650000D01*
D14*
%TO.C,TP304*%
X225850000Y-94350000D02*
X225850000Y-91450000D01*
X225850000Y-91450000D02*
X222950000Y-91450000D01*
X222950000Y-94350000D02*
X225850000Y-94350000D01*
X222950000Y-91450000D02*
X222950000Y-94350000D01*
%TD*%
%LPC*%
D15*
%TO.C,LS401*%
X79500000Y-95600000D03*
X84500000Y-95600000D03*
%TD*%
D16*
%TO.C,J301*%
X181800000Y-97000000D03*
D17*
X179260000Y-97000000D03*
X176720000Y-97000000D03*
X174180000Y-97000000D03*
%TD*%
D16*
%TO.C,J402*%
X79800000Y-114200000D03*
D17*
X79800000Y-116740000D03*
X79800000Y-119280000D03*
X79800000Y-121820000D03*
%TD*%
D18*
%TO.C,H103*%
X78000000Y-85000000D03*
D19*
X78000000Y-85000000D03*
%TD*%
D20*
%TO.C,J206*%
X228075000Y-128780000D03*
X228075000Y-123000000D03*
D21*
X227575000Y-130210000D03*
D22*
X231755000Y-130210000D03*
D21*
X227575000Y-121570000D03*
D22*
X231755000Y-121570000D03*
%TD*%
D23*
%TO.C,R410*%
X100610000Y-91200000D03*
D24*
X92990000Y-91200000D03*
%TD*%
D15*
%TO.C,LS402*%
X82000000Y-92350000D03*
X82000000Y-98850000D03*
%TD*%
D18*
%TO.C,H102*%
X78000000Y-139000000D03*
D19*
X78000000Y-139000000D03*
%TD*%
D18*
%TO.C,H104*%
X229000000Y-139000000D03*
D19*
X229000000Y-139000000D03*
%TD*%
D18*
%TO.C,H101*%
X229000000Y-85000000D03*
D19*
X229000000Y-85000000D03*
%TD*%
D25*
%TO.C,J203*%
X146250000Y-84000000D03*
X146250000Y-139300000D03*
%TD*%
D26*
%TO.C,TP302*%
X224400000Y-98050000D03*
%TD*%
%TO.C,TP303*%
X224400000Y-109650000D03*
%TD*%
D25*
%TO.C,J205*%
X129750000Y-139300000D03*
X129750000Y-84000000D03*
%TD*%
D26*
%TO.C,TP301*%
X224400000Y-115100000D03*
%TD*%
D25*
%TO.C,J202*%
X162750000Y-139300000D03*
X162750000Y-84000000D03*
%TD*%
%TO.C,J204*%
X113250000Y-84000000D03*
X113250000Y-139300000D03*
%TD*%
D26*
%TO.C,TP304*%
X224400000Y-92900000D03*
%TD*%
%LPD*%
M02*
